<?xml version="1.0" standalone="no"?>
<!DOCTYPE svg PUBLIC "-//W3C//DTD SVG 20010904//EN"
 "http://www.w3.org/TR/2001/REC-SVG-20010904/DTD/svg10.dtd">
<svg version="1.0" xmlns="http://www.w3.org/2000/svg"
 width="816.000000pt" height="816.000000pt" viewBox="0 0 816.000000 816.000000"
 preserveAspectRatio="xMidYMid meet">
<metadata>
Created by potrace 1.11, written by Peter Selinger 2001-2013
</metadata>
<g transform="translate(0.000000,816.000000) scale(0.100000,-0.100000)"
fill="#000000" stroke="none">
<path d="M4739 7296 c-2 -2 -26 -7 -54 -10 -103 -11 -189 -32 -387 -96 -54
-17 -101 -30 -104 -29 -4 0 -10 -3 -13 -8 -3 -5 -26 -17 -51 -28 -116 -49
-306 -201 -386 -310 -42 -58 -84 -124 -84 -135 0 -4 -3 -10 -7 -12 -31 -13
-126 -276 -157 -433 -37 -181 -40 -239 -61 -965 -2 -96 -7 -254 -10 -350 -3
-96 -8 -242 -10 -325 -2 -82 -7 -224 -10 -315 -10 -309 -16 -485 -20 -635 -2
-82 -7 -247 -11 -365 -12 -371 -8 -657 11 -712 2 -7 6 -29 9 -48 9 -58 16 -94
23 -115 4 -11 8 -25 9 -32 4 -23 26 -88 40 -120 8 -17 14 -35 14 -39 0 -9 63
-134 94 -185 60 -102 205 -250 312 -320 127 -85 290 -152 424 -175 14 -3 34
-7 44 -11 90 -27 467 -39 586 -18 86 14 191 39 260 62 41 13 104 33 140 44
136 43 291 132 397 230 54 50 168 179 157 179 -3 0 6 15 19 33 46 60 145 279
162 357 2 8 8 35 15 60 39 157 58 347 64 663 2 75 6 140 9 144 4 3 2 13 -3 23
-5 10 -7 20 -4 22 4 5 7 66 19 473 3 99 8 260 11 359 3 98 7 235 9 305 6 211
15 529 20 661 20 557 24 891 12 1010 -19 201 -61 361 -140 530 -6 14 -26 49
-44 78 -18 29 -33 55 -33 58 0 3 -6 11 -12 19 -7 7 -24 28 -38 47 -46 62 -158
166 -235 218 -144 97 -324 166 -515 195 -25 4 -56 10 -70 12 -32 6 -396 14
-401 9z m171 -860 c51 -12 147 -67 184 -106 38 -41 90 -141 101 -195 21 -96
23 -144 19 -380 -8 -403 -10 -481 -18 -494 -4 -6 -2 -11 4 -11 6 0 9 -4 6 -9
-3 -5 -8 -91 -11 -192 -3 -101 -7 -263 -10 -359 -3 -96 -7 -247 -10 -335 -8
-256 -15 -487 -20 -675 -3 -96 -7 -245 -10 -330 -2 -85 -7 -247 -10 -360 -4
-113 -8 -218 -10 -235 -20 -176 -62 -276 -148 -357 -23 -21 -56 -41 -74 -44
-31 -6 -158 0 -193 9 -59 15 -81 24 -122 49 -91 56 -144 138 -177 276 -16 65
-19 111 -17 294 2 120 5 221 9 224 3 4 2 14 -3 24 -5 10 -7 20 -4 23 3 3 7 68
9 144 2 76 7 228 10 338 3 110 7 270 10 355 2 85 7 236 10 335 3 99 7 259 10
355 6 197 12 388 21 695 4 116 7 270 8 342 0 73 3 133 6 133 3 0 5 26 6 58 2
151 46 285 122 368 60 66 83 75 187 70 50 -3 101 -7 115 -10z"/>
<path d="M7299 6808 c-1 -20 -7 -49 -11 -53 -2 -2 -19 0 -38 4 -19 4 -50 7
-69 7 -30 -1 -35 -5 -38 -26 -6 -57 -21 -176 -27 -205 -2 -11 -7 -47 -11 -80
-9 -65 -10 -73 -19 -153 -3 -29 -8 -63 -11 -75 -3 -12 -7 -39 -10 -59 -11 -82
-15 -115 -20 -153 -3 -22 -7 -51 -9 -65 -4 -25 -10 -70 -21 -160 -3 -25 -7
-54 -9 -65 -2 -12 -7 -48 -11 -80 -4 -33 -9 -69 -11 -80 -2 -10 -6 -35 -8 -55
-3 -19 -8 -55 -12 -80 -3 -25 -8 -58 -10 -75 -2 -16 -6 -46 -9 -65 -3 -19 -8
-55 -11 -80 -3 -25 -7 -56 -9 -70 -2 -14 -7 -48 -10 -76 -3 -28 -7 -61 -10
-73 -2 -13 -7 -49 -11 -80 -11 -86 -12 -96 -14 -96 -1 0 -3 -13 -4 -30 -5 -52
-20 -164 -31 -225 -4 -28 -15 -139 -21 -215 -2 -27 -6 -77 -9 -110 -2 -33 -7
-91 -10 -130 -3 -38 -7 -95 -10 -125 -2 -30 -7 -86 -10 -125 -3 -38 -7 -95
-10 -125 -3 -30 -7 -84 -10 -120 -5 -66 -12 -156 -20 -245 -3 -27 -7 -81 -10
-120 -3 -38 -8 -101 -11 -140 -7 -89 -12 -149 -19 -255 -3 -47 -7 -96 -10
-108 -2 -13 -7 -69 -10 -124 -3 -56 -6 -104 -7 -107 -2 -19 4 -27 20 -27 9 -1
37 -4 62 -8 61 -10 85 -13 150 -22 30 -4 69 -9 85 -11 17 -2 44 -5 60 -8 48
-6 108 -15 132 -20 12 -3 44 -7 71 -10 48 -5 49 -4 59 28 5 17 14 31 20 30 5
-1 31 -4 58 -8 26 -3 51 -8 56 -10 4 -3 13 21 20 52 7 32 14 63 15 68 1 6 5
26 9 45 3 19 11 55 16 80 6 25 13 59 15 75 2 17 6 41 9 55 3 14 7 36 10 50 2
14 9 48 15 75 6 28 12 64 15 80 7 45 13 74 20 95 3 10 8 34 10 52 4 31 6 43
21 113 4 17 8 39 10 50 2 11 5 31 8 45 9 41 15 73 21 105 5 33 12 66 20 105 3
14 7 36 10 50 4 22 16 80 31 158 2 12 6 32 8 45 2 12 7 33 10 47 4 14 9 39 11
55 2 17 4 30 5 30 1 0 3 11 6 25 2 14 18 95 35 180 17 85 32 164 33 175 2 11
6 29 9 40 3 11 8 43 11 70 5 42 22 167 51 375 3 19 7 53 9 75 3 22 9 71 16
108 6 38 13 94 16 124 2 31 6 59 9 63 3 4 7 34 10 66 3 33 7 70 10 84 2 13 7
42 10 65 8 56 16 115 21 150 3 17 7 48 9 69 4 38 12 96 20 146 2 14 6 43 9 65
3 22 12 87 20 145 8 58 18 130 21 160 3 30 8 62 10 70 3 8 7 40 10 70 5 52 10
83 20 140 2 14 7 50 11 80 3 30 9 75 13 100 10 65 8 83 -9 85 -8 2 -35 6 -60
10 -25 3 -56 8 -70 10 -14 2 -68 9 -120 15 -52 7 -103 14 -114 16 -10 2 -44 6
-75 10 -31 3 -65 8 -76 10 -11 2 -44 7 -74 10 -30 3 -64 8 -75 10 -12 3 -39 7
-60 9 -21 2 -56 7 -77 10 -28 4 -39 2 -40 -7z"/>
<path d="M1388 6495 c-2 -1 -37 -6 -78 -9 -113 -10 -250 -35 -300 -53 -8 -3
-20 -7 -27 -9 -17 -3 -155 -44 -173 -51 -8 -3 -20 -7 -27 -9 -18 -3 -133 -51
-179 -73 -122 -60 -292 -200 -369 -306 -16 -22 -35 -46 -42 -53 -7 -7 -13 -18
-13 -23 0 -5 -11 -27 -25 -49 -14 -22 -22 -40 -18 -40 5 0 3 -4 -3 -8 -23 -15
-97 -246 -110 -342 -3 -25 -10 -67 -14 -95 -8 -53 -6 -374 4 -485 11 -135 16
-197 21 -270 3 -41 7 -99 10 -128 2 -30 7 -88 10 -130 3 -42 8 -108 11 -147 3
-38 7 -97 9 -130 5 -95 15 -226 20 -280 2 -27 7 -84 10 -125 9 -123 15 -202
20 -265 6 -62 10 -120 21 -285 10 -146 12 -175 14 -175 0 0 3 -34 5 -75 4 -79
12 -184 20 -285 3 -33 7 -91 10 -130 17 -253 34 -442 42 -480 2 -11 6 -38 9
-60 2 -22 7 -47 10 -55 3 -8 8 -26 10 -38 5 -26 27 -109 43 -159 19 -63 85
-209 124 -273 71 -118 163 -227 247 -290 18 -14 40 -32 50 -40 67 -59 307
-163 430 -186 38 -7 48 -8 130 -21 108 -16 431 -9 530 12 14 3 39 7 55 9 62 8
329 84 430 122 270 103 491 305 603 554 30 65 61 149 67 183 2 9 6 20 8 25 3
4 8 25 11 47 4 22 8 47 11 55 5 20 14 79 21 149 7 64 7 346 0 406 -3 22 -8 83
-11 135 -4 52 -9 113 -10 135 -3 36 -8 97 -19 255 -3 30 -7 91 -11 135 -3 44
-8 107 -10 141 -5 57 -10 129 -20 274 -3 36 -7 92 -10 125 -2 33 -7 96 -10
140 -17 253 -24 325 -30 334 -2 4 -19 6 -37 5 -18 -2 -76 -6 -128 -9 -52 -4
-115 -8 -140 -11 -25 -2 -83 -6 -130 -9 -47 -2 -112 -7 -145 -10 -54 -4 -113
-9 -290 -20 -186 -13 -233 -16 -265 -20 -19 -2 -52 -4 -72 -4 -31 -1 -38 -5
-38 -21 0 -16 -7 -20 -35 -21 -19 -1 -44 -3 -55 -4 -11 -1 -29 -3 -41 -4 -20
-1 -21 -4 -14 -88 4 -49 9 -108 11 -133 2 -25 6 -74 9 -110 3 -36 7 -92 9
-125 3 -33 8 -94 12 -135 6 -67 10 -116 13 -173 1 -16 8 -18 59 -12 31 3 80 7
107 9 148 11 231 19 237 22 4 3 6 -4 6 -13 -1 -10 2 -54 6 -98 6 -81 11 -144
21 -290 4 -44 8 -100 10 -125 1 -25 6 -90 10 -145 3 -55 8 -120 10 -145 17
-196 21 -329 12 -380 -3 -14 -8 -43 -12 -65 -15 -81 -100 -225 -134 -225 -6 0
-11 -3 -11 -8 0 -39 -215 -54 -313 -22 -74 25 -107 43 -149 82 -33 31 -97 110
-90 112 2 1 -4 17 -12 38 -33 77 -50 181 -62 363 -2 44 -7 100 -9 125 -3 25
-7 81 -10 125 -3 44 -7 100 -9 125 -3 25 -8 86 -11 135 -4 50 -9 113 -11 140
-6 71 -14 169 -19 250 -3 39 -8 99 -11 135 -4 36 -7 91 -8 122 -1 32 -3 58 -6
58 -3 0 -6 33 -7 73 -2 39 -5 95 -8 122 -3 28 -8 82 -10 120 -10 134 -16 210
-20 255 -2 25 -6 83 -9 130 -3 46 -8 113 -12 150 -6 67 -10 125 -19 245 -2 39
-7 95 -9 125 -3 30 -8 98 -11 150 -4 52 -9 106 -12 120 -11 60 -10 320 2 371
27 114 74 192 146 245 48 35 53 36 142 38 175 4 299 -51 379 -169 31 -45 73
-156 82 -213 3 -20 8 -48 10 -62 3 -14 7 -66 11 -116 3 -49 7 -110 10 -135 2
-24 7 -78 10 -119 15 -195 19 -245 24 -273 0 -4 13 -5 29 -3 15 3 68 7 117 11
50 3 117 8 150 10 33 3 94 7 135 10 41 3 95 8 120 10 25 2 91 7 147 10 56 4
108 8 115 9 22 3 39 17 33 27 -4 5 4 10 17 11 13 0 28 2 33 3 6 2 30 3 53 4
l44 1 -7 118 c-3 64 -8 133 -10 152 -2 19 -6 85 -10 145 -6 106 -11 161 -21
235 -11 76 -15 106 -19 120 -2 8 -7 30 -10 49 -16 91 -59 227 -106 327 -10 23
-19 44 -19 48 0 12 -115 190 -145 226 -124 142 -273 250 -425 307 -87 32 -192
62 -240 69 -14 2 -38 6 -55 9 -31 6 -391 15 -397 10z"/>
<path d="M6674 2143 c-8 -32 -22 -45 -44 -38 -8 2 -36 7 -62 9 -44 5 -48 3
-49 -17 0 -12 -3 -31 -5 -42 -2 -11 -7 -38 -9 -60 -3 -22 -8 -58 -11 -80 -3
-22 -8 -51 -9 -65 -2 -14 -5 -38 -8 -55 -3 -16 -8 -52 -12 -80 -3 -27 -8 -68
-11 -90 -3 -22 -7 -49 -9 -60 -1 -11 -6 -42 -9 -70 -4 -27 -9 -59 -11 -70 -2
-11 -7 -47 -10 -81 -5 -47 -4 -61 7 -61 7 0 32 -4 56 -7 24 -4 58 -9 75 -10
18 -2 55 -7 82 -11 28 -4 61 -8 75 -10 14 -2 61 -9 106 -15 44 -6 91 -13 105
-15 13 -3 42 -7 64 -10 22 -3 56 -7 75 -11 19 -3 53 -7 76 -8 22 -2 55 -7 72
-11 29 -6 32 -4 33 17 1 13 1 26 0 31 -2 11 9 11 92 3 60 -7 61 -6 60 42 -1 6
2 12 6 12 4 0 6 12 5 28 0 15 3 43 7 62 7 32 12 71 25 170 2 19 7 52 10 72 2
21 6 50 8 65 7 51 18 128 22 153 2 14 6 43 9 65 12 92 16 121 21 137 4 13 -8
18 -68 28 -81 13 -105 16 -163 24 -22 3 -89 12 -150 21 -60 9 -128 18 -150 21
-22 3 -56 7 -75 10 -45 7 -63 10 -130 18 -30 4 -63 10 -72 12 -13 4 -19 -3
-24 -23z"/>
</g>
</svg>
