<svg width="1440" height="200" viewBox="0 0 1440 200" fill="none" xmlns="http://www.w3.org/2000/svg">
<path d="M769.473 93.4C769.473 116.733 765.006 134.667 756.073 147.2C747.273 159.6 735.073 165.8 719.473 165.8C703.873 165.8 691.606 159.6 682.673 147.2C673.873 134.667 669.473 116.733 669.473 93.4C669.473 81.8 670.606 71.5333 672.873 62.6C675.273 53.6666 678.673 46.1333 683.073 40C687.473 33.8666 692.739 29.2 698.873 26C705.006 22.8 711.873 21.2 719.473 21.2C735.073 21.2 747.273 27.4666 756.073 40C765.006 52.4 769.473 70.2 769.473 93.4ZM739.073 93.4C739.073 86.4666 738.739 80.2 738.073 74.6C737.406 68.8666 736.339 63.9333 734.873 59.8C733.406 55.6666 731.406 52.4666 728.873 50.2C726.339 47.9333 723.206 46.8 719.473 46.8C715.739 46.8 712.606 47.9333 710.073 50.2C707.673 52.4666 705.673 55.6666 704.073 59.8C702.606 63.9333 701.539 68.8666 700.873 74.6C700.206 80.2 699.873 86.4666 699.873 93.4C699.873 100.333 700.206 106.667 700.873 112.4C701.539 118.133 702.606 123.067 704.073 127.2C705.673 131.333 707.673 134.533 710.073 136.8C712.606 139.067 715.739 140.2 719.473 140.2C723.206 140.2 726.339 139.067 728.873 136.8C731.406 134.533 733.406 131.333 734.873 127.2C736.339 123.067 737.406 118.133 738.073 112.4C738.739 106.667 739.073 100.333 739.073 93.4Z" fill="white"/>
<path d="M-15.0124 131.141C32.4566 97.5769 90.147 82.006 148.184 85.6392C176.769 87.5423 205.528 94.4627 231.688 106.4C262.525 120.414 291.804 134.774 326.626 127.854C387.954 115.743 420.524 51.3831 480.121 36.6772C492.248 33.7361 505.414 33.563 516.502 39.6184C527.763 45.6738 535.905 56.0544 543.008 66.435C560.506 92.0406 577.484 119.722 609.188 129.411C638.813 138.58 661.334 121.279 681.084 101.729C684.722 98.0959 688.361 94.2897 692.518 91.3485C691.999 91.6945 695.637 89.4454 696.85 88.7534C697.369 88.4073 701.354 87.3693 699.968 87.5423C703.606 87.1963 704.646 87.5423 707.764 90.4835C711.575 94.1167 713.481 99.653 715.04 104.67C718.852 117.992 719.025 131.833 724.222 144.809C730.286 160.38 741.2 171.798 756.966 178.027C787.11 189.791 817.948 175.778 841.336 156.919C867.149 136.158 890.537 112.629 917.044 92.7326C930.383 82.698 944.07 73.1824 958.103 64.0129C971.962 55.0163 986.168 45.8468 1001.93 40.8295C1026.01 33.044 1046.11 39.4454 1063.09 54.3243C1080.41 69.5492 1093.93 88.2343 1109.52 105.016C1126.15 122.836 1145.9 139.099 1169.81 145.328C1202.2 153.805 1234.95 144.29 1265.96 134.774C1292.64 126.643 1319.84 118.511 1347.9 123.874C1373.72 128.892 1397.45 141.349 1415.81 160.38C1424.65 169.549 1431.58 179.93 1437.3 191.349C1441.45 199.826 1453.41 202.075 1461.03 197.577C1469.69 192.56 1471.43 182.352 1467.27 173.874C1441.8 121.798 1384.63 87.1963 1326.59 87.5423C1293.5 87.7153 1262.84 100.691 1231.31 108.996C1204.28 116.089 1178.82 116.781 1156.12 100.864C1138.62 88.7534 1123.9 68.8572 1109.35 52.2482C1093.58 34.2551 1076.08 17.3001 1053.56 8.30353C1022.03 -4.32623 988.767 6.0544 960.528 21.9714C930.383 39.0994 902.144 60.2067 875.118 82.006C861.778 92.7326 848.785 103.978 836.138 115.57C824.704 125.951 813.27 137.196 799.064 143.771C789.535 148.096 777.062 149.999 767.36 145.328C756.273 140.137 754.54 126.297 752.634 115.57C747.784 87.5423 736.523 53.6323 702.22 53.1132C675.541 52.7672 661.161 76.8157 642.278 91.1755C634.828 96.8849 626.166 99.48 615.771 95.1547C603.298 89.7914 593.596 78.8918 585.973 67.9921C568.302 42.3866 552.71 15.2239 521.699 4.32429C490.862 -6.57536 456.733 5.18935 430.053 21.1063C403.373 37.0233 382.237 60.2067 356.424 77.3347C344.643 85.1201 331.997 91.8676 317.79 94.6357C303.238 97.4039 289.032 93.7707 275.519 88.4073C260.446 82.525 246.24 74.7395 231.168 68.8572C217.309 63.4938 202.929 59.3416 188.203 56.4004C126.875 44.2897 62.9476 52.0752 6.46988 78.8918C-7.38969 85.1201 -20.2098 92.7326 -32.5102 101.21C-40.1329 106.573 -43.7711 116.262 -38.747 124.913C-34.2426 132.525 -22.6352 136.677 -15.0124 131.141Z" fill="#E653C5"/>
<path d="M608.8 60.8004C603.6 67.6004 598.067 75.0004 592.2 83.0004C586.333 91.0004 581.4 99.2004 577.4 107.6H608.8V60.8004ZM638 24.4004V107.6H652.8V132H638V163H608.8V132H549V110.2C551.933 104.334 555.6 97.7337 560 90.4004C564.4 82.9337 569.267 75.3337 574.6 67.6004C580.067 59.7337 585.8 52.0671 591.8 44.6004C597.8 37.1337 603.8 30.4004 609.8 24.4004H638Z" fill="white"/>
<path d="M844.144 60.8004C838.944 67.6004 833.41 75.0004 827.544 83.0004C821.677 91.0004 816.744 99.2004 812.744 107.6H844.144V60.8004ZM873.344 24.4004V107.6H888.144V132H873.344V163H844.144V132H784.344V110.2C787.277 104.334 790.944 97.7337 795.344 90.4004C799.744 82.9337 804.61 75.3337 809.944 67.6004C815.41 59.7337 821.144 52.0671 827.144 44.6004C833.144 37.1337 839.144 30.4004 845.144 24.4004H873.344Z" fill="white"/>
</svg>
