<svg width="52" height="21" viewBox="0 0 52 21" fill="none" xmlns="http://www.w3.org/2000/svg">
<path d="M9.40721 3.12615C9.9552 2.42354 10.3271 1.48015 10.229 0.516113C9.42681 0.557001 8.4479 1.05861 7.88117 1.76177C7.3723 2.36392 6.92191 3.34681 7.03932 4.27043C7.93981 4.3505 8.83946 3.80904 9.40721 3.12615Z" fill="black"/>
<path d="M10.2187 4.45066C8.91094 4.37081 7.79906 5.21147 7.17455 5.21147C6.54971 5.21147 5.59339 4.4909 4.55905 4.51032C3.2128 4.53059 1.96363 5.31087 1.28047 6.55187C-0.124688 9.03449 0.909648 12.7171 2.27609 14.739C2.93966 15.7394 3.73938 16.8408 4.79314 16.8012C5.78876 16.7612 6.179 16.1404 7.38922 16.1404C8.59855 16.1404 8.95008 16.8012 10.004 16.7812C11.0969 16.7612 11.7802 15.7804 12.4438 14.7791C13.205 13.6388 13.5167 12.5377 13.5363 12.4773C13.5167 12.4572 11.4288 11.6362 11.4094 9.17419C11.3897 7.11273 13.0486 6.13218 13.1267 6.07138C12.1899 4.65105 10.7261 4.4909 10.2187 4.45066Z" fill="black"/>
<path d="M25.7341 1.66114C28.5764 1.66114 30.5556 3.66951 30.5556 6.59355C30.5556 9.52803 28.5357 11.5468 25.6629 11.5468H22.5159V16.677H20.2422V1.66113H25.7341V1.66114ZM22.5159 9.59045H25.1248C27.1044 9.59045 28.231 8.49795 28.231 6.60398C28.231 4.71022 27.1044 3.62796 25.135 3.62796H22.5159V9.59045Z" fill="black"/>
<path d="M31.1494 13.5657C31.1494 11.6509 32.5808 10.4751 35.1188 10.3294L38.0421 10.1525V9.30972C38.0421 8.09217 37.2401 7.36377 35.9004 7.36377C34.6312 7.36377 33.8394 7.988 33.6467 8.96629H31.5759C31.6977 6.98903 33.342 5.53223 35.9815 5.53223C38.57 5.53223 40.2246 6.93704 40.2246 9.13269V16.677H38.1232V14.8768H38.0727C37.4536 16.0943 36.1033 16.8643 34.7025 16.8643C32.6113 16.8643 31.1494 15.5323 31.1494 13.5657ZM38.0421 12.5772V11.7135L35.4129 11.8799C34.1033 11.9736 33.3624 12.5668 33.3624 13.5033C33.3624 14.4605 34.1339 15.0849 35.3114 15.0849C36.8442 15.0849 38.0421 14.0027 38.0421 12.5772Z" fill="black"/>
<path d="M42.2081 20.7043V18.8832C42.3703 18.9247 42.7356 18.9247 42.9185 18.9247C43.9336 18.9247 44.4818 18.4877 44.8166 17.3639C44.8166 17.3431 45.0097 16.698 45.0097 16.6875L41.1523 5.72998H43.5275L46.228 14.6376H46.2683L48.9689 5.72998H51.2833L47.2834 17.2493C46.3702 19.903 45.3144 20.7562 43.1014 20.7562C42.9185 20.7562 42.3703 20.7354 42.2081 20.7043Z" fill="black"/>
</svg>
