<svg width="117" height="30" viewBox="0 0 117 30" fill="none" xmlns="http://www.w3.org/2000/svg">
<path d="M19.6188 7.32178L17.1162 22.5782H21.0775L23.5801 7.32178H19.6188Z" fill="#1A3680"/>
<path d="M31.022 13.2905C29.6837 12.6348 29.202 12.0325 29.2823 11.3099C29.3626 10.5872 30.1254 10.0519 32.0927 10.1857C33.0427 10.2197 33.9665 10.5061 34.7692 11.0155L35.2912 7.66974C34.1416 7.21402 32.9143 6.98673 31.6778 7.0006C29.5365 7.0006 25.1603 8.19167 25.1603 11.8987C25.1603 15.6058 28.7469 15.9939 29.7373 16.8236C30.7276 17.6533 31.6109 19.6742 28.1849 19.6742C24.7589 19.6742 24.0763 18.4965 24.0763 18.4965L23.541 21.9894C23.541 21.9894 24.7187 22.7656 28.3455 22.7656C31.9722 22.7656 34.4079 20.5039 34.7023 18.1485C35.0637 15.579 33.257 14.4281 31.022 13.2905Z" fill="#1A3680"/>
<path d="M45.1002 22.5782H48.66L45.4481 7.32178H42.0757C41.6768 7.34428 41.2932 7.48297 40.9722 7.72076C40.6512 7.95855 40.4067 8.28506 40.269 8.66006L34.501 22.5782H38.6497L39.466 20.2764H44.5381L45.1002 22.5782ZM40.5902 17.3188L42.6913 11.3902L44.0296 17.3188H40.5902Z" fill="#1A3680"/>
<path d="M3.42601 8.86109C3.42601 8.86109 4.64385 9.44994 9.60889 15.6462C9.15387 13.4113 8.48473 10.0923 8.3509 8.95477C8.12339 7.16147 5.5405 7.32206 5.5405 7.32206H0V7.72355C0 7.72355 1.13754 8.08489 2.46244 8.43284C2.80579 8.51936 3.13172 8.66421 3.42601 8.86109Z" fill="#ED9F01"/>
<path d="M13.865 7.40186L10.0509 17.7736L9.636 15.7795V15.5922C4.73788 9.50296 3.49327 8.90074 3.45312 8.82044C3.75678 9.01165 3.98764 9.29905 4.10888 9.63679L7.62857 22.578H11.804L17.9468 7.40186H13.865Z" fill="#1A3680"/>
<path d="M79.1582 29.8438C87.3993 29.8438 94.0801 23.163 94.0801 14.9219C94.0801 6.68075 87.3993 0 79.1582 0C70.9171 0 64.2363 6.68075 64.2363 14.9219C64.2363 23.163 70.9171 29.8438 79.1582 29.8438Z" fill="#FF0000"/>
<path d="M101.106 29.8438C109.348 29.8438 116.028 23.163 116.028 14.9219C116.028 6.68075 109.348 0 101.106 0C92.8653 0 86.1846 6.68075 86.1846 14.9219C86.1846 23.163 92.8653 29.8438 101.106 29.8438Z" fill="#FFB000"/>
<path d="M73.4036 14.7614C73.4036 13.9451 73.3233 12.9815 73.3233 12.0849C73.1225 12.8343 72.8682 13.6774 72.5872 14.467L71.6772 17.1436H70.727L69.8839 14.467C69.6564 13.7711 69.3887 12.9146 69.2683 12.2053C69.2683 13.0217 69.2013 14.012 69.1478 14.8819L69.014 17.3979H67.9434L68.3716 11.1615H69.8437L70.727 13.5436C70.9545 14.2797 71.1552 15.0157 71.3025 15.7116C71.4764 15.0291 71.6906 14.2663 71.9314 13.5302L72.788 11.041H74.2734L74.6348 17.2774H73.524L73.4036 14.7614Z" fill="#F5F5F5"/>
<path d="M78.275 17.304L78.208 16.7954C78.0454 16.9909 77.8404 17.1468 77.6085 17.2511C77.3766 17.3555 77.1239 17.4056 76.8698 17.3977C76.6874 17.4086 76.5047 17.3821 76.3329 17.3198C76.1612 17.2575 76.004 17.1606 75.8711 17.0352C75.7382 16.9099 75.6324 16.7586 75.5602 16.5908C75.4879 16.4229 75.4508 16.2421 75.4512 16.0594C75.4512 14.9218 76.4683 14.3464 78.1277 14.3598V14.2795C78.1277 13.985 78.0073 13.4899 77.2043 13.4899C76.7804 13.4935 76.3649 13.6089 75.9999 13.8244L75.7724 13.0884C76.2729 12.8161 76.8353 12.6778 77.4051 12.6869C77.6599 12.6582 77.9178 12.6879 78.1594 12.7739C78.401 12.8598 78.6197 12.9997 78.7991 13.183C78.9785 13.3662 79.1137 13.5879 79.1945 13.8312C79.2752 14.0746 79.2995 14.3332 79.2653 14.5873V16.22C79.257 16.5825 79.2794 16.9452 79.3322 17.304H78.275ZM78.1277 15.0958C77.3248 15.0958 76.5486 15.2564 76.5486 15.9389C76.5424 16.026 76.5552 16.1134 76.5862 16.1951C76.6171 16.2768 76.6655 16.3507 76.7279 16.4118C76.7902 16.4729 76.8652 16.5197 76.9474 16.549C77.0297 16.5783 77.1174 16.5893 77.2043 16.5813C77.3979 16.586 77.5879 16.5288 77.7468 16.4181C77.9056 16.3074 78.025 16.1489 78.0876 15.9657C78.1005 15.8814 78.1005 15.7957 78.0876 15.7114V15.0958H78.1277Z" fill="#F5F5F5"/>
<path d="M80.3895 16.22C80.74 16.4241 81.1352 16.539 81.5404 16.5546C82.049 16.5546 82.2631 16.3405 82.2631 16.046C82.2631 15.7516 82.0757 15.591 81.5271 15.3903C80.6438 15.0959 80.2691 14.6141 80.2824 14.052C80.2824 13.2624 80.9382 12.6468 81.9821 12.6468C82.3975 12.6406 82.809 12.7275 83.1865 12.9011L82.959 13.7174C82.6711 13.5466 82.3435 13.4544 82.0088 13.4498C81.594 13.4498 81.3798 13.6505 81.3798 13.9315C81.3798 14.2126 81.594 14.3464 82.1694 14.5605C82.9724 14.855 83.3605 15.2698 83.3605 15.8988C83.3605 16.5278 82.7315 17.304 81.5404 17.304C81.0751 17.3052 80.6162 17.1951 80.2021 16.9828L80.3895 16.22Z" fill="#F5F5F5"/>
<path d="M85.609 11.5093V12.8476H86.693V13.7041H85.609V15.6847C85.609 16.2334 85.7562 16.5145 86.1979 16.5145C86.3445 16.5327 86.4928 16.5327 86.6395 16.5145V17.3844C86.3718 17.4714 86.0912 17.5121 85.8098 17.5048C85.6301 17.5112 85.451 17.4813 85.2831 17.4169C85.1153 17.3525 84.9621 17.255 84.8328 17.1301C84.5582 16.7712 84.4291 16.322 84.4715 15.8721V13.6505H83.8291V12.794H84.4715V11.7769L85.609 11.5093Z" fill="#F5F5F5"/>
<path d="M88.299 15.3634C88.3074 15.5288 88.349 15.6908 88.4215 15.8398C88.4939 15.9887 88.5956 16.1215 88.7206 16.2302C88.8455 16.3389 88.9911 16.4213 89.1486 16.4724C89.3061 16.5235 89.4724 16.5423 89.6373 16.5277C90.0656 16.542 90.4927 16.4738 90.8953 16.327L91.0559 17.1166C90.5508 17.305 90.0158 17.4002 89.4767 17.3976C89.1691 17.4256 88.8591 17.3864 88.5682 17.2825C88.2773 17.1787 88.0125 17.0127 87.7922 16.7962C87.5719 16.5798 87.4014 16.3179 87.2925 16.0289C87.1835 15.7398 87.1389 15.4306 87.1615 15.1225C87.1328 14.8069 87.1717 14.4888 87.2753 14.1893C87.379 13.8898 87.5453 13.6157 87.7629 13.3854C87.9806 13.1551 88.2448 12.9736 88.538 12.8532C88.8312 12.7328 89.1466 12.6761 89.4633 12.6868C89.737 12.6922 90.0065 12.7551 90.2543 12.8713C90.5021 12.9875 90.7227 13.1545 90.9019 13.3614C91.0811 13.5683 91.2148 13.8106 91.2943 14.0724C91.3739 14.3343 91.3975 14.61 91.3637 14.8816C91.3751 15.042 91.3751 15.203 91.3637 15.3634H88.299ZM90.2797 14.5738C90.3006 14.4388 90.2926 14.301 90.2562 14.1693C90.2198 14.0376 90.1558 13.9152 90.0685 13.8102C89.9812 13.7052 89.8725 13.6199 89.7497 13.56C89.6269 13.5002 89.4928 13.4671 89.3563 13.463C89.0734 13.4801 88.8078 13.6046 88.6138 13.8111C88.4197 14.0176 88.3119 14.2905 88.3124 14.5738H90.2797Z" fill="#F5F5F5"/>
<path d="M92.2734 14.2392C92.2734 13.637 92.2734 13.1953 92.2734 12.7939H93.2504V13.6504C93.3287 13.381 93.4897 13.143 93.7107 12.9701C93.9316 12.7972 94.2013 12.6981 94.4816 12.6868C94.5703 12.6728 94.6606 12.6728 94.7493 12.6868V13.744H94.4147C94.1691 13.7352 93.929 13.8179 93.741 13.9762C93.5531 14.1345 93.4306 14.357 93.3976 14.6005C93.3837 14.7161 93.3837 14.8329 93.3976 14.9485V17.2905H92.2734V14.2392Z" fill="#F5F5F5"/>
<path d="M100.089 17.1165C99.5782 17.319 99.0316 17.4146 98.4827 17.3975C98.0589 17.4334 97.6322 17.377 97.2322 17.2322C96.8322 17.0875 96.4683 16.8577 96.1656 16.5588C95.8629 16.2599 95.6286 15.899 95.4787 15.5009C95.3289 15.1027 95.2671 14.6768 95.2976 14.2525C95.274 13.8105 95.3443 13.3685 95.5039 12.9557C95.6636 12.5428 95.909 12.1685 96.2238 11.8575C96.5387 11.5464 96.916 11.3056 97.3307 11.1509C97.7455 10.9963 98.1883 10.9313 98.63 10.9603C99.1486 10.9414 99.665 11.0374 100.142 11.2414L99.8879 12.138C99.5009 11.9829 99.0871 11.9056 98.6701 11.9105C98.3698 11.8933 98.0694 11.9417 97.7897 12.0521C97.51 12.1626 97.2576 12.3326 97.0501 12.5502C96.8426 12.7679 96.6849 13.0281 96.588 13.3128C96.491 13.5975 96.4572 13.8999 96.4887 14.199C96.459 14.4947 96.4939 14.7933 96.5912 15.0742C96.6885 15.355 96.8458 15.6113 97.0521 15.8252C97.2584 16.0391 97.5088 16.2056 97.7859 16.313C98.063 16.4205 98.3601 16.4663 98.6567 16.4473C99.0824 16.453 99.5052 16.3757 99.9013 16.2198L100.089 17.1165Z" fill="#F5F5F5"/>
<path d="M103.475 17.304L103.395 16.7954C103.233 16.9917 103.028 17.1481 102.796 17.2525C102.564 17.3569 102.311 17.4066 102.056 17.3977C101.874 17.4086 101.691 17.3821 101.519 17.3198C101.348 17.2575 101.191 17.1606 101.058 17.0352C100.925 16.9099 100.819 16.7586 100.747 16.5908C100.674 16.4229 100.637 16.2421 100.638 16.0594C100.638 14.9218 101.655 14.3464 103.314 14.3598V14.2795C103.314 13.985 103.194 13.4899 102.404 13.4899C101.976 13.4948 101.557 13.6101 101.186 13.8244L100.959 13.0884C101.459 12.8161 102.022 12.6778 102.592 12.6869C102.846 12.6582 103.104 12.6879 103.346 12.7739C103.587 12.8598 103.806 12.9997 103.986 13.183C104.165 13.3662 104.3 13.5879 104.381 13.8312C104.462 14.0746 104.486 14.3332 104.452 14.5873V16.22C104.428 16.5809 104.428 16.943 104.452 17.304H103.475ZM103.314 15.0958C102.511 15.0958 101.748 15.2564 101.748 15.9389C101.74 16.0254 101.751 16.1125 101.78 16.1942C101.81 16.2759 101.857 16.3501 101.918 16.4115C101.98 16.4729 102.054 16.52 102.136 16.5493C102.217 16.5787 102.304 16.5896 102.391 16.5813C102.586 16.5848 102.777 16.5273 102.938 16.417C103.098 16.3066 103.221 16.1489 103.288 15.9657C103.301 15.8814 103.301 15.7957 103.288 15.7114V15.0958H103.314Z" fill="#F5F5F5"/>
<path d="M105.63 14.2392C105.63 13.637 105.63 13.1953 105.63 12.7939H106.62V13.6504C106.699 13.381 106.86 13.143 107.08 12.9701C107.301 12.7972 107.571 12.6981 107.851 12.6868C107.94 12.6728 108.03 12.6728 108.119 12.6868V13.744H107.785C107.54 13.7381 107.301 13.822 107.114 13.9797C106.926 14.1375 106.803 14.3583 106.767 14.6005C106.76 14.7164 106.76 14.8326 106.767 14.9485V17.2905H105.63V14.2392Z" fill="#F5F5F5"/>
<path d="M113.004 10.7331V16.0862C113.004 16.5413 113.004 17.0498 113.004 17.3576H111.987V16.6349C111.841 16.8939 111.626 17.1073 111.366 17.2515C111.106 17.3956 110.811 17.4648 110.515 17.4513C110.234 17.435 109.959 17.3615 109.708 17.2351C109.457 17.1088 109.234 16.9324 109.054 16.7168C108.873 16.5012 108.739 16.2509 108.658 15.9813C108.578 15.7118 108.554 15.4287 108.587 15.1495C108.55 14.8565 108.574 14.559 108.657 14.2757C108.74 13.9924 108.881 13.7294 109.071 13.5031C109.261 13.2769 109.495 13.0924 109.76 12.9611C110.024 12.8299 110.313 12.7548 110.608 12.7405C110.851 12.7226 111.094 12.7673 111.314 12.8705C111.535 12.9736 111.725 13.1316 111.866 13.3294V10.7197H113.004V10.7331ZM111.866 14.6677C111.873 14.5696 111.873 14.4713 111.866 14.3732C111.825 14.1405 111.703 13.9296 111.522 13.7779C111.341 13.6261 111.112 13.5431 110.876 13.5435C110.14 13.5435 109.725 14.1859 109.725 15.029C109.725 15.8721 110.14 16.461 110.863 16.461C111.095 16.4589 111.319 16.3764 111.497 16.2275C111.675 16.0787 111.796 15.8727 111.839 15.6446C111.854 15.5381 111.854 15.43 111.839 15.3234V14.6409L111.866 14.6677Z" fill="#F5F5F5"/>
<path d="M92.301 21.9614H87.3359C87.6609 22.5448 88.0276 23.1039 88.4333 23.6343H91.2437C91.6365 23.1032 91.9898 22.5441 92.301 21.9614Z" fill="#FF0000"/>
<path d="M86.3711 19.2715C86.5491 19.8467 86.7637 20.4099 87.0135 20.9577H92.7815C93.0553 20.4139 93.2879 19.8502 93.4774 19.2715H86.3711Z" fill="#FF0000"/>
<path d="M91.3776 6.38379H88.701C88.3381 6.91935 88.0031 7.47324 87.6973 8.04326L92.4214 8.12356C92.1141 7.52017 91.7654 6.93885 91.3776 6.38379Z" fill="#FF0000"/>
<path d="M86.9873 9.06006C86.7493 9.6021 86.5524 10.1613 86.3984 10.7329H93.478C93.3135 10.1629 93.1123 9.60412 92.8757 9.06006H86.9873Z" fill="#FF0000"/>
</svg>
