<svg width="20" height="19" viewBox="0 0 20 19" fill="none" xmlns="http://www.w3.org/2000/svg">
<path d="M18.3717 6.83492H16.3567C16.3156 3.53104 13.4759 0.858154 9.99071 0.858154C6.50548 0.858154 3.6658 3.53104 3.62849 6.83492H1.61347C0.900751 6.88809 0.826121 7.46946 0.863436 7.67861L2.63964 17.6257C2.70307 17.9731 3.02025 18.2283 3.38967 18.2283H16.5918C16.9649 18.2283 17.2821 17.9731 17.3418 17.6257L19.1217 7.67861C19.159 7.46946 19.0695 6.88455 18.3717 6.83492ZM9.99071 2.30449C12.6364 2.30449 14.7894 4.32865 14.8305 6.83137H5.15094C5.19199 4.32865 7.34507 2.30449 9.99071 2.30449ZM15.9499 16.782H4.03522L2.51276 8.28125H17.4687L15.9499 16.782Z" fill="#343131"/>
<path d="M6.81518 11.4468H13.1625C13.5841 11.4468 13.9237 11.1242 13.9237 10.7237C13.9237 10.3231 13.5841 10.0005 13.1625 10.0005H6.81518C6.39352 10.0005 6.05396 10.3231 6.05396 10.7237C6.05396 11.1242 6.39725 11.4468 6.81518 11.4468Z" fill="#343131"/>
<path d="M6.81518 15.0628H13.1625C13.5841 15.0628 13.9237 14.7402 13.9237 14.3396C13.9237 13.939 13.5841 13.6165 13.1625 13.6165H6.81518C6.39352 13.6165 6.05396 13.939 6.05396 14.3396C6.05396 14.7402 6.39725 15.0628 6.81518 15.0628Z" fill="#343131"/>
</svg>
