<svg width="19" height="18" viewBox="0 0 19 18" fill="none" xmlns="http://www.w3.org/2000/svg">
<path d="M17.516 5.97676H15.501C15.4599 2.67288 12.6202 0 9.135 0C5.64977 0 2.81009 2.67288 2.77277 5.97676H0.757757C0.0450384 6.02994 -0.0295918 6.61131 0.00772327 6.82046L1.78392 16.7675C1.84736 17.115 2.16454 17.3702 2.53396 17.3702H15.736C16.1092 17.3702 16.4264 17.115 16.4861 16.7675L18.266 6.82046C18.3033 6.61131 18.2138 6.02639 17.516 5.97676ZM9.135 1.44633C11.7806 1.44633 13.9337 3.47049 13.9748 5.97322H4.29523C4.33628 3.47049 6.48936 1.44633 9.135 1.44633ZM15.0942 15.9239H3.17951L1.65705 7.4231H16.6129L15.0942 15.9239Z" fill="white"/>
<path d="M5.95947 10.5889H12.3068C12.7284 10.5889 13.068 10.2663 13.068 9.86574C13.068 9.46517 12.7284 9.14258 12.3068 9.14258H5.95947C5.53781 9.14258 5.19824 9.46517 5.19824 9.86574C5.19824 10.2663 5.54154 10.5889 5.95947 10.5889Z" fill="white"/>
<path d="M5.95947 14.2046H12.3068C12.7284 14.2046 13.068 13.882 13.068 13.4815C13.068 13.0809 12.7284 12.7583 12.3068 12.7583H5.95947C5.53781 12.7583 5.19824 13.0809 5.19824 13.4815C5.19824 13.882 5.54154 14.2046 5.95947 14.2046Z" fill="white"/>
</svg>
