<svg width="250" height="121" viewBox="0 0 250 121" fill="none" xmlns="http://www.w3.org/2000/svg">
<path d="M277.254 225.061C228.088 165.819 179.212 106.868 130.336 47.6259C124.517 40.6563 116.08 49.6587 118.99 56.338C128.59 78.6988 138.191 101.35 147.791 123.711C117.244 83.6356 86.9875 43.2699 56.731 3.19459C52.0762 -2.90383 40.73 0.290577 43.3483 8.7122C54.4036 43.8507 66.9135 78.6988 76.8051 114.418C65.1679 103.964 52.949 94.0901 43.3483 81.8932C38.9844 76.0852 26.4745 78.9892 29.9656 87.4109C35.2023 99.8981 40.1481 112.385 45.3848 124.873C33.7477 118.774 21.8197 112.676 12.51 103.383C7.56418 98.4461 -1.74551 103.383 0.290984 110.353C13.6737 153.041 34.3296 192.536 50.6215 234.063C54.1127 242.775 68.0772 239 64.5861 230.288C51.2034 196.021 34.9114 162.915 22.1106 128.648C33.1659 135.327 45.0939 140.554 56.4401 147.524C61.3859 150.718 69.5319 145.491 67.2044 139.393C64.0042 131.552 60.804 123.711 57.6038 115.87C67.2044 124.292 76.5141 132.423 84.3692 142.587C89.315 148.976 99.4974 145.491 97.7519 137.069C91.0605 106.287 81.169 76.0852 71.2774 46.1739C104.734 90.6053 138.191 135.037 171.648 179.178C177.466 186.728 187.94 180.339 184.158 171.918C173.393 146.653 162.629 121.388 151.864 96.1229C189.976 142.297 228.379 188.761 266.781 235.515C272.891 242.775 283.073 232.321 277.254 225.061Z" fill="#F6B78F" fill-opacity="0.49"/>
</svg>
