<svg width="175" height="210" viewBox="0 0 175 210" fill="none" xmlns="http://www.w3.org/2000/svg">
<path d="M113.62 34.595C121.804 35.4277 128.564 41.6862 134.484 46.757C142.182 53.3162 149.602 60.0537 156.972 67.0193C171.866 81.1273 186.153 95.8201 199.657 111.25C202.226 106.935 204.795 102.62 207.439 98.1776C184.362 90.8868 161.387 83.5703 138.311 76.2795C132.808 74.5509 127.355 72.5941 121.776 70.9923C116.807 69.6671 111.284 69.5597 107.474 73.6513C99.9793 81.91 108.279 93.8119 112.03 101.803C117.287 112.753 122.442 123.729 127.698 134.679C128.694 136.904 132.894 142.843 131.865 145.582C132.543 144.009 130.546 145.055 129.026 145.009C126.442 145.018 123.883 144.698 121.399 144.251C112.02 142.535 103.116 138.868 94.0129 136.114C84.9095 133.359 73.2209 130.183 63.9104 133.407C52.7278 137.321 49.491 153.443 46.5626 163.56C43.1083 175.427 41.023 187.593 39.9514 199.933C39.0492 209.967 54.7555 210.293 55.6577 200.258C56.5358 190.554 58.1738 180.872 60.7502 171.49C62.0255 166.749 63.5291 162.057 65.1595 157.441C66.1129 154.829 67.1072 149.405 69.5595 148.028C72.3911 146.448 79.009 148.325 82.0006 149.074C86.2343 150.047 90.4438 151.35 94.552 152.678C102.312 155.235 110.022 158.02 118.058 159.537C125.738 160.928 135.825 162.464 142.392 156.919C149.665 150.763 148.164 141.447 144.793 133.682C140.785 124.678 136.27 115.803 132.059 106.85C129.737 101.944 127.44 97.1394 125.118 92.2333C123.97 89.8309 122.796 87.3272 121.648 84.9248C121.265 84.2675 120.959 83.4833 120.678 82.8004C120.315 80.5219 119.836 81.1821 119.342 84.7555C118.026 85.0894 116.609 85.449 115.293 85.7828C118.686 85.5684 122.417 87.5312 125.587 88.5587C129.112 89.7116 132.738 90.8388 136.263 91.9918C143.744 94.2961 151.149 96.7274 158.629 99.0317C173.515 103.767 188.502 108.477 203.388 113.213C211.223 115.643 216.053 105.797 211.169 100.14C196.343 83.3217 180.607 67.1648 164.241 51.9221C156.49 44.7298 148.51 37.4877 140.255 30.8545C132.431 24.6504 124.334 19.9164 114.274 18.9129C103.885 17.8853 103.661 33.5658 113.62 34.595Z" fill="#F6B78F" fill-opacity="0.49"/>
</svg>
