<svg width="54" height="22" viewBox="0 0 54 22" fill="none" xmlns="http://www.w3.org/2000/svg">
<path d="M25.2021 11.0108V17.2766H23.2373V1.8095H28.4483C29.7052 1.78483 30.9256 2.26586 31.8165 3.15393C33.5982 4.83139 33.708 7.65593 32.0361 9.46906C31.9629 9.54307 31.8897 9.61707 31.8165 9.69108C30.9012 10.5668 29.7785 11.0108 28.4483 11.0108H25.2021ZM25.2021 3.70897V9.11137H28.4971C29.2293 9.13604 29.9371 8.84001 30.4375 8.30964C31.4626 7.23656 31.4382 5.50977 30.3764 4.47369C29.8761 3.98032 29.2049 3.70897 28.4971 3.70897H25.2021Z" fill="#3C4043"/>
<path d="M37.7605 6.34863C39.2127 6.34863 40.3598 6.74333 41.2019 7.52038C42.0439 8.29744 42.4589 9.38285 42.4589 10.752V17.2768H40.5795V15.809H40.4941C39.6764 17.0177 38.6025 17.6221 37.2479 17.6221C36.1008 17.6221 35.1245 17.2768 34.3556 16.586C33.599 15.9447 33.1719 14.9949 33.1963 13.9959C33.1963 12.8981 33.6112 12.0347 34.4289 11.381C35.2465 10.7273 36.3448 10.4066 37.7117 10.4066C38.8832 10.4066 39.8351 10.6286 40.5917 11.048V10.5916C40.5917 9.91323 40.2988 9.27185 39.7863 8.82781C39.2615 8.35911 38.5903 8.10009 37.8947 8.10009C36.7964 8.10009 35.9299 8.56879 35.2953 9.5062L33.5624 8.40845C34.4899 7.03935 35.8933 6.34863 37.7605 6.34863ZM35.2221 14.0329C35.2221 14.5509 35.4662 15.0319 35.8689 15.328C36.3082 15.6733 36.8452 15.8583 37.3944 15.846C38.2242 15.846 39.0174 15.513 39.6032 14.9209C40.25 14.3042 40.5795 13.5765 40.5795 12.7378C39.9693 12.2444 39.1151 11.9977 38.0167 12.01C37.2235 12.01 36.5523 12.2074 36.0153 12.5898C35.4906 12.9721 35.2221 13.4532 35.2221 14.0329Z" fill="#3C4043"/>
<path fill-rule="evenodd" clip-rule="evenodd" d="M53.2466 6.69385L46.6811 21.9266H44.6552L47.096 16.5982L42.7881 6.69385H44.9237L48.0357 14.2917H48.0723L51.111 6.69385H53.2466Z" fill="#3C4043"/>
<path fill-rule="evenodd" clip-rule="evenodd" d="M17.257 9.65432C17.257 9.04994 17.2081 8.44556 17.1105 7.85352H8.82422V11.2701H13.5714C13.3762 12.3678 12.7416 13.3546 11.8141 13.9713V16.1915H14.6454C16.3051 14.6497 17.257 12.3678 17.257 9.65432Z" fill="#4285F4"/>
<path fill-rule="evenodd" clip-rule="evenodd" d="M8.8245 18.3372C11.192 18.3372 13.1934 17.5478 14.6456 16.1911L11.8144 13.9709C11.0212 14.5136 10.0083 14.822 8.8245 14.822C6.53021 14.822 4.58982 13.2555 3.89422 11.1587H0.977539V13.4529C2.46639 16.4501 5.5051 18.3372 8.8245 18.3372Z" fill="#34A853"/>
<path fill-rule="evenodd" clip-rule="evenodd" d="M3.89456 11.1587C3.52845 10.061 3.52845 8.86457 3.89456 7.75449V5.47266H0.977888C-0.279088 7.97651 -0.279088 10.9367 0.977888 13.4406L3.89456 11.1587Z" fill="#FBBC04"/>
<path fill-rule="evenodd" clip-rule="evenodd" d="M8.8245 4.09148C10.0815 4.06681 11.2896 4.54784 12.1927 5.42357L14.7067 2.88272C13.108 1.37795 11.009 0.551552 8.8245 0.57622C5.5051 0.57622 2.46639 2.47569 0.977539 5.47291L3.89422 7.76708C4.58982 5.65792 6.53021 4.09148 8.8245 4.09148Z" fill="#EA4335"/>
</svg>
