<svg width="299" height="483" viewBox="0 0 299 483" fill="none" xmlns="http://www.w3.org/2000/svg">
<path d="M85.0858 429.985C115.146 417.917 144.432 404.509 173.188 389.191C187.444 381.817 201.253 373.915 215.183 365.728C227.773 358.315 244.793 350.775 254.085 339.261C261.187 330.514 261.009 318.322 253.033 310.203C243.876 300.908 228.108 301.578 216.117 300.496C180.672 296.801 145.227 293.107 109.782 289.412C112.718 296.724 115.816 304.442 118.752 311.754C133.444 295.479 150.618 281.273 169.666 270.56C182.946 263.106 207.895 258.278 207.423 238.892C206.993 220.197 185.855 216.891 171.709 214.552C146.464 209.828 120.812 205.268 95.5674 200.545C96.7979 209.484 97.7438 218.303 98.9744 227.243C186.555 191.611 271.894 150.983 354.585 105.522C370.018 96.9672 359.866 71.0907 344.148 79.5235C261.457 124.985 175.996 165.897 88.5371 201.244C75.1318 206.626 78.4884 225.561 91.9441 227.942C109.465 231.05 127.27 234.279 144.67 237.671C153.369 239.367 165.12 243.376 173.98 243.121C175.809 243.565 178.045 243.847 179.874 244.292C180.236 241.081 180.313 237.748 180.675 234.537C179.658 233.766 170.276 239.183 169.058 239.672C141.438 253.119 117.604 271.885 97.1894 294.468C90.168 302.239 96.119 315.888 106.159 316.81C133.515 319.742 161.277 322.512 188.633 325.444C200.503 326.811 212.209 327.772 224.078 329.139C227.29 329.5 230.216 329.74 233.427 330.102C231.631 323.277 228.378 322.224 224.238 327.188C219.729 328.291 214.086 333.622 210.065 335.944C166.855 362.253 121.322 384.542 74.4855 403.581C57.8719 410.958 68.4307 436.671 85.0858 429.985Z" fill="#F6B78F" fill-opacity="0.4"/>
</svg>
