<svg width="312" height="330" viewBox="0 0 312 330" fill="none" xmlns="http://www.w3.org/2000/svg">
<path d="M176.796 57.8738C188.563 64.6876 194.836 78.7393 200.396 90.8156C207.516 106.073 214.379 121.285 220.64 136.921C233.629 168.54 245.458 200.749 255.613 233.459C262.545 228.587 269.477 223.716 276.409 218.844C246.211 191.89 215.969 165.192 186.028 138.283C178.924 132.019 171.91 125.241 164.294 118.888C157.569 113.483 149.248 109.65 140.699 113.182C123.556 120.501 128.126 144.304 128.44 159.166C128.884 179.34 129.284 199.77 129.985 219.988C130.083 223.972 132.217 235.979 128.723 239.335C130.666 237.294 127.151 237.738 124.719 236.521C120.793 234.777 117.212 232.566 113.677 230.098C100.639 221.476 89.4667 209.741 77.557 199.201C65.3908 188.615 49.9009 175.863 33.4663 174.581C13.6511 172.972 -2.1516 195.333 -13.4742 208.693C-26.7844 224.35 -38.5224 241.603 -48.509 259.427C-56.6302 274.139 -32.9048 285.156 -24.8283 270.701C-16.7967 256.502 -7.82827 242.996 2.59017 230.271C7.64869 224.015 13.2204 217.848 19.0039 211.983C22.1971 208.839 27.5244 201.043 32.0658 200.778C37.4218 200.391 46.187 207.739 50.4026 210.854C56.2353 215.31 61.7665 219.978 66.9963 224.857C77.0324 234.013 86.9789 243.682 98.0983 251.176C108.961 258.625 123.237 267.728 136.886 263.765C152.163 259.557 156.179 244.128 156.244 230.125C156.5 213.512 155.429 196.93 155.127 180.484C154.854 171.446 154.581 162.408 154.564 153.415C154.556 148.918 154.291 144.377 154.283 139.88C154.25 138.552 154.218 137.224 154.185 135.897C155.069 132.349 153.908 132.94 150.658 137.925C148.348 137.522 146.039 137.119 143.73 136.715C148.939 138.683 153.265 144.197 157.647 147.871C162.197 152.103 167.048 156.123 171.598 160.355C181.467 168.952 191.034 177.762 200.903 186.36C220.34 203.768 240.033 221.22 259.47 238.627C269.763 247.828 283.985 236.032 280.267 224.013C269.065 188.212 256.189 152.911 241.55 118.625C234.61 102.341 227.412 86.0129 219.311 70.3199C211.588 55.4862 202.692 42.8275 188.025 34.4497C173.403 25.8153 162.386 49.5407 176.796 57.8738Z" fill="#6FC5DD"/>
</svg>
