<svg width="45" height="45" viewBox="0 0 45 45" fill="none" xmlns="http://www.w3.org/2000/svg">
<rect width="45" height="45" rx="22.5" fill="#F7F7F7"/>
<path d="M32.9466 18.1741C32.8974 17.0583 32.7169 16.2911 32.4584 15.6264C32.1917 14.9209 31.7814 14.2892 31.2438 13.764C30.7186 13.2307 30.0826 12.8163 29.3851 12.5538C28.7164 12.2953 27.9531 12.1149 26.8371 12.0657C25.7127 12.0123 25.3558 12 22.5041 12C19.6524 12 19.2954 12.0123 18.1753 12.0615C17.0592 12.1107 16.292 12.2913 15.6273 12.5497C14.9214 12.8163 14.2896 13.2265 13.7644 13.764C13.2309 14.2892 12.8166 14.925 12.5539 15.6224C12.2954 16.2911 12.1149 17.0541 12.0657 18.1699C12.0123 19.2941 12 19.6509 12 22.5021C12 25.3532 12.0123 25.7101 12.0615 26.8301C12.1108 27.9459 12.2914 28.713 12.5499 29.3777C12.8166 30.0833 13.2309 30.715 13.7644 31.2401C14.2896 31.7735 14.9256 32.1879 15.6231 32.4503C16.292 32.7088 17.0551 32.8893 18.1712 32.9385C19.2913 32.9878 19.6484 33 22.5001 33C25.3518 33 25.7087 32.9878 26.8289 32.9385C27.9449 32.8893 28.7122 32.7088 29.3769 32.4503C30.7885 31.9047 31.9045 30.7889 32.4502 29.3777C32.7086 28.709 32.8892 27.9459 32.9385 26.8301C32.9877 25.7101 33 25.3532 33 22.5021C33 19.6509 32.9958 19.2941 32.9466 18.1741ZM31.0552 26.748C31.01 27.7736 30.8377 28.3275 30.6941 28.6967C30.3411 29.6115 29.6149 30.3376 28.6999 30.6905C28.3306 30.8341 27.7726 31.0063 26.7509 31.0514C25.643 31.1007 25.3107 31.1129 22.5083 31.1129C19.7058 31.1129 19.3693 31.1007 18.2655 31.0514C17.2397 31.0063 16.6858 30.8341 16.3165 30.6905C15.8611 30.5222 15.4467 30.2556 15.1102 29.9069C14.7615 29.5663 14.4948 29.1561 14.3265 28.7008C14.1828 28.3316 14.0105 27.7736 13.9655 26.7522C13.9161 25.6446 13.904 25.3122 13.904 22.5103C13.904 19.7083 13.9161 19.3719 13.9655 18.2685C14.0105 17.2429 14.1828 16.689 14.3265 16.3198C14.4948 15.8644 14.7615 15.4502 15.1144 15.1136C15.4548 14.7649 15.8651 14.4983 16.3207 14.3302C16.6899 14.1866 17.248 14.0143 18.2697 13.9691C19.3775 13.9199 19.7099 13.9076 22.5123 13.9076C25.3189 13.9076 25.6512 13.9199 26.755 13.9691C27.7808 14.0143 28.3347 14.1866 28.704 14.3302C29.1594 14.4983 29.5739 14.7649 29.9103 15.1136C30.2591 15.4542 30.5258 15.8644 30.6941 16.3198C30.8377 16.689 31.01 17.2469 31.0552 18.2685C31.1044 19.3761 31.1167 19.7083 31.1167 22.5103C31.1167 25.3122 31.1044 25.6404 31.0552 26.748Z" fill="#343131"/>
<path d="M22.5 17C19.4636 17 17 19.4634 17 22.5C17 25.5366 19.4636 28 22.5 28C25.5366 28 28 25.5366 28 22.5C28 19.4634 25.5366 17 22.5 17ZM22.5 26.0677C20.5301 26.0677 18.9323 24.47 18.9323 22.5C18.9323 20.53 20.5301 18.9323 22.5 18.9323C24.47 18.9323 26.0677 20.53 26.0677 22.5C26.0677 24.47 24.47 26.0677 22.5 26.0677Z" fill="#343131"/>
</svg>
