<svg width="161" height="41" viewBox="0 0 161 41" fill="none" xmlns="http://www.w3.org/2000/svg">
<path d="M21.5639 8.60473C21.7867 2.96757 24.7383 -0.164182 30.0847 0.00664061C35.3754 0.177464 38.16 3.48004 37.9929 9.1172L37.436 27.3953C37.2689 33.0324 34.2616 36.1642 28.9709 35.9934C23.6802 35.8225 20.8399 32.52 21.007 26.8828L21.5639 8.60473ZM26.4647 27.3953C26.4091 29.9007 27.4672 30.8687 29.1379 30.9256C30.8644 30.9825 31.9782 30.0715 32.0339 27.5661L32.5908 8.54779C32.6465 6.04239 31.5884 5.07439 29.9176 5.01745C28.1912 4.96051 27.0774 5.87156 27.0217 8.37697L26.4647 27.3953Z" fill="#343131"/>
<path d="M127.34 26.4118L130.453 1.22893L138.094 1L139 36.3704L133.849 36.4849L133.17 11.1304L130 36.5994L124.849 36.7711L120.094 11.8744L120.717 36.8855L115.962 37L115 1.62957L122.642 1.40064L127.34 26.4118Z" fill="#343131"/>
<path d="M66.5988 6.04463C71.3723 5.60062 74.0638 8.48672 74.5208 13.9259L74.6224 14.9804L69.9504 15.4245L69.8488 13.9814C69.6457 11.5393 68.6808 10.7068 67.1066 10.8733C65.5323 11.0398 64.7198 12.0388 64.9229 14.4809C65.4815 21.5297 75.181 21.9182 75.9428 31.6865C76.3998 37.1812 74.1146 40.5113 69.2902 40.9554C64.4659 41.3994 61.7236 38.5133 61.2666 33.0741L61.1142 30.965L65.7862 30.521L65.9894 32.9631C66.1925 35.4052 67.2589 36.1822 68.7824 36.0157C70.3567 35.8492 71.2707 34.9056 71.0676 32.4636C70.509 25.4148 60.8095 25.0263 60.0478 15.258C59.6415 9.81877 61.8252 6.48865 66.5988 6.04463Z" fill="#343131"/>
<path d="M9.34966 20.5093L17.1558 19.955L17.9594 30.7642C18.3612 36.252 15.7783 39.5779 10.3254 39.9659C4.87259 40.3539 1.83048 37.416 1.3713 31.9837L0.0511379 14.1901C-0.408048 8.70235 2.23227 5.37645 7.68511 5.04386C13.1379 4.6004 16.1801 7.53829 16.6392 13.026L16.8688 16.3519L11.5882 16.74L11.3012 13.0815C11.129 10.6425 9.92364 9.81099 8.14429 9.92185C6.36495 10.0327 5.33178 11.0305 5.50397 13.4695L6.93893 31.9283C7.11113 34.3673 8.31649 35.1433 10.0958 35.0325C11.8752 34.9216 12.9084 33.9238 12.7362 31.4848L12.277 25.1656L9.75145 25.3873L9.34966 20.5093Z" fill="#343131"/>
<path d="M41.676 29.768L42.6816 17.28L44.6369 3L50 3.728L48.0447 18.008L45.6425 30.328L41.676 29.768ZM45.9218 32.792L45.1955 38L40 37.272L40.7263 32.064L45.9218 32.792Z" fill="#343131"/>
<path d="M76 1L93 1.11309V6.08885L87.22 6.03231L87.1067 36H81.61L81.7233 6.03231H76V1Z" fill="#343131"/>
<path d="M111 39L105.507 38.6025L105.059 32.1861L98.3894 31.6751L96.9882 37.9779L92 37.5804L100.071 3L108.029 3.62461L111 39ZM99.3982 26.9621L104.611 27.3596L103.322 9.47319L99.3982 26.9621Z" fill="#343131"/>
<path d="M160.923 15.792L160.492 20.144C159.954 25.4752 157.155 28.1408 151.934 27.6512L149.459 27.4336L148.221 40L143 39.456L146.283 6L153.926 6.7616C159.2 7.2512 161.461 10.4064 160.923 15.792ZM151.073 11.2768L149.943 22.592L152.419 22.864C154.087 23.0272 155.056 22.3744 155.271 19.9808L155.756 14.976C155.971 12.5824 155.164 11.712 153.495 11.5488L151.073 11.2768Z" fill="#343131"/>
</svg>
