<svg width="46" height="46" viewBox="0 0 46 46" fill="none" xmlns="http://www.w3.org/2000/svg">
<circle cx="23" cy="23" r="23" fill="#E653C5"/>
<path d="M14.4672 26.8527C13.942 25.9537 13.3737 25.0661 12.7623 24.1898C12.151 23.3135 11.5004 22.4863 10.8106 21.7082V26.8527H9V19H10.4932C10.7518 19.2493 11.0379 19.5552 11.3515 19.9178C11.665 20.2805 11.9824 20.6695 12.3038 21.085C12.633 21.4929 12.9583 21.9197 13.2797 22.3654C13.601 22.8036 13.9028 23.2266 14.185 23.6346V19H16.0074V26.8527H14.4672Z" fill="white"/>
<path d="M17.8869 26.8527V19H23.3893V20.4844H19.721V22.0255H22.9778V23.4759H19.721V25.3683H23.6597V26.8527H17.8869Z" fill="white"/>
<path d="M30.4842 19.8385C30.5783 20.1483 30.6802 20.4995 30.7899 20.8924C30.9075 21.2776 31.029 21.678 31.1544 22.0935C31.2876 22.509 31.4209 22.9245 31.5541 23.3399C31.6874 23.7554 31.8167 24.1407 31.9421 24.4958C32.044 24.1105 32.1459 23.6912 32.2478 23.238C32.3576 22.7847 32.4594 22.3163 32.5535 21.8329C32.6476 21.3494 32.7377 20.8697 32.8239 20.3938C32.918 19.9103 33.0042 19.4457 33.0826 19H34.9873C34.7129 20.3144 34.3955 21.6478 34.0349 23C33.6822 24.3522 33.2981 25.6364 32.8827 26.8527H31.2014C30.9271 26.1275 30.6606 25.3683 30.4019 24.5751C30.1433 23.7743 29.8885 22.9736 29.6377 22.1728C29.3869 22.9736 29.136 23.7743 28.8852 24.5751C28.6344 25.3683 28.3718 26.1275 28.0975 26.8527H26.4162C26.0008 25.6364 25.6128 24.3522 25.2522 23C24.8995 21.6478 24.586 20.3144 24.3116 19H26.2986C26.377 19.4457 26.4632 19.9103 26.5573 20.3938C26.6513 20.8697 26.7493 21.3494 26.8512 21.8329C26.9531 22.3163 27.055 22.7847 27.1569 23.238C27.2666 23.6912 27.3764 24.1105 27.4861 24.4958C27.6272 24.1256 27.7644 23.7328 27.8976 23.3173C28.0309 22.9018 28.1602 22.4863 28.2856 22.0708C28.411 21.6553 28.5247 21.255 28.6266 20.8697C28.7363 20.4844 28.8343 20.1407 28.9205 19.8385H30.4842Z" fill="white"/>
<path d="M37.8472 21.0283C37.8472 21.6402 37.8236 22.2106 37.7766 22.7394C37.7296 23.2682 37.6669 23.8045 37.5885 24.3484H36.2482C36.1698 23.8045 36.1031 23.2682 36.0483 22.7394C36.0013 22.2106 35.9777 21.6402 35.9777 21.0283V19H37.8472V21.0283ZM38 25.9575C38 26.2899 37.8863 26.5467 37.659 26.728C37.4396 26.9093 37.1887 27 36.9066 27C36.6244 27 36.3696 26.9093 36.1423 26.728C35.9229 26.5467 35.8131 26.2899 35.8131 25.9575C35.8131 25.6251 35.9229 25.3683 36.1423 25.187C36.3696 25.0057 36.6244 24.915 36.9066 24.915C37.1887 24.915 37.4396 25.0057 37.659 25.187C37.8863 25.3683 38 25.6251 38 25.9575Z" fill="white"/>
</svg>
