<svg width="13" height="10" viewBox="0 0 13 10" fill="none" xmlns="http://www.w3.org/2000/svg">
<path d="M6.87217 1.77714L9.93612 4.40573L0.709472 4.40573C0.316479 4.40573 -2.10719e-06 4.6978 -2.12506e-06 5.06047C-2.14293e-06 5.42315 0.316478 5.71522 0.709472 5.71522L9.93612 5.71522L6.87217 8.34381C6.58351 8.59095 6.5696 9.00498 6.83391 9.27137C7.1017 9.53776 7.55034 9.55059 7.839 9.30667L12.228 5.5419C12.6314 5.17281 12.4089 4.72027 12.228 4.58226L7.839 0.81749C7.55034 0.570357 7.1017 0.586404 6.83391 0.852794C6.5696 1.11598 6.58351 1.53 6.87217 1.77714Z" fill="#343131"/>
</svg>
