<svg width="73" height="59" viewBox="0 0 73 59" fill="none" xmlns="http://www.w3.org/2000/svg">
<circle cx="29.5" cy="29.5" r="29.5" fill="#6FC5DD" fill-opacity="0.22"/>
<g clip-path="url(#clip0)">
<path d="M67.5551 19.947L30.2509 6.85778C28.5689 6.26761 26.7199 7.15608 26.1298 8.83804L17.1019 34.5674C16.5117 36.2494 17.4002 38.0984 19.0821 38.6885L56.3863 51.7778C58.0683 52.368 59.9173 51.4795 60.5074 49.7975L69.5353 24.0682C70.1255 22.3862 69.237 20.5372 67.5551 19.947ZM59.0606 49.2899C58.7504 50.1739 57.7787 50.6414 56.894 50.331L19.5898 37.2417C18.705 36.9312 18.2385 35.9591 18.5487 35.0751L27.5766 9.34571C27.8868 8.46169 28.8585 7.99419 29.7432 8.30463L67.0474 21.3939C67.9322 21.7043 68.3987 22.6765 68.0885 23.5605L59.0606 49.2899Z" fill="#6FC5DD"/>
<path d="M31.4139 30.8281L24.9031 28.5436C24.5031 28.4033 24.066 28.6139 23.9259 29.0132C23.7857 29.4126 23.9954 29.8501 24.3954 29.9905L30.9063 32.275C31.3063 32.4154 31.7434 32.2047 31.8835 31.8054C32.0237 31.4061 31.814 30.9685 31.4139 30.8281Z" fill="#6FC5DD"/>
<path d="M40.8182 34.128L34.3074 31.8434C33.9074 31.7031 33.4703 31.9137 33.3301 32.313C33.19 32.7124 33.3997 33.1499 33.7997 33.2903L40.3106 35.5748C40.7106 35.7152 41.1477 35.5045 41.2878 35.1052C41.428 34.7059 41.2183 34.2683 40.8182 34.128Z" fill="#6FC5DD"/>
<path d="M24.357 32.4147L23.6336 32.1608C23.2335 32.0204 22.7964 32.2311 22.6563 32.6304C22.5162 33.0297 22.7259 33.4673 23.1259 33.6077L23.8493 33.8615C24.2494 34.0019 24.6865 33.7912 24.8266 33.3919C24.9667 32.9926 24.7571 32.555 24.357 32.4147Z" fill="#6FC5DD"/>
<path d="M28.6976 33.9375L27.2508 33.4299C26.8507 33.2895 26.4136 33.5001 26.2735 33.8995C26.1334 34.2988 26.343 34.7363 26.7431 34.8767L28.19 35.3844C28.59 35.5248 29.0271 35.3141 29.1672 34.9148C29.3073 34.5155 29.0977 34.0779 28.6976 33.9375Z" fill="#6FC5DD"/>
<path d="M32.315 35.2066L31.5916 34.9528C31.1915 34.8124 30.7544 35.0231 30.6143 35.4224C30.4742 35.8217 30.6839 36.2593 31.0839 36.3997L31.8073 36.6535C32.2074 36.7939 32.6445 36.5832 32.7846 36.1839C32.9247 35.7846 32.7151 35.347 32.315 35.2066Z" fill="#6FC5DD"/>
<path d="M36.6556 36.7298L35.2088 36.2221C34.8087 36.0817 34.3716 36.2924 34.2315 36.6917C34.0914 37.091 34.3011 37.5286 34.7011 37.669L36.148 38.1766C36.548 38.317 36.9851 38.1064 37.1252 37.707C37.2653 37.3077 37.0557 36.8701 36.6556 36.7298Z" fill="#6FC5DD"/>
<path d="M38.9616 37.7746C38.7825 37.8661 38.6376 38.0265 38.5716 38.2146C38.5056 38.4027 38.5185 38.6185 38.6012 38.8019C38.6922 38.9801 38.8531 39.1259 39.0412 39.1919C39.2293 39.2579 39.4453 39.2443 39.6284 39.1623C39.8069 39.0706 39.9525 38.9104 40.0185 38.7223C40.0845 38.5342 40.0709 38.3182 39.9889 38.1351C39.8079 37.7709 39.3153 37.5981 38.9616 37.7746Z" fill="#6FC5DD"/>
<path d="M55.5791 36.0571C54.656 35.7332 53.7044 35.6829 52.8068 35.8538C52.2127 35.1595 51.4382 34.6042 50.5152 34.2803C47.7235 33.3007 44.6541 34.775 43.6743 37.5674C42.6945 40.3598 44.1698 43.4287 46.9615 44.4082C47.8846 44.7321 48.8362 44.7825 49.7338 44.6116C50.3279 45.3059 51.1024 45.8612 52.0254 46.1851C54.8171 47.1646 57.8865 45.6904 58.8663 42.8979C59.8461 40.1055 58.3708 37.0367 55.5791 36.0571ZM52.3554 40.6134C52.0016 41.6219 51.2651 42.3872 50.3661 42.8095C49.9282 41.9181 49.8313 40.8604 50.1852 39.8519C50.539 38.8435 51.2755 38.0782 52.1745 37.6558C52.6124 38.5472 52.7093 39.605 52.3554 40.6134ZM45.1212 38.0751C45.821 36.0806 48.013 35.0273 50.0075 35.7271C50.464 35.8873 50.8643 36.1334 51.2127 36.4303C50.0976 37.0449 49.1922 38.0508 48.7383 39.3442C48.2845 40.6377 48.3629 41.9888 48.8495 43.1654C48.3919 43.1795 47.9256 43.1215 47.4691 42.9614C45.4746 42.2616 44.4214 40.0696 45.1212 38.0751ZM52.5331 44.7382C52.0766 44.5781 51.6763 44.332 51.3279 44.035C52.443 43.4204 53.3484 42.4146 53.8023 41.1211C54.2561 39.8276 54.1777 38.4765 53.6911 37.2999C54.1487 37.2858 54.615 37.3438 55.0715 37.504C57.066 38.2038 58.1192 40.3958 57.4194 42.3903C56.7196 44.3848 54.5276 45.438 52.5331 44.7382Z" fill="#6FC5DD"/>
<path d="M27.5874 23.7983L31.928 25.3213L33.0059 25.6995L37.3464 27.2225C38.2456 27.538 39.2346 27.0628 39.5501 26.1636L41.5808 20.3762L41.959 19.2983C42.2746 18.399 41.7993 17.4101 40.9001 17.0945L35.4816 15.1933L31.1411 13.6703C30.2419 13.3548 29.2529 13.83 28.9374 14.7292L26.5285 21.5945C26.213 22.4938 26.6882 23.4827 27.5874 23.7983ZM31.8196 20.4083L28.9259 19.393L29.4336 17.9461L32.3273 18.9615L31.8196 20.4083ZM27.9753 22.1022L28.4183 20.8398L31.312 21.8552L30.869 23.1176C30.8469 23.1805 30.8375 23.2446 30.8231 23.3086L28.0951 22.3514C27.9931 22.3156 27.9395 22.2042 27.9753 22.1022ZM39.0539 22.9467L36.1602 21.9313L36.6031 20.669C36.6389 20.567 36.7503 20.5134 36.8523 20.5492L39.3771 21.4351C39.44 21.4572 39.5041 21.4667 39.5682 21.481L39.0539 22.9467ZM37.8541 25.7757L35.126 24.8184C35.1549 24.7595 35.1875 24.7035 35.2096 24.6406L35.6525 23.3782L38.5462 24.3935L38.1033 25.6559C38.0675 25.7579 37.9561 25.8114 37.8541 25.7757ZM40.3924 18.5414C40.4944 18.5772 40.548 18.6886 40.5122 18.7906L40.134 19.8685C40.0982 19.9705 39.9868 20.024 39.8848 19.9882L37.36 19.1024C36.4608 18.7868 35.4718 19.2621 35.1563 20.1613L33.7627 24.1329C33.7269 24.2349 33.6155 24.2884 33.5135 24.2526L32.4356 23.8744C32.3336 23.8386 32.2801 23.7272 32.3159 23.6252L34.7248 16.7599C34.7606 16.6579 34.872 16.6044 34.974 16.6402L40.3924 18.5414ZM30.6334 15.1172L33.3615 16.0744C33.3327 16.1333 33.3 16.1893 33.2779 16.2522L32.835 17.5146L29.9413 16.4993L30.3842 15.2369C30.42 15.1349 30.5314 15.0814 30.6334 15.1172Z" fill="#6FC5DD"/>
</g>
<defs>
<clipPath id="clip0">
<rect width="46" height="46" fill="white" transform="translate(29.2305) rotate(19.3349)"/>
</clipPath>
</defs>
</svg>
