<svg width="598" height="392" viewBox="0 0 598 392" fill="none" xmlns="http://www.w3.org/2000/svg">
<path fill-rule="evenodd" clip-rule="evenodd" d="M617.153 391.64C618.146 391.549 619.288 391.151 620.121 390.603C622.245 389.349 624.129 387.411 625.386 384.41C626.564 381.181 626.053 377.518 623.795 374.72C619.687 369.402 618.55 362.801 617.335 355.746L617.247 355.235C616.065 347.451 614.496 339.29 609.274 332.404C600.78 321.283 586.962 317.656 574.467 315.616C541.272 310.182 506.939 311.999 473.933 313.746C473.173 313.786 472.413 313.827 471.654 313.867L465.16 314.342C464.494 314.38 463.82 314.419 463.141 314.458C447.695 315.353 428.988 316.437 410.962 316.107C393.136 315.673 376.224 314.919 362.717 306.316C335.397 288.962 334.476 251.118 336.711 220.112C336.737 216.517 337.07 213.071 337.403 209.625C337.462 208.826 337.521 208.027 337.581 207.226C338.556 194.058 339.551 180.63 338.711 167.16L338.78 166.624C338.171 156.079 337.199 141.561 324.581 136.235C314.039 131.719 301.562 136.333 291.448 140.377L283.001 143.327L278.583 144.614L277.594 144.913C261.396 149.815 243.297 155.292 226.889 155.75C219.094 156.167 213.709 153.95 209.821 149.416C197.916 135.131 205.359 99.2331 209.95 77.9066C210.361 75.6879 210.786 73.6169 211.18 71.6944C211.807 68.6336 212.357 65.949 212.653 63.6431C212.929 61.4978 213.204 59.3524 213.708 57.1274C216.458 40.7982 220.114 18.2614 209.475 6.86452C204.503 1.42881 196.824 -0.756262 186.666 0.229574C119.614 6.99628 50.7248 45.9103 2.15866 104.878C-0.0228635 107.433 -0.51566 110.423 0.520806 113.391C1.71673 116.815 4.88763 119.294 8.64196 119.776C12.168 120.338 15.8208 119.062 18.1509 116.199C59.5781 66.1276 117.143 32.193 180.614 21.0415C181.111 20.9962 181.587 20.8938 182.064 20.7914C182.54 20.689 183.017 20.5866 183.513 20.5413C184.178 20.4487 184.887 20.3214 185.606 20.1924C187.53 19.847 189.525 19.4891 190.921 19.7476C197.357 20.5737 197.538 22.5596 197.259 29.8291L197.121 30.9017C196.921 35.4004 196.208 40.0778 195.523 44.5804C195.415 45.2863 195.308 45.9878 195.204 46.6837C195.067 47.7563 194.909 48.7718 194.751 49.7873C194.594 50.803 194.436 51.8186 194.298 52.8914C192.922 63.618 191.088 74.5041 189.175 85.1619C188.675 88.3419 188.109 91.5899 187.539 94.8658C186.748 99.4072 185.947 104.002 185.301 108.543C181.036 136.672 186.618 168.79 216.228 175.098C228.118 177.606 240.925 174.67 252.054 172.065C253.472 171.569 254.773 171.317 256.221 171.036C256.405 171 256.59 170.964 256.779 170.927C267.68 168.401 278.341 165.19 288.466 161.91C288.882 161.781 289.3 161.652 289.72 161.522C295.829 159.629 302.303 157.623 308.647 155.887C311.923 154.999 314.217 154.966 315.609 156.017C318.7 158.268 319.037 165.834 319.193 171.415C319.347 177.854 319.089 184.095 318.869 189.419C318.82 190.606 318.773 191.748 318.733 192.836C318.555 196.231 318.269 199.574 317.987 202.88C317.792 205.163 317.598 207.428 317.443 209.679C316.385 221.319 315.407 233.187 315.729 245.113C316.183 266.215 321.115 295.742 341.427 315.032C363.822 336.501 396.013 336.13 422.342 335.827C422.722 335.822 423.101 335.818 423.479 335.813C438.772 335.596 454.133 334.842 469.187 333.939C491.27 332.631 514.119 331.311 536.692 332.137C536.915 332.153 537.146 332.169 537.383 332.186C539.104 332.308 541.181 332.456 543.197 332.427C543.691 332.442 544.194 332.457 544.704 332.472C560.192 332.927 582.223 333.575 591.84 343.36C596.133 347.682 597.094 353.918 598.092 360.398L598.127 360.631C598.372 361.698 598.54 362.728 598.707 363.758C598.875 364.788 599.043 365.818 599.287 366.886C601.096 375.731 603.864 382.193 608.768 388.165C611.025 390.962 614.026 392.22 617.153 391.64Z" fill="#F6B78F"/>
</svg>
