<svg width="492" height="715" viewBox="0 0 492 715" fill="none" xmlns="http://www.w3.org/2000/svg">
<path fill-rule="evenodd" clip-rule="evenodd" d="M-245.036 696.843C-245.206 698.394 -244.949 700.27 -244.369 701.718C-243.106 705.366 -240.718 708.86 -236.505 711.723C-231.918 714.534 -226.139 714.889 -221.145 712.296C-211.708 707.648 -201.229 707.957 -190.027 708.287L-189.214 708.311C-176.905 708.919 -163.897 709.051 -151.709 703.181C-132.005 693.609 -122.142 673.538 -115.126 655.004C-96.4648 605.769 -88.5727 552.531 -80.9859 501.353L-80.462 497.819L-79.1704 487.709C-79.0221 486.674 -78.8724 485.629 -78.7214 484.574C-75.2893 460.599 -71.1326 431.563 -65.0201 404.012C-58.8085 376.8 -52.3916 351.088 -34.9924 333.043C0.129805 296.528 58.4742 306.887 105.346 319.961C110.853 321.118 116.037 322.701 121.22 324.285C122.427 324.623 123.635 324.963 124.844 325.303C144.742 330.896 165.033 336.599 185.96 339.5L186.761 339.772C203.129 342.118 225.702 345.144 237.799 327.442C248.005 312.674 244.809 292.098 241.75 275.323L239.852 261.447L239.253 254.269L239.101 252.659C236.62 226.283 233.847 196.813 238.247 171.499C240.032 159.411 245.11 151.839 253.274 147.284C278.893 133.464 331.65 156.049 362.94 169.726C366.216 171.047 369.261 172.342 372.088 173.545C376.588 175.46 380.536 177.139 383.981 178.31L383.983 178.311C387.188 179.4 390.393 180.49 393.649 181.955C417.845 191.253 451.282 203.873 472.076 191.095C481.962 185.158 487.703 174.057 489.35 158.167C499.826 53.1947 461.555 -64.5953 386.197 -157.445C382.956 -161.587 378.523 -163.273 373.647 -162.606C368.021 -161.836 363.232 -157.743 361.325 -152.133C359.367 -146.898 360.188 -140.897 363.855 -136.432C427.785 -57.3018 461.94 41.566 459.304 142.409C459.219 143.185 459.228 143.948 459.237 144.711C459.246 145.474 459.254 146.237 459.17 147.012C459.105 148.061 459.08 149.188 459.054 150.332C458.985 153.391 458.914 156.562 458.083 158.623C454.814 168.24 451.711 167.9 440.645 165.211L439.042 164.666C432.203 162.959 425.249 160.411 418.554 157.959C417.505 157.574 416.462 157.192 415.427 156.816C413.824 156.271 412.315 155.713 410.806 155.156C409.297 154.598 407.788 154.04 406.185 153.495C390.157 148.046 374.027 141.847 358.272 135.597C353.548 133.841 348.741 131.963 343.893 130.069C337.172 127.442 330.372 124.785 323.606 122.381C281.78 107.089 230.77 105.66 211.881 149.125C204.336 166.586 204.855 187.146 205.391 205.03C205.71 207.36 205.693 209.435 205.674 211.743C205.671 212.036 205.669 212.332 205.667 212.633C206.152 230.142 207.761 247.497 209.643 264.05C209.712 264.729 209.78 265.41 209.849 266.095C210.853 276.055 211.916 286.611 212.606 296.885C212.949 302.187 212.286 305.716 210.241 307.524C205.827 311.566 194.114 309.73 185.504 308.233C175.577 306.467 166.084 304.13 157.984 302.136C156.178 301.692 154.441 301.264 152.784 300.864C147.631 299.535 142.59 298.057 137.606 296.595C134.165 295.586 130.751 294.585 127.345 293.646C109.817 288.402 91.9138 283.21 73.5171 279.995C41.0031 274.126 -5.82993 272.509 -41.741 297.67C-81.6436 325.349 -91.0879 374.85 -98.8123 415.336L-99.146 417.085C-103.569 440.613 -107.191 464.415 -110.489 487.79C-115.35 522.076 -120.434 557.539 -128.722 591.913C-128.815 592.25 -128.912 592.599 -129.012 592.959C-129.735 595.56 -130.607 598.701 -131.19 601.802C-131.367 602.556 -131.546 603.323 -131.727 604.1C-137.244 627.719 -145.09 661.317 -163.093 673.027C-171.059 678.269 -180.926 677.803 -191.176 677.318L-191.545 677.3C-193.259 677.344 -194.891 677.28 -196.524 677.217C-198.156 677.154 -199.788 677.091 -201.502 677.134C-215.635 677.157 -226.409 679.395 -237.096 685.059C-242.09 687.652 -244.953 691.865 -245.036 696.843Z" fill="#F6B78F"/>
</svg>
