<svg width="417" height="433" viewBox="0 0 417 433" fill="none" xmlns="http://www.w3.org/2000/svg">
<path d="M324.449 181.517C326.976 195.508 319.812 209.724 314.219 221.978C307.004 237.896 299.36 253.438 291.313 269.006C274.999 300.48 257.424 331.227 238.25 361.026C246.644 363.23 255.038 365.435 263.678 367.704C264.761 325.897 265.935 284.245 267.018 242.438C267.26 232.473 267.905 222.482 267.899 212.453C267.726 203.567 265.266 194.344 256.65 189.97C239.354 181.469 223.553 200.939 212.074 210.987C196.4 224.948 180.636 238.753 164.962 252.714C161.741 255.431 153.886 265.244 148.846 264.843C151.782 265.219 149.091 262.401 148.44 259.855C147.191 255.568 146.5 251.165 146.056 246.826C144.424 230.431 146.26 213.892 146.486 197.457C146.711 181.023 146.402 160.094 136.599 146.172C124.755 129.471 96.4348 131.798 78.2336 131.768C56.8755 131.701 35.6744 134.05 14.6692 138.166C-2.42602 141.462 4.53785 167.701 21.633 164.406C38.1697 161.227 55.0317 159.322 71.8427 159.118C80.3261 158.971 88.8357 159.227 97.2805 159.729C102.075 160.064 111.558 159.124 115.015 162.539C118.993 166.487 119.038 178.374 119.222 183.7C119.629 191.196 119.477 198.809 119.234 206.267C118.696 220.376 117.754 234.511 119.074 248.58C120.432 262 122.701 279.485 135.047 287.742C148.745 296.881 163.5 289.936 174.785 280.628C187.823 269.669 200.405 257.932 213.261 246.661C220.3 240.461 227.182 234.351 234.22 228.151C237.662 225.096 241.259 221.95 244.7 218.895C245.609 217.947 246.764 217.063 247.764 216.27C251.375 214.579 250.05 214.099 243.879 214.985C242.696 212.959 241.422 210.777 240.239 208.751C242.216 214.285 240.739 221.418 240.547 227.173C240.316 233.578 240.177 240.139 239.946 246.544C239.693 260.068 239.193 273.528 238.94 287.052C238.188 314.036 237.526 341.175 236.773 368.159C236.481 382.333 255.139 385.65 262.201 374.837C283.049 342.179 302.363 308.326 319.858 273.863C328.099 257.555 336.314 240.843 343.386 223.964C349.952 208.007 353.945 192.298 350.805 175.112C347.548 157.367 321.4 164.487 324.449 181.517Z" fill="#6FC5DD"/>
</svg>
