<svg width="544" height="392" viewBox="0 0 544 392" fill="none" xmlns="http://www.w3.org/2000/svg">
<path d="M24.485 139.294C56.111 177.665 89.3382 214.282 125.113 249.235C142.527 266.665 160.505 283.196 178.956 299.772C195.653 314.746 214.594 336.143 235.757 344.388C251.855 350.713 269.611 344.787 277.782 329.344C287.127 311.628 278.818 288.869 274.829 270.823C263.763 217.248 252.696 163.673 241.629 110.098C232.295 117.791 222.443 125.911 213.109 133.604C243.749 147.536 272.514 166.06 297.04 188.95C314.118 204.916 332.775 239.174 360.918 229.475C388.07 220.158 383.084 187.695 379.932 165.91C375.111 126.78 369.862 87.1318 365.041 48.0018C352.533 53.9567 340.071 59.4388 327.564 65.3937C420.396 176.97 519.496 282.945 624.437 382.8C644.125 401.405 677.266 374.525 657.624 355.448C552.683 255.593 453.109 149.572 360.75 38.0413C346.647 20.9296 320.503 34.6402 323.273 55.4332C326.869 82.5113 330.419 110.062 333.542 137.095C335.104 150.611 334.7 169.666 339.19 182.51C339.389 185.393 340.016 188.795 340.216 191.678C345.082 190.715 349.994 189.279 354.86 188.316C355.516 186.47 343.23 175.262 341.948 173.706C309.439 139.545 270.907 113.397 228.38 94.0234C213.747 87.3623 196.544 102.412 199.86 117.529C208.283 158.916 217.133 200.821 225.556 242.207C229.072 260.208 233.107 277.781 236.623 295.782C237.586 300.648 238.595 305.042 239.558 309.908C248.709 304.107 248.737 298.859 239.552 295.109C235.842 289.024 225.42 283.246 220.155 278.442C161.581 227.449 107.811 171.191 58.1898 111.514C39.6758 90.6358 6.96245 118.034 24.485 139.294Z" fill="#F6B78F" fill-opacity="0.4"/>
</svg>
