<svg width="7" height="6" viewBox="0 0 7 6" fill="none" xmlns="http://www.w3.org/2000/svg">
<path d="M3.99 0.409999C3.99 0.802 3.95267 1.18 3.878 1.544C3.81267 1.89867 3.74267 2.26733 3.668 2.65C4.004 2.46333 4.33533 2.28133 4.662 2.104C4.98867 1.92667 5.34333 1.77267 5.726 1.642L5.81 1.614L6.202 2.79L6.09 2.832C5.71667 2.972 5.34333 3.06533 4.97 3.112C4.59667 3.14933 4.214 3.182 3.822 3.21C4.13 3.47133 4.41933 3.728 4.69 3.98C4.96067 4.22267 5.21267 4.50733 5.446 4.834L5.516 4.932L4.494 5.646L4.438 5.562C4.214 5.226 4.018 4.89467 3.85 4.568C3.69133 4.232 3.528 3.88667 3.36 3.532C3.192 3.88667 3.024 4.232 2.856 4.568C2.69733 4.89467 2.506 5.226 2.282 5.562L2.226 5.646L1.204 4.932L1.274 4.834C1.50733 4.50733 1.75933 4.22267 2.03 3.98C2.30067 3.728 2.59 3.47133 2.898 3.21C2.506 3.182 2.12333 3.14933 1.75 3.112C1.37667 3.06533 1.00333 2.972 0.63 2.832L0.518 2.79L0.91 1.614L0.994 1.642C1.37667 1.77267 1.73133 1.92667 2.058 2.104C2.38467 2.28133 2.716 2.46333 3.052 2.65C2.97733 2.26733 2.90267 1.89867 2.828 1.544C2.76267 1.18 2.73 0.802 2.73 0.409999V0.298H3.99V0.409999Z" fill="#E653C5"/>
</svg>
