<svg width="46" height="46" viewBox="0 0 46 46" fill="none" xmlns="http://www.w3.org/2000/svg">
<circle cx="23" cy="23" r="23" fill="#F6B78F"/>
<path d="M21.3491 18.8166C21.3491 20.3724 20.9717 21.5641 20.217 22.3917C19.4623 23.2193 18.4481 23.6331 17.1745 23.6331C15.9009 23.6331 14.8868 23.2193 14.1321 22.3917C13.3774 21.5641 13 20.3724 13 18.8166C13 17.2607 13.3774 16.069 14.1321 15.2414C14.8868 14.4138 15.9009 14 17.1745 14C18.4481 14 19.4623 14.4138 20.217 15.2414C20.9717 16.069 21.3491 17.2607 21.3491 18.8166ZM18.684 18.8166C18.684 17.9724 18.5425 17.36 18.2594 16.9793C17.9764 16.5986 17.6148 16.4083 17.1745 16.4083C16.7186 16.4083 16.3491 16.5986 16.066 16.9793C15.7987 17.36 15.6651 17.9724 15.6651 18.8166C15.6651 19.6607 15.7987 20.2814 16.066 20.6786C16.3491 21.0593 16.7186 21.2497 17.1745 21.2497C17.6148 21.2497 17.9764 21.0593 18.2594 20.6786C18.5425 20.2814 18.684 19.6607 18.684 18.8166ZM25.9481 14.3972H29.2264L20.0047 31.6028H16.7264L25.9481 14.3972ZM33 27.1834C33 28.7393 32.6226 29.931 31.8679 30.7586C31.1132 31.5862 30.0991 32 28.8255 32C27.5519 32 26.5377 31.5862 25.783 30.7586C25.0283 29.931 24.6509 28.7393 24.6509 27.1834C24.6509 25.6276 25.0283 24.4359 25.783 23.6083C26.5377 22.7807 27.5519 22.3669 28.8255 22.3669C30.0991 22.3669 31.1132 22.7807 31.8679 23.6083C32.6226 24.4359 33 25.6276 33 27.1834ZM30.3349 27.1834C30.3349 26.3393 30.1934 25.7269 29.9104 25.3462C29.6274 24.9655 29.2657 24.7752 28.8255 24.7752C28.3695 24.7752 28 24.9655 27.717 25.3462C27.4497 25.7269 27.316 26.3393 27.316 27.1834C27.316 28.0276 27.4497 28.6483 27.717 29.0455C28 29.4262 28.3695 29.6165 28.8255 29.6165C29.2657 29.6165 29.6274 29.4262 29.9104 29.0455C30.1934 28.6483 30.3349 28.0276 30.3349 27.1834Z" fill="white"/>
</svg>
