<svg width="17" height="17" viewBox="0 0 17 17" fill="none" xmlns="http://www.w3.org/2000/svg">
<path d="M0.0392781 11.645C0.0970515 11.7529 0.209577 11.8203 0.33203 11.8203H1.99219V16.668C1.99219 16.8513 2.14084 17 2.32422 17H14.6758C14.8592 17 15.0078 16.8513 15.0078 16.668V11.8203H16.668C16.7904 11.8203 16.9029 11.7529 16.9607 11.645C17.0185 11.537 17.0122 11.406 16.9442 11.3041L14.952 8.31582C14.8905 8.22345 14.7868 8.16797 14.6758 8.16797H13.4141C13.2307 8.16797 13.082 8.31662 13.082 8.5C13.082 8.68338 13.2307 8.83203 13.4141 8.83203H14.4981L16.0476 11.1562H10.6699L9.1204 8.83203H10.4258C10.6092 8.83203 10.7578 8.68338 10.7578 8.5C10.7578 8.31662 10.6092 8.16797 10.4258 8.16797C10.0466 8.16797 2.69118 8.16797 2.32422 8.16797C2.21319 8.16797 2.10953 8.22345 2.04797 8.31582L0.0557801 11.3041C-0.0121535 11.406 -0.0184953 11.537 0.0392781 11.645ZM2.65625 11.8203H6.50781C6.61884 11.8203 6.7225 11.7648 6.78406 11.6725L8.16797 9.5966V16.3359H2.65625V11.8203ZM10.2159 11.6725C10.2775 11.7648 10.3812 11.8203 10.4922 11.8203H14.3438V16.3359H8.83203V9.5966L10.2159 11.6725ZM2.50192 8.83203H7.8796L6.33011 11.1562H0.952431L2.50192 8.83203Z" fill="#343131" fill-opacity="0.69"/>
<path d="M6.50781 0.831074C6.23661 0.432504 5.76841 0 5.01367 0C3.94968 0 3.1875 0.857471 3.1875 1.89158C3.1875 3.03971 4.11669 3.79379 5.52324 4.93518C5.76971 5.13516 6.02454 5.34198 6.29528 5.56757C6.35684 5.61887 6.43231 5.6445 6.50781 5.6445C6.58332 5.6445 6.65879 5.61887 6.72035 5.56757C6.99108 5.34198 7.24592 5.13516 7.49238 4.93518C8.89894 3.79379 9.82812 3.03971 9.82812 1.89158C9.82812 0.856641 9.06515 0 8.00195 0C7.24721 0 6.77905 0.432504 6.50781 0.831074ZM9.16406 1.89158C9.16406 2.72339 8.33259 3.39817 7.07396 4.41954C6.89104 4.56795 6.70354 4.72012 6.50781 4.88136C6.31208 4.72016 6.12458 4.56799 5.94167 4.41954C4.68307 3.39817 3.85156 2.72342 3.85156 1.89158C3.85156 1.19179 4.35117 0.664062 5.01367 0.664062C5.88051 0.664062 6.17691 1.62921 6.18876 1.66905C6.2297 1.81126 6.35983 1.90918 6.50781 1.90918C6.6558 1.90918 6.78592 1.81123 6.82686 1.66905C6.82978 1.65899 7.12642 0.664062 8.00195 0.664062C8.66445 0.664062 9.16406 1.19179 9.16406 1.89158Z" fill="#343131" fill-opacity="0.69"/>
<path d="M12.4844 6.64062C12.5624 6.64062 12.6405 6.61323 12.7031 6.55845C12.8834 6.4006 13.0534 6.25573 13.2178 6.11565C14.1413 5.32857 14.8086 4.75993 14.8086 3.91398C14.8086 3.11562 14.2252 2.49023 13.4805 2.49023C13.0065 2.49023 12.6888 2.73126 12.4844 2.98941C12.28 2.73126 11.9623 2.49023 11.4883 2.49023C10.7435 2.49023 10.1602 3.11562 10.1602 3.91398C10.1602 4.75993 10.8274 5.32857 11.751 6.11565C11.9154 6.25573 12.0853 6.4006 12.2657 6.55845C12.3283 6.61323 12.4063 6.64062 12.4844 6.64062ZM10.8242 3.91398C10.8242 3.5457 11.0569 3.1543 11.4883 3.1543C11.9777 3.1543 12.1564 3.75454 12.1646 3.78316C12.2046 3.9266 12.3351 4.02671 12.4841 4.02671C12.6337 4.02671 12.7645 3.9276 12.8041 3.78336C12.8115 3.7577 12.9898 3.1543 13.4805 3.1543C13.9118 3.1543 14.1445 3.5457 14.1445 3.91398C14.1445 4.45334 13.6336 4.8888 12.7871 5.6102C12.6886 5.6941 12.5881 5.7797 12.4844 5.86902C12.3806 5.7797 12.2802 5.6941 12.1817 5.6102C11.3352 4.8888 10.8242 4.45334 10.8242 3.91398Z" fill="#343131" fill-opacity="0.69"/>
<path d="M11.9199 8.83203C12.1033 8.83203 12.252 8.68338 12.252 8.5C12.252 8.31662 12.1033 8.16797 11.9199 8.16797C11.7365 8.16797 11.5879 8.31662 11.5879 8.5C11.5879 8.68338 11.7365 8.83203 11.9199 8.83203Z" fill="#343131" fill-opacity="0.69"/>
</svg>
