<svg width="433" height="374" viewBox="0 0 433 374" fill="none" xmlns="http://www.w3.org/2000/svg">
<path fill-rule="evenodd" clip-rule="evenodd" d="M588.803 373.649C589.75 373.562 590.839 373.182 591.634 372.66C593.66 371.464 595.458 369.614 596.658 366.751C597.781 363.671 597.294 360.175 595.14 357.506C591.22 352.432 590.136 346.136 588.976 339.405L588.892 338.916C587.765 331.489 586.268 323.703 581.285 317.134C573.181 306.524 559.998 303.063 548.077 301.117C516.407 295.933 483.651 297.667 452.162 299.333C451.436 299.372 450.711 299.41 449.987 299.448L443.792 299.901C443.156 299.938 442.513 299.975 441.865 300.013C427.128 300.866 409.281 301.9 392.083 301.586C375.076 301.171 358.941 300.452 346.055 292.245C319.989 275.688 319.111 239.582 321.243 210.001C321.268 206.571 321.586 203.283 321.904 199.995C321.96 199.234 322.016 198.471 322.073 197.708C323.004 185.145 323.953 172.333 323.151 159.481L323.217 158.97C322.636 148.909 321.709 135.058 309.67 129.976C299.613 125.669 287.709 130.07 278.06 133.929L270 136.743L265.786 137.97L264.842 138.256C249.387 142.933 232.12 148.158 216.467 148.596C209.03 148.993 203.892 146.877 200.182 142.552C188.824 128.923 195.925 94.6745 200.306 74.3278C200.698 72.2109 201.103 70.235 201.479 68.4007C202.077 65.4806 202.602 62.9194 202.885 60.7195L202.885 60.719C203.147 58.6724 203.41 56.6257 203.891 54.5031C206.515 38.924 210.003 17.4225 199.852 6.54918C195.108 1.36317 187.782 -0.721521 178.091 0.219028C114.119 6.67489 48.3946 43.8012 2.0595 100.06C-0.0218132 102.498 -0.491972 105.35 0.496881 108.182C1.63787 111.449 4.6631 113.814 8.24496 114.274C11.609 114.81 15.094 113.593 17.3171 110.861C56.8412 63.0899 111.761 30.7141 172.317 20.0749C172.791 20.0317 173.246 19.934 173.7 19.8363C174.155 19.7386 174.61 19.6409 175.083 19.5977C175.717 19.5093 176.394 19.3879 177.08 19.2648C178.916 18.9353 180.819 18.5938 182.15 18.8404C188.29 19.6286 188.463 21.5233 188.197 28.4588L188.066 29.4822C187.875 33.7743 187.195 38.2369 186.541 42.5327C186.438 43.2061 186.336 43.8753 186.237 44.5391C186.106 45.5626 185.955 46.5316 185.805 47.5006C185.655 48.4695 185.504 49.4384 185.373 50.4617C184.059 60.6955 182.31 71.0816 180.485 81.2497C180.008 84.2836 179.468 87.3824 178.924 90.5078C178.169 94.8406 177.405 99.2244 176.789 103.557C172.72 130.393 178.045 161.036 206.295 167.055C217.639 169.447 229.857 166.646 240.475 164.16C241.828 163.688 243.069 163.447 244.451 163.179C244.626 163.145 244.803 163.11 244.983 163.075C255.383 160.665 265.555 157.601 275.214 154.472C275.612 154.349 276.011 154.226 276.411 154.102C282.239 152.296 288.416 150.382 294.469 148.726C297.594 147.879 299.783 147.848 301.11 148.85C304.059 150.997 304.381 158.216 304.53 163.541C304.677 169.684 304.431 175.638 304.221 180.717C304.174 181.85 304.129 182.939 304.091 183.977C303.921 187.217 303.649 190.407 303.379 193.56C303.193 195.738 303.009 197.899 302.86 200.047C301.851 211.152 300.918 222.475 301.226 233.854C301.658 253.986 306.364 282.157 325.743 300.56C347.109 321.043 377.821 320.689 402.94 320.399L404.025 320.387C418.615 320.179 433.271 319.46 447.633 318.599C468.703 317.35 490.501 316.092 512.037 316.88C512.25 316.894 512.47 316.91 512.696 316.926C514.338 317.043 516.32 317.183 518.243 317.156C518.715 317.17 519.195 317.184 519.681 317.199C534.458 317.633 555.477 318.251 564.652 327.586C568.748 331.71 569.665 337.66 570.617 343.842L570.651 344.064C570.884 345.082 571.044 346.065 571.204 347.048C571.364 348.031 571.524 349.013 571.757 350.032C573.483 358.471 576.124 364.636 580.802 370.333C582.956 373.002 585.819 374.202 588.803 373.649Z" fill="#6FC5DD" fill-opacity="0.22"/>
</svg>
