<svg width="46" height="47" viewBox="0 0 46 47" fill="none" xmlns="http://www.w3.org/2000/svg">
<path d="M37.1445 46.3235H8.37572C3.78728 46.3235 0 42.5065 0 37.8V8.52353C0 3.85412 3.78728 0 8.37572 0H37.1445C41.7694 0 45.5202 3.85412 45.5202 8.52353V37.8C45.5202 42.4694 41.733 46.3235 37.1445 46.3235Z" fill="url(#paint0_linear)"/>
<path d="M35.4221 10.0084L7.89145 20.5702C6.83538 20.9778 6.90821 22.4972 8.00069 22.7937L17.6146 25.5361C17.7602 25.5731 17.8695 25.6472 17.9787 25.7214L29.3406 35.0231C30.4331 35.9496 32.0718 35.3567 32.3631 33.9484L36.6967 11.0461C36.8059 10.3419 36.0776 9.749 35.4221 10.0084Z" fill="#F5F9FD"/>
<path d="M19.5082 33.6148L22.9677 29.8348L18.8891 26.4995L18.0151 33.9854C18.525 34.1707 19.1076 34.0966 19.5082 33.6148Z" fill="#A9C9DD"/>
<path d="M30.5423 14.8629L14.6648 24.7206L17.1775 33.0959C17.3232 33.5406 17.6509 33.8741 18.0151 34.0223L18.8891 26.5364L30.7972 15.2706C31.0157 15.0482 30.7607 14.7147 30.5423 14.8629Z" fill="#C8DAEA"/>
<defs>
<linearGradient id="paint0_linear" x1="22.748" y1="-0.0120071" x2="22.748" y2="46.3115" gradientUnits="userSpaceOnUse">
<stop stop-color="#39B0E3"/>
<stop offset="1" stop-color="#1D93D2"/>
</linearGradient>
</defs>
</svg>
