<svg width="18" height="19" viewBox="0 0 18 19" fill="none" xmlns="http://www.w3.org/2000/svg">
<path d="M9.25488 9.1533C11.5414 9.1533 13.4025 7.29221 13.4025 5.00573C13.4025 2.71925 11.5414 0.858154 9.25488 0.858154C6.96839 0.858154 5.1073 2.71925 5.1073 5.00573C5.1073 7.29221 6.96485 9.1533 9.25488 9.1533ZM9.25488 2.30094C10.7437 2.30094 11.9561 3.51331 11.9561 5.00218C11.9561 6.49106 10.7437 7.70343 9.25488 7.70343C7.766 7.70343 6.55363 6.49106 6.55363 5.00218C6.55363 3.51331 7.766 2.30094 9.25488 2.30094Z" fill="#E653C5"/>
<path d="M13.2145 9.35178C12.9274 9.1958 12.5764 9.25252 12.3495 9.48649L9.24064 12.7053L6.13173 9.48649C5.90486 9.25252 5.55036 9.19935 5.26677 9.35533C2.40246 10.9151 0.552002 14.1126 0.555547 17.5016C0.555547 17.9022 0.878136 18.2248 1.27871 18.2248H17.2026C17.8194 18.1893 17.9257 17.693 17.9257 17.5016C17.9257 14.102 16.0753 10.9045 13.2145 9.35178ZM2.03379 16.7784C2.25003 14.375 3.54393 12.17 5.48655 10.9045L8.71599 14.2473C8.98895 14.5309 9.48524 14.5309 9.7582 14.2473L12.9912 10.9045C14.9303 12.1629 16.2242 14.3714 16.444 16.7784H2.03379Z" fill="#E653C5"/>
</svg>
