<svg width="13" height="17" viewBox="0 0 13 17" fill="none" xmlns="http://www.w3.org/2000/svg">
<path d="M10.9348 7.3913H9.08695V0.73913C9.08695 0.3315 8.75545 0 8.34782 0H4.65179C4.24416 0 3.91303 0.3315 3.91303 0.73913V7.3913H2.06521C1.45395 7.3913 0.956512 7.88874 0.956512 8.5V15.8913C0.956512 16.5026 1.45395 17 2.06521 17H10.9348C11.546 17 12.0435 16.5026 12.0435 15.8913V8.5C12.0435 7.88874 11.546 7.3913 10.9348 7.3913ZM8.34782 0.738761V7.3913H4.65216L4.65179 0.73913L8.34782 0.738761ZM3.91303 8.13043H4.2826H8.71738H9.08695V10.3419C7.90212 10.3142 7.25945 10.1568 6.58943 9.98898C5.90573 9.81787 5.19284 9.64343 3.91303 9.61424V8.13043ZM3.91303 10.3537C5.09786 10.3815 5.74053 10.5389 6.41056 10.7067C7.09425 10.8778 7.80714 11.0522 9.08695 11.0814V14.0435H3.91303V10.3537ZM11.3043 15.8913C11.3043 16.0949 11.1388 16.2609 10.9348 16.2609H2.06521C1.86121 16.2609 1.69564 16.0949 1.69564 15.8913V8.5C1.69564 8.29637 1.86121 8.13043 2.06521 8.13043H3.1739V14.413C3.1739 14.617 3.3391 14.7826 3.54347 14.7826H9.45651C9.66088 14.7826 9.82608 14.617 9.82608 14.413V8.13043H10.9348C11.1388 8.13043 11.3043 8.29637 11.3043 8.5V15.8913Z" fill="#343131" fill-opacity="0.69"/>
</svg>
