<svg width="45" height="45" viewBox="0 0 45 45" fill="none" xmlns="http://www.w3.org/2000/svg">
<rect width="45" height="45" rx="22.5" fill="#F7F7F7"/>
<path d="M32.3705 27.2999C32.3177 27.2116 31.9913 26.5022 30.4202 25.044C28.7756 23.5172 28.9965 23.7651 30.9775 21.1251C32.184 19.5172 32.6663 18.5353 32.5153 18.1156C32.3717 17.7155 31.4844 17.821 31.4844 17.821L28.5338 17.8382C28.5338 17.8382 28.3153 17.8087 28.1521 17.9057C27.9937 18.0014 27.8919 18.2224 27.8919 18.2224C27.8919 18.2224 27.4242 19.4669 26.8007 20.5249C25.4862 22.7575 24.9597 22.8753 24.7449 22.7366C24.2454 22.4138 24.3706 21.4381 24.3706 20.7458C24.3706 18.582 24.6983 17.6799 23.7311 17.4467C23.4095 17.3693 23.1739 17.3178 22.3528 17.3092C21.2997 17.2982 20.4074 17.3129 19.903 17.5596C19.5667 17.724 19.3077 18.091 19.466 18.1119C19.6612 18.1377 20.103 18.2309 20.3375 18.5501C20.6406 18.9612 20.6296 19.8867 20.6296 19.8867C20.6296 19.8867 20.8038 22.4334 20.2233 22.7501C19.8244 22.9673 19.2782 22.5243 18.1061 20.4979C17.5059 19.4608 17.0518 18.3132 17.0518 18.3132C17.0518 18.3132 16.9647 18.0996 16.8088 17.9855C16.6198 17.8468 16.3547 17.8026 16.3547 17.8026L13.5489 17.8198C13.5489 17.8198 13.1279 17.8321 12.9733 18.0149C12.8358 18.1782 12.9622 18.5145 12.9622 18.5145C12.9622 18.5145 15.1592 23.6534 17.6458 26.2444C19.9275 28.6194 22.5172 28.4635 22.5172 28.4635H23.6906C23.6906 28.4635 24.0453 28.4242 24.2257 28.2291C24.3927 28.0499 24.3865 27.7136 24.3865 27.7136C24.3865 27.7136 24.3632 26.1389 25.0947 25.9069C25.8152 25.6786 26.7406 27.4288 27.7213 28.1026C28.4626 28.612 29.0259 28.5003 29.0259 28.5003L31.6488 28.4635C31.6488 28.4635 33.021 28.3788 32.3705 27.2999Z" fill="#6FC5DD"/>
</svg>
