<svg width="24" height="22" viewBox="0 0 24 22" fill="none" xmlns="http://www.w3.org/2000/svg">
<path d="M12.0191 20.5806C12.0136 20.5826 12.0076 20.5846 12.0011 20.5866C11.9823 20.5923 11.9636 20.5962 11.9468 20.5983L11.933 20.5789L11.8805 20.5247L2.63705 10.9759C2.63648 10.9753 2.63592 10.9747 2.63535 10.9741C0.454506 8.69519 0.454884 5.03723 2.63648 2.75878C3.72658 1.62504 5.20058 1 6.76631 1C8.32526 1 9.79603 1.61949 10.8784 2.74034L11.2187 3.13434L11.9283 3.95593L12.689 3.18135L13.0957 2.76717L13.0958 2.76721L13.1032 2.75948C14.1934 1.62529 15.6676 1 17.2337 1C18.8009 1 20.2789 1.62604 21.3629 2.75809L21.363 2.75819C23.5448 5.03626 23.5457 8.6939 21.3656 10.9731L12.0281 20.5714L12.0191 20.5806Z" fill="white" stroke="#E653C5" stroke-width="2"/>
</svg>
