<svg width="19" height="20" viewBox="0 0 19 20" fill="none" xmlns="http://www.w3.org/2000/svg">
<path d="M8.73339 18.6891L1.7469 10.6622C-0.182071 8.42223 -0.182071 4.83457 1.7469 2.5946C2.71323 1.47646 4.02389 0.858154 5.41231 0.858154C6.80072 0.858154 8.11508 1.47646 9.07772 2.5946L9.34799 2.94262L9.6553 2.5946C10.6216 1.47646 11.9323 0.858154 13.3207 0.858154C14.7091 0.858154 16.0235 1.47646 16.9861 2.5946C18.9151 4.83457 18.9151 8.42223 16.9861 10.6622L9.92927 18.7298C9.79599 18.9519 9.08882 19.2444 8.73339 18.6891ZM5.41231 2.36134C4.4867 2.36134 3.56109 2.78712 2.90206 3.55723C1.43589 5.21592 1.43589 7.95942 2.90206 9.65514L9.34799 17.0674L15.7939 9.65514C17.2601 7.99645 17.2601 5.25294 15.7939 3.55723C15.0979 2.78342 14.213 2.36134 13.2837 2.36134C12.3544 2.36134 11.4325 2.78712 10.7734 3.55723L9.88484 4.56059C9.75526 4.71609 9.19619 5.06782 8.68896 4.48284L7.87813 3.55723C7.2265 2.78712 6.34162 2.36134 5.41231 2.36134Z" fill="#E653C5"/>
</svg>
