<svg width="19" height="20" viewBox="0 0 19 20" fill="none" xmlns="http://www.w3.org/2000/svg">
<path d="M8.73351 18.6891L1.74702 10.6622C-0.181949 8.42223 -0.181949 4.83457 1.74702 2.5946C2.71335 1.47646 4.02402 0.858154 5.41243 0.858154C6.80084 0.858154 8.1152 1.47646 9.07784 2.5946L9.34812 2.94262L9.65542 2.5946C10.6218 1.47646 11.9324 0.858154 13.3208 0.858154C14.7092 0.858154 16.0236 1.47646 16.9862 2.5946C18.9152 4.83457 18.9152 8.42223 16.9862 10.6622L9.9294 18.7298C9.79611 18.9519 9.08895 19.2444 8.73351 18.6891ZM5.41243 2.36134C4.48682 2.36134 3.56121 2.78712 2.90218 3.55723C1.43601 5.21592 1.43601 7.95942 2.90218 9.65514L9.34812 17.0674L15.7941 9.65514C17.2602 7.99645 17.2602 5.25294 15.7941 3.55723C15.098 2.78342 14.2131 2.36134 13.2838 2.36134C12.3545 2.36134 11.4326 2.78712 10.7736 3.55723L9.88497 4.56059C9.75538 4.71609 9.19632 5.06782 8.68908 4.48284L7.87825 3.55723C7.22662 2.78712 6.34174 2.36134 5.41243 2.36134Z" fill="#343131"/>
</svg>
