<svg width="258" height="215" viewBox="0 0 258 215" fill="none" xmlns="http://www.w3.org/2000/svg">
<path d="M233.506 154.041C222.395 135.127 210.465 116.866 197.31 99.1529C190.935 90.3491 184.252 81.8982 177.366 73.3946C171.133 65.7106 164.369 55.0728 155.722 50.01C149.149 46.1358 141.002 47.4835 136.369 53.643C131.067 60.7113 133.104 71.2034 133.588 79.3424C134.685 103.451 135.783 127.56 136.88 151.668C141.481 148.966 146.338 146.113 150.938 143.41C138.559 135.211 127.315 125.142 118.222 113.466C111.891 105.323 106.145 89.1027 93.2103 91.3718C80.7342 93.5436 80.6502 108.032 80.5091 117.741C79.8898 135.123 79.4206 152.76 78.8013 170.142C84.664 168.417 90.474 166.895 96.3367 165.17C63.6502 110.111 27.8437 57.0563 -10.9325 6.26185C-18.2162 -3.21139 -34.5218 6.19495 -27.2908 15.8711C11.4854 66.6656 47.4947 119.773 79.9784 174.779C84.9331 183.214 97.2751 179.058 97.5137 169.808C97.8292 157.761 98.1973 145.512 98.7157 133.519C98.9748 127.522 100.475 119.249 99.4118 113.342C99.5253 112.072 99.4886 110.546 99.6021 109.276C97.4152 109.358 95.1756 109.642 92.9887 109.723C92.5749 110.482 97.148 116.219 97.5985 116.985C109.386 134.127 124.355 148.196 141.535 159.592C147.447 163.511 155.987 158.15 155.593 151.334C154.8 132.719 153.857 113.848 153.064 95.2333C152.784 87.147 152.248 79.2109 151.967 71.1247C151.886 68.9378 151.751 66.9537 151.67 64.7668C147.28 66.6579 146.903 68.9423 150.644 71.2141C151.837 74.1231 155.976 77.3645 157.936 79.8231C179.909 106.109 199.423 134.354 216.892 163.801C223.506 174.183 239.662 164.521 233.506 154.041Z" fill="#F6B78F" fill-opacity="0.4"/>
</svg>
