<svg width="240" height="295" viewBox="0 0 240 295" fill="none" xmlns="http://www.w3.org/2000/svg">
<path d="M178.021 -13.3095C174.285 -6.30594 177.579 0.775064 183.634 4.94303C196.683 14.0668 209.471 23.5039 222.038 33.0764C203.244 35.8343 184.272 38.5498 165.478 41.3077C160.032 42.0775 155.314 44.5243 153.246 50.046C151.501 54.6108 152.22 61.4542 156.623 64.6648C173.12 76.6772 189.811 88.2662 206.697 99.4317C149.41 100.066 92.2489 104.113 35.35 111.794C19.9184 113.849 17.891 133.007 32.5845 138.387C103.224 164.146 174.108 190.058 243.07 220.491C247.296 217.739 251.481 215.165 255.936 213.032C259.553 211.262 263.33 210.001 266.608 207.681C268.302 206.487 269.929 205.183 271.487 203.769C213.324 177.318 153.559 154.432 93.6246 132.257C146.653 127.413 200.002 125.559 253.317 126.609C267.621 126.917 270.182 107.886 259.376 101.177C239.441 89.0029 219.922 76.2701 200.707 63.0461C218.815 60.4067 236.813 57.835 254.853 55.0855C260.299 54.3157 265.017 51.8688 267.084 46.3471C268.804 41.4944 267.959 35.1846 263.708 31.7283C241.936 13.8542 219.376 -3.07996 196.139 -19.1419C190.287 -22.9795 181.215 -19.2206 178.021 -13.3095Z" fill="#6FC5DD" fill-opacity="0.22"/>
</svg>
