<svg width="46" height="46" viewBox="0 0 46 46" fill="none" xmlns="http://www.w3.org/2000/svg">
<circle cx="23" cy="23" r="23" fill="#6FC5DD"/>
<path d="M15.3582 26.8527C15.1368 26.4145 14.8926 25.9726 14.6254 25.5269C14.3659 25.0737 14.0644 24.6128 13.721 24.1445C13.6141 24.2805 13.4767 24.4693 13.3088 24.711C13.1485 24.9528 12.9844 25.2096 12.8165 25.4816C12.6562 25.7535 12.5035 26.0142 12.3585 26.2635C12.2135 26.5127 12.1066 26.7092 12.0379 26.8527H10C10.3358 26.2408 10.7251 25.5987 11.1678 24.9263C11.6181 24.254 12.1181 23.5401 12.6676 22.7847L10.1145 19H12.2784L13.824 21.4476L15.3353 19H17.3732L14.8544 22.8074C15.4956 23.6308 16.0337 24.3938 16.4687 25.0963C16.9038 25.7913 17.2473 26.3768 17.4992 26.8527H15.3582Z" fill="white"/>
<path d="M18.5273 26.8527V19H20.3019V23.6346C20.5767 23.2266 20.8706 22.8036 21.1835 22.3654C21.4965 21.9197 21.8094 21.4929 22.1224 21.085C22.4429 20.6695 22.7559 20.2805 23.0612 19.9178C23.3665 19.5552 23.6451 19.2493 23.897 19H25.351V26.8527H23.5878V21.7082C22.9162 22.4863 22.2826 23.3135 21.6873 24.1898C21.0919 25.0661 20.5386 25.9537 20.0272 26.8527H18.5273Z" fill="white"/>
<path d="M33.0661 19V20.5071H30.6732V26.8527H28.8872V20.5071H26.4943V19H33.0661Z" fill="white"/>
<path d="M35.8512 21.0283C35.8512 21.6402 35.8283 22.2106 35.7825 22.7394C35.7367 23.2682 35.6756 23.8045 35.5993 24.3484H34.2941C34.2178 23.8045 34.1529 23.2682 34.0994 22.7394C34.0537 22.2106 34.0308 21.6402 34.0308 21.0283V19H35.8512V21.0283ZM36 25.9575C36 26.2899 35.8893 26.5467 35.668 26.728C35.4543 26.9093 35.21 27 34.9352 27C34.6605 27 34.4124 26.9093 34.191 26.728C33.9773 26.5467 33.8705 26.2899 33.8705 25.9575C33.8705 25.6251 33.9773 25.3683 34.191 25.187C34.4124 25.0057 34.6605 24.915 34.9352 24.915C35.21 24.915 35.4543 25.0057 35.668 25.187C35.8893 25.3683 36 25.6251 36 25.9575Z" fill="white"/>
</svg>
