<svg width="165" height="184" viewBox="0 0 165 184" fill="none" xmlns="http://www.w3.org/2000/svg">
<g opacity="0.4">
<path d="M126.915 32.103C133.442 35.8827 136.922 43.6773 140.006 50.3761C143.955 58.8394 147.763 67.2779 151.235 75.9514C158.441 93.4903 165.002 111.357 170.635 129.501C174.48 126.799 178.326 124.097 182.171 121.395C165.42 106.443 148.644 91.6334 132.036 76.7064C128.095 73.2317 124.205 69.4722 119.98 65.9478C116.25 62.9498 111.634 60.8238 106.891 62.7828C97.382 66.843 99.9173 80.0464 100.091 88.2907C100.338 99.4811 100.56 110.814 100.948 122.029C101.003 124.239 102.187 130.899 100.248 132.761C101.326 131.629 99.3762 131.875 98.0274 131.2C95.8494 130.233 93.8634 129.006 91.9023 127.637C84.6701 122.854 78.4726 116.345 71.8662 110.498C65.1175 104.626 56.5251 97.5526 47.4088 96.8411C36.4171 95.949 27.6513 108.353 21.3705 115.764C13.9872 124.449 7.47609 134.019 1.93646 143.906C-2.56844 152.067 10.5922 158.178 15.0723 150.16C19.5275 142.283 24.5024 134.791 30.2815 127.733C33.0875 124.263 36.1782 120.842 39.3864 117.589C41.1576 115.844 44.1127 111.52 46.6319 111.373C49.6029 111.158 54.465 115.234 56.8035 116.962C60.0389 119.434 63.1071 122.023 66.0081 124.73C71.5752 129.809 77.0926 135.172 83.2606 139.329C89.2863 143.461 97.2054 148.511 104.776 146.312C113.251 143.978 115.478 135.42 115.514 127.652C115.657 118.436 115.062 109.239 114.895 100.116C114.743 95.1022 114.592 90.0888 114.583 85.1002C114.578 82.6059 114.431 80.0867 114.427 77.5925C114.408 76.8559 114.39 76.1194 114.372 75.3828C114.863 73.415 114.219 73.7426 112.416 76.508C111.135 76.2844 109.854 76.0607 108.573 75.8371C111.462 76.9283 113.862 79.9874 116.293 82.0252C118.817 84.3726 121.507 86.6025 124.031 88.9498C129.506 93.7192 134.813 98.6059 140.287 103.375C151.069 113.031 161.993 122.712 172.775 132.368C178.484 137.472 186.374 130.929 184.311 124.262C178.097 104.402 170.955 84.821 162.835 65.8022C158.984 56.7695 154.992 47.712 150.498 39.007C146.214 30.7786 141.28 23.7567 133.144 19.1095C125.033 14.3199 118.921 27.4806 126.915 32.103Z" fill="#6FC5DD"/>
</g>
</svg>
