<svg width="91" height="227" viewBox="0 0 91 227" fill="none" xmlns="http://www.w3.org/2000/svg">
<path d="M-25.8818 29.9458C-16.2821 32.1872 -9.20573 40.6587 -2.94604 47.5904C5.19947 56.5628 12.9873 65.7045 20.681 75.1098C36.2227 94.1537 50.9548 113.8 64.6441 134.203C68.3567 129.467 72.0695 124.732 75.8913 119.857C49.5816 107.663 23.3962 95.4545 -2.91343 83.2607C-9.18877 80.3648 -15.3699 77.2054 -21.7544 74.4487C-27.4576 72.1138 -34.0043 71.1416 -39.1587 75.4213C-49.3283 84.09 -41.2854 99.5037 -38.0492 109.575C-33.4771 123.392 -29.0291 137.224 -24.4569 151.041C-23.614 153.838 -19.5305 161.537 -21.1724 164.636C-20.1255 162.87 -22.6593 163.807 -24.4588 163.521C-27.5307 163.136 -30.5234 162.364 -33.407 161.453C-44.2902 157.98 -54.3111 152.26 -64.7085 147.594C-75.1059 142.928 -88.5111 137.366 -100.069 139.774C-113.957 142.716 -120.27 161.38 -125.297 172.956C-131.217 186.531 -135.556 200.67 -138.717 215.171C-141.323 226.958 -122.707 229.747 -120.101 217.96C-117.573 206.561 -114.146 195.305 -109.649 184.55C-107.408 179.11 -104.904 173.764 -102.26 168.528C-100.728 165.569 -98.7165 159.275 -95.5917 158.014C-91.9849 156.569 -84.4071 159.812 -80.9663 161.16C-76.0838 162.964 -71.2803 165.156 -66.6011 167.362C-57.7697 171.588 -49.0326 176.076 -39.7154 179.108C-30.8011 181.937 -19.0481 185.304 -10.3961 179.718C-0.810322 173.516 -1.17021 162.214 -3.98859 152.471C-7.3752 141.157 -11.383 129.919 -15.0181 118.636C-17.0276 112.45 -19.022 106.389 -21.0315 100.203C-22.0287 97.1723 -23.0409 94.0174 -24.0382 90.9867C-24.3919 90.1471 -24.6365 89.1682 -24.866 88.3136C-24.9485 85.5503 -25.6186 86.2618 -26.7524 90.4329C-28.3675 90.6284 -30.1068 90.839 -31.7219 91.0345C-27.656 91.2986 -23.5228 94.2018 -19.9127 95.9077C-15.8998 97.8169 -11.7627 99.7112 -7.74984 101.62C0.787908 105.503 9.21644 109.525 17.7542 113.407C34.7205 121.312 51.811 129.201 68.7773 137.106C77.7179 141.192 84.9627 130.23 80.0245 122.76C64.9764 100.505 48.7462 78.8972 31.6273 58.2794C23.5158 48.5466 15.1407 38.7196 6.34394 29.5739C-2.00492 21.0043 -10.9037 14.1401 -22.7056 11.409C-34.8953 8.59883 -37.5594 27.1997 -25.8818 29.9458Z" fill="#F6B78F" fill-opacity="0.49"/>
</svg>
