<svg width="65" height="66" viewBox="0 0 65 66" fill="none" xmlns="http://www.w3.org/2000/svg">
<circle cx="29.5" cy="36.5" r="29.5" fill="#E653C5" fill-opacity="0.07"/>
<g clip-path="url(#clip0)">
<path d="M49.3537 20.1019C49.8774 22.8081 52.4722 24.5963 55.1876 24.1222C57.903 23.6481 59.7384 21.0864 59.3141 18.3628L63.5996 17.6178C64.0401 17.5424 64.4324 17.2949 64.6902 16.9298C64.948 16.5648 65.05 16.1122 64.9737 15.6718L62.4211 1.38664C62.2565 0.471184 61.3819 -0.138274 60.4661 0.0242924L32.6632 4.87149C32.2199 4.94682 31.8255 5.197 31.5685 5.56588C31.3108 5.92851 31.2095 6.37945 31.2873 6.81746L33.8372 21.1077C34.0108 22.0189 34.8826 22.6228 35.7966 22.465L49.3537 20.1019ZM57.5857 15.2608C56.6741 14.4827 55.5147 14.0554 54.3162 14.0559C54.3027 14.0559 54.2892 14.0559 54.2751 14.0559C54.862 12.8165 55.0462 11.4245 54.802 10.0752C54.3994 7.85935 52.9122 5.99324 50.842 5.10651L56.6625 4.09446C57.1508 5.43192 58.4227 6.3218 59.8465 6.32211H59.869L60.8631 11.9014C60.1973 12.134 59.6221 12.5711 59.2196 13.1501C58.8217 13.715 58.6111 14.3905 58.6174 15.0815L57.5857 15.2608ZM49.9896 16.5051C49.7036 16.6022 49.411 16.6791 49.1142 16.7351C46.0597 17.2835 43.1351 15.2645 42.5651 12.214C42.304 10.7678 42.6338 9.27744 43.4804 8.07635C44.791 6.2122 47.0895 5.31273 49.3173 5.79219C51.545 6.27165 53.27 8.03706 53.6977 10.2753C53.9478 11.6627 53.6519 13.0931 52.8717 14.2673C51.6669 14.6302 50.6398 15.4277 49.9896 16.5051ZM42.5617 7.432C41.5424 8.87743 41.1457 10.6715 41.4608 12.4119C41.8642 14.6296 43.3547 16.4963 45.4281 17.3805L39.6003 18.3954C39.1013 17.057 37.8238 16.169 36.3954 16.1678L35.3997 10.5885C36.0654 10.3559 36.6406 9.91881 37.0431 9.33973C37.4408 8.77471 37.6514 8.09928 37.6453 7.40839L43.4557 6.39633C43.1234 6.71043 42.8239 7.05743 42.5617 7.432ZM54.3162 23.052C52.1425 23.052 50.3804 21.2899 50.3804 19.1162C50.3804 16.9425 52.1425 15.1804 54.3162 15.1804C56.4898 15.1804 58.252 16.9425 58.252 19.1162C58.2495 21.2889 56.4888 23.0495 54.3162 23.052ZM34.9431 20.907L32.3967 6.62123C32.3713 6.47785 32.4043 6.33026 32.4883 6.21135C32.5748 6.08775 32.7073 6.00408 32.856 5.97913L60.659 1.1325C60.964 1.07605 61.2571 1.27734 61.314 1.5823L63.8661 15.8675C63.8915 16.0109 63.8585 16.1585 63.7744 16.2774C63.688 16.401 63.5555 16.4847 63.4067 16.5096L59.0211 17.2715C58.8799 16.9099 58.6974 16.5657 58.4774 16.2459L59.3208 16.0992C59.4684 16.0734 59.5996 15.9898 59.6853 15.867C59.771 15.7441 59.8042 15.5921 59.7774 15.4447C59.6718 14.8678 59.8027 14.2727 60.1406 13.7934C60.4835 13.3005 61.0104 12.9663 61.6024 12.8662C61.7498 12.8407 61.8809 12.7575 61.9667 12.6352C62.0526 12.5128 62.0862 12.3612 62.0601 12.214L60.8861 5.61929C60.8319 5.31465 60.5416 5.11111 60.2367 5.16387C59.0169 5.37847 57.8517 4.57092 57.6245 3.3534C57.5702 3.0485 57.2796 2.84488 56.9745 2.89798L36.9425 6.38958C36.7948 6.4152 36.6635 6.49872 36.5776 6.62161C36.4918 6.7445 36.4586 6.89657 36.4854 7.04405C36.5909 7.62093 36.46 8.21602 36.1222 8.69539C35.7792 9.18827 35.2524 9.52242 34.6603 9.62255C34.513 9.64806 34.3819 9.7312 34.296 9.85359C34.2101 9.97598 34.1765 10.1275 34.2026 10.2748L35.3772 16.87C35.4314 17.1747 35.7217 17.3782 36.0266 17.3254C37.2463 17.1115 38.411 17.9187 38.6388 19.1359C38.6865 19.4039 38.9193 19.5993 39.1915 19.5998C39.2241 19.5997 39.2567 19.5969 39.2888 19.5913L49.3059 17.8433H49.3121L49.4296 17.823C49.3286 18.1997 49.272 18.5869 49.2609 18.9768L35.6038 21.3568C35.2979 21.4115 35.0043 21.2117 34.9431 20.907Z" fill="#E653C5"/>
<path d="M48.0357 10.6912C47.4246 10.8014 46.8388 10.3984 46.7234 9.78823C46.6719 9.50107 46.7375 9.20526 46.9056 8.96678C47.1685 8.59462 47.628 8.41509 48.0736 8.51043C48.5192 8.60577 48.8651 8.9576 48.9527 9.40477C49.0074 9.71048 49.2995 9.91401 49.6052 9.85936C49.9109 9.8047 50.1145 9.51257 50.0598 9.20686C49.8728 8.20243 49.0322 7.45028 48.0132 7.3756L47.9008 6.74981C47.8389 6.45171 47.5509 6.25702 47.2512 6.31063C46.9515 6.36423 46.749 6.64665 46.7942 6.94772L46.9067 7.5662C46.5365 7.72953 46.2177 7.99057 45.9846 8.32131C45.6437 8.80428 45.511 9.40389 45.6163 9.98558C45.843 11.2039 47.0085 12.0125 48.2291 11.7983C48.8404 11.6868 49.4268 12.0905 49.5409 12.7013C49.5928 12.9886 49.5272 13.2848 49.3587 13.5233C49.0958 13.8956 48.6362 14.0752 48.1906 13.9797C47.745 13.8842 47.3993 13.532 47.3121 13.0847C47.2574 12.779 46.9653 12.5755 46.6596 12.6301C46.3539 12.6848 46.1503 12.9769 46.205 13.2826C46.392 14.2871 47.2326 15.0392 48.2516 15.1139L48.3641 15.7397C48.4119 16.0075 48.6447 16.2026 48.9167 16.203C48.9501 16.203 48.9834 16.2 49.0163 16.194C49.3218 16.1392 49.5251 15.8473 49.4706 15.5418L49.3581 14.9205C49.7279 14.758 50.0466 14.4982 50.2802 14.1688C50.6209 13.6859 50.7533 13.0865 50.6479 12.505C50.4226 11.286 49.2567 10.4764 48.0357 10.6912Z" fill="#E653C5"/>
<path d="M47.0077 22.4902C44.961 22.4902 43.1158 23.7231 42.3326 25.614C41.5494 27.5049 41.9823 29.6815 43.4295 31.1287C44.8768 32.5759 47.0533 33.0089 48.9442 32.2256C50.8351 31.4424 52.068 29.5972 52.068 27.5505C52.0646 24.7572 49.801 22.4936 47.0077 22.4902ZM47.0077 31.4863C44.834 31.4863 43.0719 29.7242 43.0719 27.5505C43.0719 25.3769 44.834 23.6147 47.0077 23.6147C49.1814 23.6147 50.9435 25.3769 50.9435 27.5505C50.941 29.7232 49.1804 31.4838 47.0077 31.4863Z" fill="#E653C5"/>
<path d="M55.8483 18.2733C56.0046 18.5399 56.3468 18.6304 56.6145 18.4759C56.8821 18.3213 56.9749 17.9797 56.8221 17.7111C56.4031 16.9986 55.6929 16.5054 54.879 16.3616V16.3054C54.879 15.9949 54.6272 15.7432 54.3167 15.7432C54.0062 15.7432 53.7545 15.9949 53.7545 16.3054V16.3718C52.4463 16.6338 51.5049 17.7826 51.5049 19.1167C51.5049 20.4508 52.4463 21.5996 53.7545 21.8616V21.928C53.7545 22.2385 54.0062 22.4902 54.3167 22.4902C54.6272 22.4902 54.879 22.2385 54.879 21.928V21.8745C55.6935 21.7301 56.4037 21.2359 56.8221 20.5223C56.9749 20.2536 56.8821 19.912 56.6145 19.7575C56.3468 19.603 56.0046 19.6934 55.8483 19.9601C55.6319 20.3253 55.2858 20.5956 54.879 20.7169V17.5165C55.2858 17.6378 55.6319 17.9081 55.8483 18.2733ZM52.6299 19.1167C52.6367 18.4077 53.086 17.7787 53.7545 17.5424V20.691C53.086 20.4547 52.6367 19.8256 52.6299 19.1167Z" fill="#E653C5"/>
<path d="M49.0761 26.2937C48.932 26.3323 48.8092 26.4266 48.7346 26.5558C48.6601 26.6849 48.6399 26.8384 48.6786 26.9825C48.7838 27.3936 48.7302 27.8293 48.5284 28.2026L46.2654 25.9401C46.6388 25.738 47.0747 25.6842 47.486 25.7894C47.682 25.8477 47.8942 25.795 48.0402 25.6517C48.1861 25.5085 48.2428 25.2973 48.1881 25.1002C48.1335 24.9032 47.9761 24.7513 47.7773 24.7037C46.9768 24.4947 46.125 24.6472 45.4467 25.1209L45.409 25.0832C45.1884 24.8701 44.8378 24.8732 44.6209 25.09C44.404 25.3069 44.4009 25.6576 44.614 25.8782L44.6607 25.9255C43.931 27.0383 44.0772 28.5095 45.0115 29.457C45.5356 29.9802 46.2467 30.273 46.9873 30.2706C47.5397 30.2696 48.08 30.1089 48.5431 29.8078L48.5897 29.8545C48.8103 30.0676 49.161 30.0645 49.3779 29.8476C49.5948 29.6308 49.5978 29.2801 49.3848 29.0595L49.3471 29.0218C49.8206 28.3435 49.9733 27.4918 49.7648 26.6912C49.7262 26.5472 49.632 26.4244 49.5028 26.3498C49.3736 26.2753 49.2201 26.2551 49.0761 26.2937ZM45.8066 28.6619C45.3097 28.1558 45.1826 27.393 45.4883 26.7531L47.7154 28.9802C47.0755 29.2859 46.3127 29.1588 45.8066 28.6619Z" fill="#E653C5"/>
<path d="M59.9392 23.6147C57.1445 23.6147 54.8789 25.8803 54.8789 28.675C54.8789 31.4698 57.1445 33.7353 59.9392 33.7353C62.7339 33.7353 64.9995 31.4698 64.9995 28.675C64.9961 25.8817 62.7325 23.6182 59.9392 23.6147ZM59.9392 32.6108C58.3473 32.6108 56.9122 31.6519 56.303 30.1812C55.6938 28.7105 56.0306 27.0176 57.1562 25.892C58.2818 24.7664 59.9747 24.4297 61.4454 25.0389C62.9161 25.648 63.875 27.0832 63.875 28.675C63.8725 30.8477 62.1119 32.6083 59.9392 32.6108Z" fill="#E653C5"/>
<path d="M62.406 27.077C62.6191 26.8563 62.6161 26.5057 62.3992 26.2888C62.1823 26.0719 61.8316 26.0689 61.611 26.2819L61.5638 26.3286C60.4534 25.5914 58.9772 25.7392 58.0351 26.682C57.093 27.6248 56.9462 29.1011 57.6842 30.211L57.637 30.2576C57.4908 30.3988 57.4322 30.6079 57.4837 30.8044C57.5351 31.001 57.6886 31.1545 57.8852 31.206C58.0818 31.2574 58.2908 31.1988 58.432 31.0527L58.4691 31.0161C58.9438 31.3461 59.5075 31.5242 60.0856 31.5266C60.3269 31.5267 60.5671 31.4951 60.8002 31.4327C60.9943 31.3807 61.1458 31.2291 61.1978 31.0351C61.2498 30.841 61.1942 30.634 61.0522 30.4919C60.9101 30.3499 60.703 30.2944 60.509 30.3465C60.0979 30.4521 59.6621 30.3985 59.2889 30.1964L61.5514 27.9333C61.7535 28.3067 61.8073 28.7426 61.7021 29.1539C61.6438 29.3499 61.6965 29.5621 61.8398 29.7081C61.983 29.854 62.1942 29.9107 62.3913 29.856C62.5883 29.8014 62.7402 29.644 62.7878 29.4452C62.9968 28.6447 62.8443 27.7929 62.3706 27.1146L62.406 27.077ZM58.8273 27.4745C59.3334 26.9777 60.0962 26.8505 60.7361 27.1562L58.509 29.3833C58.2033 28.7434 58.3305 27.9806 58.8273 27.4745Z" fill="#E653C5"/>
</g>
<path d="M30.3444 58.1174L61.8265 45.9188L49.5349 14.1966L18.0527 26.3953L30.3444 58.1174Z" fill="#E653C5"/>
<path d="M27.6719 42.6633L30.2346 49.2773L31.3167 48.858L30.5726 46.9377C30.8558 47.0408 31.1319 47.0617 31.3814 46.965C31.7389 46.8265 31.9594 46.5229 32.0431 46.0543C32.1385 45.5318 32.0261 44.8586 31.7101 44.0431C31.4897 43.4742 31.1878 43.0023 30.8167 42.6444L30.7537 42.5868L30.6954 42.5414L30.6487 42.4914L30.595 42.4577L30.5367 42.4122L30.4667 42.3713L30.413 42.3376L30.3592 42.3039L30.2938 42.2747L30.24 42.241L30.1746 42.2118L30.1138 42.1944L30.0484 42.1652L29.9875 42.1478L29.9266 42.1304L29.8658 42.1129L29.798 42.1122L29.7371 42.0947L29.6809 42.0895L29.6131 42.0887L29.5451 42.0875L29.4772 42.0864L29.4093 42.0856L29.3461 42.0966L29.2828 42.1076L29.2195 42.1186L29.14 42.1223L29.0813 42.1451L29.0064 42.1606L28.9477 42.1834L28.8724 42.199L28.802 42.2263L27.6722 42.6641L27.6719 42.6633ZM29.0581 43.2033L29.1638 43.1623C29.4367 43.0566 29.7101 43.1334 29.9779 43.3786C30.246 43.6237 30.5008 44.0646 30.7526 44.7143C30.8885 45.0651 30.9534 45.3589 30.9283 45.5867C30.9077 45.8128 30.8221 45.955 30.6858 46.0078C30.5541 46.0589 30.4109 46.011 30.2554 45.8745C30.102 45.7433 29.9573 45.5241 29.8342 45.2063L29.0581 43.2033Z" fill="white"/>
<path d="M53.0044 32.4773L52.95 32.6017C52.95 32.6017 51.6095 35.8585 51.51 36.1042L50.6061 33.7716L49.5478 34.1817L52.116 40.8097L53.1743 40.3996L52.1199 37.6783C52.1353 37.6343 52.9324 35.6564 53.0237 35.4305C53.1267 35.6684 54.8725 39.7416 54.8725 39.7416L55.9545 39.3224L53.0044 32.4773Z" fill="white"/>
<path d="M47.8789 34.5672L47.8776 34.5786L47.87 34.5868L47.8662 34.6049L47.8573 34.6244L47.8458 34.6507L47.8344 34.677L47.8199 34.71L47.8058 34.743L47.7886 34.7824L47.7734 34.8267L47.753 34.8725L47.7331 34.9182L47.7146 34.9689L47.6917 35.0214L47.666 35.0803L47.6163 35.2034L47.5638 35.3327L47.5084 35.469L47.4502 35.6114L47.3889 35.7604L47.3227 35.9113L47.2588 36.0669L47.1964 36.2276L47.0654 36.5453L47.0015 36.701L46.9358 36.8521L46.8744 37.001L46.8182 37.1485L46.7582 37.2864L46.7054 37.416L46.6555 37.5387L46.6298 37.5975L46.6088 37.6549L46.5859 37.7074L46.5674 37.7582L46.5476 37.8043L46.5323 37.8486L46.5151 37.8879L46.4979 37.9273L46.4838 37.9603L46.4724 37.9865L46.4609 38.0128L46.454 38.0373L46.4433 38.0523L46.4395 38.0704L45.5357 35.7378L44.4721 36.1499L47.0403 42.7779L48.1035 42.3659L47.049 39.6446C47.0645 39.6006 47.862 37.6226 47.9528 37.3967C48.0558 37.6347 49.802 41.7078 49.802 41.7078L50.8792 41.2904L47.9286 34.4442L47.8789 34.5672Z" fill="white"/>
<path d="M43.7439 42.162L43.6469 42.1071L43.5593 42.0486L43.4678 41.9802L43.386 41.9085L43.3022 41.8319L43.2229 41.7536L43.1419 41.6707L43.0705 41.5836L43.0001 41.4857L42.9314 41.3923L42.8636 41.2877L42.8007 41.1812L42.7404 41.068L42.685 40.953L42.6324 40.8316L42.5797 40.7102C42.3097 40.0135 42.2641 39.393 42.4354 38.8576C42.6252 38.2715 43.0658 37.8448 43.7527 37.5786L43.8042 37.5586L43.356 36.4018L43.3044 36.4218C42.2318 36.8374 41.5369 37.4884 41.2362 38.3735C40.9615 39.1727 41.028 40.1119 41.4359 41.1644C41.829 42.1789 42.4363 42.9085 43.231 43.3261C44.0715 43.7638 45.0085 43.7934 46.0246 43.3996L46.0762 43.3797L45.6262 42.2183L45.5746 42.2383C44.9072 42.4964 44.2921 42.473 43.7439 42.162Z" fill="white"/>
<path d="M33.2412 40.3144C32.6721 40.5349 32.3436 41.0356 32.2605 41.7985C32.1831 42.5482 32.3433 43.4432 32.7382 44.4624C33.146 45.5149 33.6286 46.3068 34.1752 46.8091C34.7318 47.3241 35.3209 47.4692 35.9231 47.2359C36.5396 46.997 36.8931 46.4649 36.9795 45.668C37.0587 44.9227 36.8958 44.0209 36.4971 42.9919C36.104 41.9773 35.6176 41.2113 35.0477 40.718L34.9894 40.6726L34.9311 40.6271L34.8844 40.5772L34.819 40.548L34.7769 40.5097L34.7115 40.4806L34.6578 40.4469L34.604 40.4132L34.5503 40.3795L34.4848 40.3503L34.4357 40.3283L34.3748 40.3109L34.3256 40.2889L34.2647 40.2715L34.2155 40.2496L34.1547 40.2322L34.0984 40.2265L34.0422 40.2212L33.9861 40.2159L33.9299 40.2106L33.8736 40.205L33.8173 40.1993L33.7657 40.2058L33.6977 40.2046L33.6461 40.2111L33.5829 40.2221L33.5313 40.2286L33.4842 40.2468L33.4209 40.2578L33.3577 40.2688L33.299 40.2915L33.241 40.314L33.2412 40.3144ZM33.6544 41.3809C33.9555 41.2643 34.2604 41.3943 34.5657 41.7777C34.8498 42.12 35.1286 42.672 35.4152 43.4116C35.6925 44.1273 35.8573 44.7479 35.888 45.2595L35.8826 45.3161L35.8848 45.3562L35.8869 45.3964L35.8891 45.4366L35.8912 45.4768L35.8817 45.5214L35.8838 45.5616L35.8694 45.5947L35.8715 45.6349L35.8571 45.668L35.8592 45.7081L35.8568 45.7365L35.8426 45.7691L35.828 45.8018L35.8254 45.8298L35.8067 45.8506L35.8041 45.8787L35.7895 45.9114L35.7707 45.9322L35.7561 45.9649L35.737 45.9858L35.7178 46.0068L35.7107 46.023L35.6915 46.044L35.6678 46.0532L35.6487 46.0741L35.6299 46.0949L35.6062 46.1041L35.587 46.1251L35.5633 46.1343L35.5396 46.1434L35.5042 46.1571C35.2457 46.2573 34.9641 46.1104 34.6471 45.7259C34.3183 45.3241 34.0166 44.7622 33.7484 44.0701C33.4748 43.3638 33.3218 42.7522 33.3015 42.2531C33.2756 41.7785 33.391 41.483 33.6544 41.3809Z" fill="white"/>
<path d="M39.665 43.7423L39.6221 43.7153L39.5725 43.6856L39.48 43.629L39.3935 43.5587L39.3067 43.4889L39.2229 43.4124L39.144 43.3339L39.0679 43.2491L38.9916 43.1639L38.9212 43.066L38.8526 42.9726L38.7896 42.8661L38.7267 42.7596L38.6668 42.6463L38.6114 42.5313L38.5542 42.4116L38.5065 42.2884C38.2365 41.5916 38.186 40.973 38.3622 40.4358C38.547 39.8516 38.9877 39.4248 39.6745 39.1586L39.731 39.1368L39.2827 37.9799L39.2263 38.0018C38.1582 38.4157 37.4588 39.0684 37.163 39.9516C36.8834 40.7527 36.9548 41.69 37.3626 42.7425C37.7557 43.7571 38.3582 44.4886 39.1577 44.9042C39.9934 45.3438 40.9348 45.3716 41.9514 44.9778L42.003 44.9578L41.5529 43.7964L41.5014 43.8164C40.8279 44.0769 40.2128 44.0535 39.665 43.7423Z" fill="white"/>
<path d="M23.9141 32.9363L26.4951 39.5973L27.7137 39.1251L25.5607 33.5685L27.0661 32.9852L29.2191 38.5417L30.4329 38.0714L27.8519 31.4104L23.9141 32.9363Z" fill="white"/>
<path d="M31.5164 29.7906C30.8717 30.0404 30.4809 30.5679 30.3643 31.3551C30.2463 32.1263 30.3908 33.03 30.7875 34.0536C31.1971 35.1107 31.7018 35.9106 32.2924 36.4015C32.8932 36.9051 33.5394 37.0224 34.2169 36.7599C34.9083 36.4921 35.3245 35.9464 35.4494 35.1237C35.5694 34.3575 35.4319 33.4375 35.0332 32.4085C34.6364 31.3845 34.1136 30.6217 33.5043 30.1384L33.446 30.0929L33.3877 30.0475L33.3294 30.002L33.264 29.9728L33.2057 29.9274L33.1402 29.8982L33.0865 29.8645L33.0211 29.8353L32.9557 29.8061L32.9065 29.7842L32.841 29.755L32.7802 29.7376L32.7193 29.7202L32.6585 29.7027L32.5859 29.6898L32.5296 29.6842L32.4688 29.6667L32.4125 29.6611L32.3445 29.6599L32.2883 29.6546L32.2204 29.6535L32.1524 29.6524L32.1008 29.6588L32.0328 29.6577L31.9696 29.6687L31.9063 29.6797L31.843 29.6907L31.7798 29.7016L31.709 29.7291L31.6503 29.7518L31.587 29.7628L31.5163 29.7902L31.5164 29.7906ZM31.9648 30.912C32.2941 30.7844 32.6098 30.9077 32.9302 31.2743C33.222 31.6084 33.5119 32.1478 33.7985 32.8874C34.0722 33.5936 34.2186 34.2161 34.2268 34.7255C34.2358 35.2236 34.0938 35.5129 33.7927 35.6296L33.7574 35.6433L33.7337 35.6525L33.7099 35.6616L33.6866 35.6707L33.6583 35.6681L33.6301 35.6655L33.6064 35.6747L33.5781 35.6722L33.5502 35.6694L33.5219 35.6669L33.4937 35.6643L33.4654 35.6617L33.4324 35.647L33.4045 35.6443L33.3717 35.63L33.3435 35.6274L33.3225 35.608L33.2897 35.5937L33.2567 35.579L33.2358 35.5596L33.2028 35.5449L33.1653 35.5185L33.1444 35.4991L33.1114 35.4844L33.0859 35.4532L33.0488 35.4266L33.0279 35.4072L32.9978 35.3644L32.9603 35.3379L32.9348 35.3068L32.9093 35.2756L32.8718 35.2492C32.5291 34.8528 32.2208 34.3018 31.9543 33.6142C31.6807 32.9079 31.5399 32.2999 31.5353 31.8C31.5295 31.318 31.6682 31.0269 31.9648 30.912Z" fill="white"/>
<path d="M40.3848 26.554L40.8127 27.6584L41.824 27.2666L43.977 32.8231L45.1957 32.3509L43.0427 26.7944L44.0682 26.397L43.6403 25.2925L40.3848 26.554Z" fill="white"/>
<path d="M38.6163 29.9059L37.9531 30.1628C37.6803 30.2686 37.4495 30.2873 37.2745 30.2134C37.1473 30.1645 37.0588 30.0623 37 29.9105L36.3111 28.1324L35.0928 28.6045L35.8295 30.5058C35.9985 30.942 36.3175 31.249 36.7701 31.4117C37.216 31.5718 37.6873 31.558 38.1622 31.3739L39.0512 31.0295L40.2985 34.2484L41.5171 33.7762L38.9362 27.1153L37.7175 27.5875L38.6159 29.906L38.6163 29.9059Z" fill="white"/>
<path d="M45.2287 24.6817L47.5863 31.4297L48.7978 30.9603C48.7978 30.9603 47.7047 27.8041 47.6522 27.6552L49.1693 27.0674C49.237 27.1995 50.785 30.1903 50.785 30.1903L52.0082 29.7163L49.556 25.0636L49.5331 25.0044L49.5102 24.9452L49.4872 24.886L49.4526 24.8314L49.4297 24.7722L49.3997 24.7293L49.3768 24.6702L49.3467 24.6273L49.3121 24.5726L49.2821 24.5297L49.252 24.4868L49.222 24.444L49.192 24.4011L49.1499 24.3628L49.1198 24.32L49.0898 24.2771L49.0477 24.2388L49.0102 24.2124L48.9681 24.1742L48.9426 24.143L48.9006 24.1048L48.863 24.0783L48.8138 24.0564L48.7718 24.0182L48.7388 24.0035L48.685 23.9698L48.6521 23.9551L48.6029 23.9331L48.5537 23.9112L48.5091 23.901L48.4715 23.8745L48.4107 23.8571C48.0113 23.7335 47.5528 23.7803 47.0263 23.9843L45.2284 24.681L45.2287 24.6817ZM46.8203 25.3327L47.2553 25.1641C47.5704 25.0421 47.8218 25.062 48.0287 25.2051C48.1996 25.3243 48.3916 25.6042 48.6013 26.0193L47.2487 26.5434L47.2442 26.5317L47.2396 26.5199L47.235 26.5082L47.2305 26.4964L47.2259 26.4846L47.2214 26.4729L47.2168 26.4611L47.203 26.4255L47.1892 26.3898L47.1754 26.3542L47.1732 26.314L47.1549 26.2666L47.141 26.2309L47.1227 26.1835L47.1043 26.1361L47.0859 26.0887L47.0676 26.0413L47.0263 25.9347L46.9895 25.8399L46.9828 25.788L46.9645 25.7406L46.9461 25.6931L46.9277 25.6457L46.9093 25.5983L46.8955 25.5627L46.8772 25.5153L46.8633 25.4796L46.8495 25.4439L46.8519 25.4155L46.8474 25.4038L46.8428 25.392L46.8383 25.3803L46.8337 25.3685L46.8292 25.3568L46.8246 25.345L46.8199 25.3329L46.8203 25.3327Z" fill="white"/>
<path d="M15.633 10.9412C12.7906 10.9412 10.4863 13.2454 10.4863 16.0878C10.4863 18.9303 12.7906 21.2345 15.633 21.2345C18.4754 21.2345 20.7797 18.9303 20.7797 16.0878C20.7762 13.2468 18.474 10.9446 15.633 10.9412ZM15.633 20.0908C14.0139 20.0908 12.5543 19.1155 11.9347 17.6197C11.3152 16.1239 11.6576 14.4021 12.8025 13.2573C13.9473 12.1125 15.6691 11.77 17.1649 12.3896C18.6607 13.0092 19.636 14.4688 19.636 16.0878C19.6334 18.2976 17.8427 20.0883 15.633 20.0908Z" fill="#E653C5"/>
<path d="M18.1421 14.4625C18.3588 14.2381 18.3557 13.8814 18.1351 13.6608C17.9145 13.4402 17.5579 13.4371 17.3335 13.6539L17.2855 13.7013C16.1561 12.9515 14.6547 13.1019 13.6965 14.0608C12.7383 15.0197 12.5891 16.5212 13.3397 17.65L13.2916 17.6974C13.143 17.841 13.0834 18.0536 13.1357 18.2536C13.188 18.4535 13.3442 18.6096 13.5441 18.662C13.744 18.7143 13.9567 18.6547 14.1002 18.506L14.138 18.4688C14.6207 18.8045 15.1941 18.9856 15.7821 18.9881C16.0275 18.9881 16.2718 18.956 16.5089 18.8926C16.7062 18.8397 16.8604 18.6855 16.9132 18.4881C16.9661 18.2907 16.9096 18.0802 16.7651 17.9357C16.6206 17.7913 16.41 17.7349 16.2127 17.7878C15.7946 17.8952 15.3513 17.8406 14.9717 17.6351L17.2729 15.3334C17.4784 15.7132 17.5331 16.1565 17.4261 16.5749C17.3668 16.7742 17.4205 16.9901 17.5662 17.1385C17.7118 17.2869 17.9266 17.3445 18.1271 17.289C18.3275 17.2334 18.4819 17.0734 18.5304 16.8711C18.7429 16.057 18.5878 15.1906 18.1061 14.5008L18.1421 14.4625ZM14.5022 14.8668C15.017 14.3615 15.7928 14.2321 16.4437 14.5431L14.1786 16.8082C13.8676 16.1574 13.9969 15.3815 14.5022 14.8668Z" fill="#E653C5"/>
<path d="M4.12215 27.1932C3.50241 29.9673 5.2488 32.7185 8.02284 33.3382C10.7969 33.958 13.5481 32.2116 14.1678 29.4375C14.7876 26.6635 13.0412 23.9123 10.2671 23.2925C7.49376 22.6765 4.74497 24.4213 4.12215 27.1932ZM13.0517 29.1882C12.6986 30.7683 11.4286 31.9801 9.83366 32.2587C8.23875 32.5372 6.6331 31.8276 5.76542 30.4606C4.89774 29.0937 4.9389 27.3387 5.86972 26.014C6.80053 24.6893 8.43769 24.0557 10.0178 24.4087C12.1738 24.893 13.531 27.031 13.0517 29.1882Z" fill="#E653C5"/>
<path d="M8.10565 25.5128C7.93392 25.2524 7.58515 25.1776 7.32178 25.3448C7.05841 25.512 6.97762 25.8594 7.1402 26.1256L7.17605 26.1829C6.19805 27.1216 6.01746 28.6196 6.74436 29.7638C7.47126 30.908 8.90406 31.3811 10.1694 30.8947L10.2052 30.9519C10.3129 31.1283 10.5074 31.2328 10.714 31.2253C10.9205 31.2178 11.1069 31.0995 11.2016 30.9158C11.2963 30.7321 11.2844 30.5116 11.1707 30.339L11.1426 30.2941C11.5755 29.8961 11.8772 29.3761 12.0078 28.8028C12.0613 28.5633 12.0833 28.3178 12.0731 28.0726C12.0645 27.8685 11.9476 27.6844 11.7665 27.5898C11.5854 27.4952 11.3676 27.5044 11.1951 27.6139C11.0226 27.7235 10.9217 27.9167 10.9303 28.1208C10.9439 28.5523 10.7941 28.973 10.5107 29.2986L8.7661 26.551C9.18157 26.4332 9.62616 26.4765 10.0111 26.6721C10.1928 26.7734 10.4151 26.7682 10.5917 26.6583C10.7683 26.5485 10.8714 26.3514 10.8609 26.1437C10.8503 25.936 10.7278 25.7504 10.541 25.659C9.79281 25.2741 8.91346 25.2365 8.13518 25.5563L8.10565 25.5128ZM7.70661 29.1532C7.32569 28.5407 7.36862 27.7553 7.81403 27.1879L9.53076 29.8924C8.82778 30.054 8.0988 29.7586 7.70661 29.1532Z" fill="#E653C5"/>
<defs>
<clipPath id="clip0">
<rect width="33.7353" height="33.7353" fill="white" transform="translate(31.2646)"/>
</clipPath>
</defs>
</svg>
