<svg width="73" height="62" viewBox="0 0 73 62" fill="none" xmlns="http://www.w3.org/2000/svg">
<circle cx="29.5" cy="32.5" r="29.5" fill="#F6B78F" fill-opacity="0.32"/>
<path d="M48.8764 42.7809L47.6741 47.7096L46.1286 47.3326L49.0965 35.166L53.1955 36.1659C54.189 36.3877 55.0566 37.0002 55.587 37.8697C56.6666 39.5311 56.211 41.774 54.548 42.8794C54.4762 42.9236 54.4044 42.9678 54.3326 43.0119C53.4446 43.5251 52.4762 43.659 51.4299 43.4037L48.8764 42.7809ZM50.2775 37.0371L49.2409 41.2867L51.8328 41.919C52.404 42.0789 53.0176 41.9818 53.5129 41.6607C54.5252 41.0133 54.8373 39.6503 54.201 38.6316C53.9021 38.1475 53.4262 37.8052 52.8694 37.6694L50.2775 37.0371Z" fill="#FA985B"/>
<path d="M59.6496 41.523C60.7919 41.8016 61.6185 42.3322 62.1318 43.105C62.645 43.8778 62.7632 44.8112 62.5004 45.8882L61.2484 51.0207L59.7701 50.66L60.0518 49.5055L59.9846 49.4891C59.1095 50.283 58.1487 50.5523 57.0832 50.2924C56.1808 50.0723 55.4791 49.6133 55.0069 48.9225C54.5348 48.2728 54.3811 47.4437 54.592 46.6625C54.8026 45.799 55.2947 45.1995 56.0633 44.8422C56.8319 44.4849 57.7574 44.4433 58.8325 44.7056C59.7541 44.9304 60.4602 45.2877 60.9749 45.7628L61.0625 45.4038C61.1927 44.8702 61.0853 44.3095 60.7674 43.8618C60.4445 43.3924 59.9663 43.0599 59.4191 42.9264C58.5551 42.7157 57.7836 42.9181 57.1046 43.5337L55.9521 42.3377C56.9444 41.4387 58.1809 41.1647 59.6496 41.523ZM56.1784 47.0804C56.079 47.4879 56.1787 47.9131 56.4387 48.2232C56.718 48.5792 57.1049 48.8277 57.5392 48.9234C58.192 49.0826 58.8798 48.9729 59.4542 48.6196C60.0813 48.2586 60.4801 47.7494 60.6411 47.0896C60.2558 46.5845 59.6311 46.2265 58.7648 46.0254C58.1409 45.8732 57.575 45.8997 57.0793 46.0974C56.5931 46.2975 56.2896 46.6244 56.1784 47.0804Z" fill="#FA985B"/>
<path fill-rule="evenodd" clip-rule="evenodd" d="M71.7649 44.7664L63.6774 55.4887L62.0839 55.1L65.0262 51.377L63.5381 42.7595L65.218 43.1693L66.208 49.743L66.2368 49.75L70.085 44.3566L71.7649 44.7664Z" fill="#FA985B"/>
<path fill-rule="evenodd" clip-rule="evenodd" d="M42.8873 40.1889C43.0033 39.7135 43.0809 39.2288 43.1177 38.7443L36.5996 37.1543L35.944 39.8418L39.6782 40.7527C39.314 41.5788 38.6255 42.2332 37.7776 42.5403L37.3516 44.2867L39.5786 44.83C41.18 43.9357 42.3666 42.3234 42.8873 40.1889Z" fill="#FA985B"/>
<path fill-rule="evenodd" clip-rule="evenodd" d="M34.588 45.4012C36.4503 45.8555 38.1761 45.6186 39.5788 44.83L37.7777 42.5403C37.0496 42.815 36.1937 42.8632 35.2625 42.636C33.4578 42.1958 32.2321 40.5913 32.0872 38.8084L29.793 38.2488L29.3528 40.0534C29.9488 42.6967 31.9769 44.7642 34.588 45.4012Z" fill="#FA985B"/>
<path fill-rule="evenodd" clip-rule="evenodd" d="M32.0873 38.8085C32.01 37.8747 32.2396 36.9336 32.7406 36.1307L33.1784 34.3358L30.8841 33.7761C29.4149 35.5045 28.8469 37.833 29.3552 40.0437L32.0873 38.8085Z" fill="#FA985B"/>
<path fill-rule="evenodd" clip-rule="evenodd" d="M37.3211 34.1953C38.3146 34.4171 39.1726 35.0273 39.7149 35.8895L42.18 34.3732C41.2112 32.8828 39.7187 31.83 37.9956 31.4302C35.3846 30.7933 32.6298 31.7043 30.8835 33.7763L32.7376 36.1405C33.6895 34.6149 35.5164 33.7551 37.3211 34.1953Z" fill="#FA985B"/>
<path d="M19.2608 13.8194C19.5612 12.9712 19.6161 11.9487 19.2142 11.0566C18.4588 11.352 17.6813 12.1452 17.363 12.9999C17.0679 13.7393 16.9505 14.8247 17.358 15.672C18.2462 15.461 18.935 14.6549 19.2608 13.8194Z" fill="#FA985B"/>
<path d="M20.4608 14.829C19.1826 15.1702 18.386 16.3307 17.7878 16.5303C17.1892 16.7299 16.0429 16.3451 15.0583 16.6941C13.7751 17.1436 12.8278 18.2901 12.5698 19.6972C12.0168 22.5243 14.1841 25.7216 16.139 27.222C17.0942 27.9683 18.2122 28.7679 19.209 28.3934C20.1499 28.037 20.3254 27.3176 21.4848 26.931C22.6432 26.5446 23.1911 27.0654 24.1943 26.7095C25.2349 26.3412 25.5761 25.1834 25.8919 24.0122C26.2568 22.6766 26.2036 21.5223 26.2031 21.4582C26.1779 21.4452 23.9155 21.3257 23.1105 18.9735C22.433 17.005 23.709 15.5357 23.7643 15.4525C22.4132 14.3912 20.9598 14.7054 20.4608 14.829Z" fill="#FA985B"/>
<path d="M33.0695 9.28364C35.2884 8.54369 37.3563 9.59627 38.1175 11.8789C38.8815 14.1697 37.8302 16.2716 35.5875 17.0195L33.1308 17.8387L34.4663 21.8436L32.6914 22.4355L28.7822 10.7134L33.0695 9.28364L33.0695 9.28364ZM32.6215 16.3115L34.6581 15.6323C36.2035 15.1169 36.7986 13.9708 36.3055 12.4922C35.8125 11.0139 34.6512 10.4623 33.1138 10.975L31.0692 11.6569L32.6215 16.3115Z" fill="#FA985B"/>
<path d="M40.3961 17.1671C39.8976 15.6723 40.7089 14.3818 42.6522 13.6073L44.8883 12.7082L44.6689 12.0502C44.3519 11.0998 43.5362 10.7399 42.4904 11.0887C41.4996 11.4191 41.0439 12.1126 41.1482 12.9264L39.5316 13.4655C39.1119 11.8903 40.0164 10.3249 42.0768 9.6378C44.0976 8.96391 45.7549 9.62984 46.3265 11.3439L48.2906 17.2334L46.6502 17.7804L46.1815 16.3751L46.1421 16.3882C45.9757 17.4999 45.1221 18.4525 44.0285 18.8171C42.396 19.3616 40.9081 18.7023 40.3961 17.1671ZM45.5195 14.601L45.2947 13.9268L43.2855 14.7411C42.2876 15.1552 41.8636 15.8111 42.1074 16.5423C42.3566 17.2895 43.1214 17.5761 44.0407 17.2696C45.2372 16.8705 45.8906 15.7138 45.5195 14.601Z" fill="#FA985B"/>
<path d="M50.8876 19.8609L50.4135 18.4392C50.5508 18.4295 50.8361 18.3343 50.9788 18.2867C51.7712 18.0225 52.0855 17.5386 52.0543 16.5742C52.0489 16.5579 52.0316 16.004 52.0289 15.9958L46.165 8.44604L48.0192 7.82772L52.4463 14.0784L52.4778 14.0679L52.267 6.41113L54.0738 5.80861L53.9501 15.8425C53.9281 18.1518 53.326 19.0928 51.5984 19.6689C51.4557 19.7165 51.0222 19.8429 50.8876 19.8609Z" fill="#FA985B"/>
</svg>
