<svg width="72" height="60" viewBox="0 0 72 60" fill="none" xmlns="http://www.w3.org/2000/svg">
<circle cx="29.5" cy="30.5" r="29.5" fill="#F6B78F" fill-opacity="0.32"/>
<g clip-path="url(#clip0)">
<path d="M46.4922 32.7734C47.346 37.1855 51.5765 40.1008 56.0035 39.3279C60.4305 38.5549 63.4228 34.3785 62.7309 29.9381L69.7178 28.7235C70.4359 28.6006 71.0757 28.197 71.4959 27.6019C71.9162 27.0067 72.0825 26.2688 71.9581 25.5509L67.7964 2.26119C67.5281 0.76869 66.1023 -0.224935 64.6092 0.0401035L19.281 7.94269C18.5583 8.06549 17.9153 8.47338 17.4962 9.07477C17.076 9.66599 16.9109 10.4012 17.0379 11.1153L21.195 34.4133C21.478 35.8988 22.8993 36.8834 24.3895 36.6261L46.4922 32.7734ZM59.9131 24.8809C58.4269 23.6122 56.5367 22.9156 54.5827 22.9164C54.5607 22.9164 54.5387 22.9164 54.5158 22.9164C55.4726 20.8958 55.773 18.6264 55.3747 16.4264C54.7184 12.8139 52.2937 9.77151 48.9186 8.32586L58.4079 6.67585C59.204 8.85638 61.2777 10.3072 63.599 10.3077H63.6357L65.2564 19.4038C64.171 19.783 63.2332 20.4956 62.577 21.4397C61.9283 22.3607 61.5849 23.462 61.5952 24.5884L59.9131 24.8809ZM47.5289 26.9094C47.0626 27.0678 46.5857 27.1931 46.1017 27.2844C41.1219 28.1784 36.3537 24.8868 35.4244 19.9134C34.9988 17.5557 35.5364 15.1259 36.9167 13.1677C39.0535 10.1285 42.8008 8.66205 46.4328 9.44373C50.0648 10.2254 52.8771 13.1036 53.5744 16.7528C53.9822 19.0147 53.4997 21.3467 52.2278 23.2611C50.2634 23.8528 48.5889 25.153 47.5289 26.9094ZM35.4189 12.1172C33.757 14.4737 33.1104 17.3986 33.624 20.2361C34.2817 23.8517 36.7117 26.895 40.092 28.3367L30.5908 29.9913C29.7773 27.8092 27.6946 26.3615 25.3658 26.3594L23.7424 17.2634C24.8278 16.8841 25.7656 16.1715 26.4218 15.2274C27.0701 14.3063 27.4134 13.2051 27.4035 12.0787L36.8764 10.4287C36.3347 10.9408 35.8463 11.5065 35.4189 12.1172ZM54.5827 37.5831C51.0389 37.5831 48.166 34.7103 48.166 31.1664C48.166 27.6226 51.0389 24.7498 54.5827 24.7498C58.1265 24.7498 60.9994 27.6226 60.9994 31.1664C60.9953 34.7086 58.1249 37.5791 54.5827 37.5831ZM22.998 34.086L18.8465 10.7954C18.8051 10.5616 18.8589 10.321 18.9959 10.1271C19.1368 9.92561 19.3528 9.7892 19.5954 9.74852L64.9236 1.84685C65.4209 1.75483 65.8988 2.08299 65.9915 2.58019L70.1523 25.8699C70.1937 26.1037 70.1399 26.3443 70.0029 26.5382C69.8619 26.7397 69.6459 26.8761 69.4034 26.9168L62.2534 28.1589C62.0231 27.5693 61.7257 27.0083 61.3669 26.4869L62.7419 26.2476C62.9826 26.2056 63.1965 26.0694 63.3362 25.869C63.476 25.6687 63.53 25.4209 63.4863 25.1806C63.3143 24.2401 63.5277 23.2699 64.0784 22.4884C64.6376 21.6848 65.4965 21.14 66.4618 20.9768C66.702 20.9352 66.9157 20.7996 67.0557 20.6001C67.1957 20.4006 67.2505 20.1535 67.2079 19.9134L65.2939 9.16185C65.2055 8.66518 64.7323 8.33334 64.2352 8.41936C62.2465 8.76924 60.3469 7.45266 59.9764 5.46769C59.8879 4.97059 59.4141 4.63861 58.9167 4.72519L26.2577 10.4177C26.0169 10.4595 25.8028 10.5956 25.6629 10.796C25.5229 10.9963 25.4688 11.2442 25.5125 11.4847C25.6845 12.4252 25.4711 13.3954 24.9203 14.1769C24.3612 14.9805 23.5022 15.5253 22.537 15.6885C22.2968 15.7301 22.083 15.8657 21.943 16.0652C21.803 16.2647 21.7482 16.5118 21.7908 16.7519L23.7057 27.5044C23.7942 28.001 24.2673 28.3329 24.7645 28.2469C26.7529 27.898 28.6519 29.2141 29.0233 31.1985C29.101 31.6355 29.4805 31.9541 29.9244 31.9548C29.9775 31.9547 30.0306 31.9501 30.083 31.941L46.4143 29.0911H46.4244L46.6159 29.0581C46.4513 29.6723 46.359 30.3035 46.3409 30.9391L24.0751 34.8194C23.5764 34.9086 23.0978 34.5827 22.998 34.086Z" fill="#FA985B"/>
<path d="M44.3417 17.4302C43.3454 17.6099 42.3905 16.9528 42.2022 15.9581C42.1184 15.4899 42.2253 15.0076 42.4992 14.6188C42.928 14.0121 43.6771 13.7194 44.4036 13.8748C45.1301 14.0302 45.6939 14.6039 45.8368 15.3329C45.9259 15.8313 46.4022 16.1631 46.9006 16.074C47.399 15.9849 47.7308 15.5086 47.6417 15.0102C47.3368 13.3727 45.9663 12.1464 44.3051 12.0246L44.1217 11.0044C44.0208 10.5184 43.5514 10.201 43.0628 10.2884C42.5742 10.3758 42.2439 10.8362 42.3177 11.3271L42.5011 12.3354C41.8975 12.6017 41.3778 13.0273 40.9977 13.5665C40.442 14.3539 40.2257 15.3315 40.3973 16.2798C40.767 18.2661 42.6671 19.5844 44.6571 19.2351C45.6537 19.0534 46.6097 19.7115 46.7957 20.7073C46.8804 21.1758 46.7734 21.6587 46.4987 22.0475C46.0701 22.6544 45.3208 22.9472 44.5943 22.7915C43.8678 22.6358 43.3042 22.0617 43.162 21.3325C43.0729 20.8341 42.5966 20.5023 42.0982 20.5914C41.5998 20.6805 41.268 21.1567 41.3571 21.6551C41.662 23.2927 43.0325 24.519 44.6937 24.6407L44.8771 25.661C44.9551 26.0976 45.3346 26.4157 45.7782 26.4163C45.8326 26.4164 45.8869 26.4114 45.9404 26.4016C46.4385 26.3124 46.77 25.8364 46.6811 25.3383L46.4977 24.3254C47.1005 24.0605 47.6201 23.6369 48.0011 23.0998C48.5564 22.3126 48.7724 21.3353 48.6006 20.3874C48.2331 18.3999 46.3324 17.0801 44.3417 17.4302Z" fill="#FA985B"/>
<path d="M42.6663 36.6667C39.3294 36.6667 36.3212 38.6768 35.0443 41.7596C33.7673 44.8424 34.4731 48.3909 36.8326 50.7504C39.1921 53.1099 42.7406 53.8157 45.8234 52.5388C48.9062 51.2618 50.9163 48.2536 50.9163 44.9167C50.9107 40.3627 47.2203 36.6723 42.6663 36.6667ZM42.6663 51.3334C39.1224 51.3334 36.2496 48.4606 36.2496 44.9167C36.2496 41.3729 39.1224 38.5001 42.6663 38.5001C46.2101 38.5001 49.0829 41.3729 49.0829 44.9167C49.0789 48.4589 46.2084 51.3294 42.6663 51.3334Z" fill="#FA985B"/>
<path d="M57.0803 29.7915C57.3351 30.2262 57.893 30.3737 58.3294 30.1218C58.7658 29.8698 58.917 29.3129 58.6679 28.8748C57.9848 27.7132 56.827 26.9092 55.4999 26.6748V26.5832C55.4999 26.0769 55.0895 25.6665 54.5833 25.6665C54.077 25.6665 53.6666 26.0769 53.6666 26.5832V26.6913C51.5339 27.1186 49.999 28.9914 49.999 31.1665C49.999 33.3416 51.5339 35.2144 53.6666 35.6417V35.7498C53.6666 36.2561 54.077 36.6665 54.5833 36.6665C55.0895 36.6665 55.4999 36.2561 55.4999 35.7498V35.6627C56.8278 35.4273 57.9857 34.6215 58.6679 33.4582C58.917 33.0201 58.7658 32.4632 58.3294 32.2112C57.893 31.9593 57.3351 32.1068 57.0803 32.5415C56.7275 33.137 56.1632 33.5776 55.4999 33.7753V28.5577C56.1632 28.7554 56.7275 29.196 57.0803 29.7915ZM51.8333 31.1665C51.8442 30.0107 52.5768 28.9851 53.6666 28.5998V33.7332C52.5768 33.3479 51.8442 32.3223 51.8333 31.1665Z" fill="#FA985B"/>
<path d="M46.0394 42.8679C45.8046 42.9309 45.6043 43.0845 45.4828 43.2951C45.3613 43.5057 45.3284 43.756 45.3914 43.9908C45.5629 44.6611 45.4755 45.3713 45.1466 45.98L41.457 42.2913C42.0658 41.9619 42.7765 41.8742 43.4471 42.0457C43.7667 42.1407 44.1126 42.0548 44.3506 41.8212C44.5885 41.5877 44.6809 41.2434 44.5918 40.9221C44.5027 40.6008 44.2462 40.3532 43.9219 40.2756C42.6169 39.9349 41.2281 40.1835 40.1224 40.9558L40.0609 40.8943C39.7013 40.5469 39.1295 40.5519 38.7759 40.9055C38.4224 41.2591 38.4174 41.8308 38.7648 42.1905L38.8409 42.2675C37.6513 44.0818 37.8896 46.4803 39.4129 48.0251C40.2673 48.8782 41.4266 49.3555 42.634 49.3515C43.5346 49.35 44.4154 49.088 45.1704 48.5971L45.2465 48.6732C45.6062 49.0206 46.1779 49.0156 46.5315 48.662C46.8851 48.3084 46.8901 47.7367 46.5427 47.377L46.4813 47.3156C47.2533 46.2097 47.5022 44.8212 47.1624 43.516C47.0994 43.2811 46.9457 43.0809 46.7351 42.9594C46.5246 42.8378 46.2743 42.8049 46.0394 42.8679ZM40.709 46.7289C39.899 45.9038 39.6917 44.6601 40.1902 43.6168L43.8211 47.2477C42.7778 47.7462 41.5342 47.5389 40.709 46.7289Z" fill="#FA985B"/>
<path d="M63.749 38.5C59.1927 38.5 55.499 42.1937 55.499 46.75C55.499 51.3064 59.1927 55 63.749 55C68.3054 55 71.999 51.3064 71.999 46.75C71.9935 42.196 68.3031 38.5056 63.749 38.5ZM63.749 53.1667C61.1537 53.1667 58.814 51.6033 57.8208 49.2056C56.8276 46.8078 57.3766 44.0479 59.2118 42.2127C61.0469 40.3776 63.8068 39.8286 66.2046 40.8218C68.6023 41.815 70.1657 44.1547 70.1657 46.75C70.1617 50.2922 67.2912 53.1626 63.749 53.1667Z" fill="#FA985B"/>
<path d="M67.7714 44.1447C68.1188 43.7851 68.1138 43.2133 67.7602 42.8597C67.4066 42.5061 66.8349 42.5012 66.4752 42.8486L66.3982 42.9247C64.5879 41.7227 62.1812 41.9638 60.6453 43.5009C59.1093 45.038 58.87 47.4448 60.0732 49.2542L59.9962 49.3303C59.7579 49.5605 59.6624 49.9013 59.7462 50.2218C59.8301 50.5423 60.0804 50.7926 60.4009 50.8765C60.7214 50.9603 61.0622 50.8648 61.2924 50.6265L61.3529 50.5669C62.1267 51.105 63.0458 51.3952 63.9883 51.3992C64.3817 51.3992 64.7734 51.3478 65.1534 51.2462C65.4697 51.1613 65.7168 50.9142 65.8015 50.5978C65.8863 50.2814 65.7958 49.9439 65.5641 49.7123C65.3325 49.4807 64.9949 49.3903 64.6786 49.4752C64.0084 49.6473 63.2979 49.5599 62.6894 49.2304L66.3781 45.5408C66.7075 46.1496 66.7952 46.8603 66.6237 47.5309C66.5287 47.8505 66.6146 48.1964 66.8482 48.4344C67.0817 48.6723 67.426 48.7646 67.7473 48.6756C68.0686 48.5865 68.3161 48.33 68.3938 48.0057C68.7345 46.7007 68.4859 45.3119 67.7136 44.2062L67.7714 44.1447ZM61.9368 44.7928C62.7619 43.9828 64.0056 43.7755 65.0489 44.274L61.418 47.9049C60.9195 46.8616 61.1268 45.618 61.9368 44.7928Z" fill="#FA985B"/>
</g>
<defs>
<clipPath id="clip0">
<rect width="55" height="55" fill="white" transform="translate(17)"/>
</clipPath>
</defs>
</svg>
