<svg width="21" height="17" viewBox="0 0 21 17" fill="none" xmlns="http://www.w3.org/2000/svg">
<path d="M4.28236 7.55818C4.06926 7.43111 3.74767 7.32892 3.35551 7.48383C2.80268 7.70221 2.56195 8.25176 2.74923 8.72586C2.95715 9.25223 3.57651 9.40723 4.51404 9.64183C4.67832 9.68293 4.84818 9.72544 5.02971 9.77329C5.07098 9.78418 5.11484 9.78044 5.15407 9.76494C5.1933 9.74945 5.22787 9.7222 5.25056 9.68605C5.35038 9.52706 5.44534 9.37994 5.53718 9.23767C6.0613 8.4257 6.40753 7.88927 6.1996 7.3629C6.01217 6.88842 5.4606 6.65228 4.90818 6.8705C4.51603 7.0254 4.35111 7.31978 4.28236 7.55818ZM5.85456 7.4992C6.0052 7.88055 5.69539 8.36056 5.22639 9.08715C5.15823 9.19273 5.08836 9.30098 5.01586 9.41507C4.88497 9.38134 4.75999 9.35006 4.63806 9.31955C3.79915 9.10961 3.24491 8.97093 3.09426 8.58956C2.96753 8.26874 3.13155 7.92425 3.47578 7.78828C3.92617 7.61036 4.25497 7.99201 4.26834 8.00784C4.31537 8.06464 4.40071 8.08282 4.4776 8.05245C4.55449 8.02207 4.60436 7.95046 4.59989 7.87688C4.59958 7.87166 4.57353 7.35464 5.02844 7.17494C5.37267 7.03897 5.72783 7.17837 5.85456 7.4992Z" fill="#343131" fill-opacity="0.69"/>
<path d="M5.64531 11.0086C5.43221 10.8816 5.11062 10.7794 4.71847 10.9343C4.16563 11.1526 3.9249 11.7022 4.11218 12.1763C4.32011 12.7027 4.93946 12.8577 5.87699 13.0923C6.04127 13.1334 6.21113 13.1759 6.39266 13.2237C6.43393 13.2346 6.47779 13.2309 6.51702 13.2154C6.55625 13.1999 6.59082 13.1726 6.61352 13.1365C6.71334 12.9775 6.80829 12.8304 6.90013 12.6881C7.42425 11.8761 7.77048 11.3397 7.56255 10.8133C7.37513 10.3389 6.82356 10.1027 6.27114 10.3209C5.87898 10.4758 5.71406 10.7702 5.64531 11.0086ZM7.21752 10.9496C7.36816 11.331 7.05834 11.811 6.58934 12.5376C6.52118 12.6432 6.45132 12.7514 6.37882 12.8655C6.24792 12.8318 6.12294 12.8005 6.00102 12.77C5.1621 12.5601 4.60786 12.4214 4.45722 12.04C4.33049 11.7192 4.4945 11.3747 4.83873 11.2387C5.28912 11.0608 5.61792 11.4424 5.63129 11.4583C5.67832 11.5151 5.76366 11.5333 5.84055 11.5029C5.91745 11.4725 5.96732 11.4009 5.96284 11.3273C5.96254 11.3221 5.93648 10.8051 6.3914 10.6254C6.73562 10.4894 7.09078 10.6288 7.21752 10.9496Z" fill="#343131" fill-opacity="0.69"/>
<path d="M9.45792 5.5135C9.24482 5.38643 8.92323 5.28424 8.53107 5.43915C7.97824 5.65753 7.73751 6.20708 7.92479 6.68118C8.13271 7.20755 8.75207 7.36256 9.6896 7.59715C9.85388 7.63825 10.0237 7.68076 10.2053 7.72862C10.2465 7.7395 10.2904 7.73576 10.3296 7.72027C10.3689 7.70477 10.4034 7.67753 10.4261 7.64137C10.5259 7.48239 10.6209 7.33526 10.7127 7.19299C11.2369 6.38102 11.5831 5.8446 11.3752 5.31822C11.1877 4.84374 10.6362 4.6076 10.0837 4.82582C9.69159 4.98073 9.52667 5.2751 9.45792 5.5135ZM11.0301 5.45452C11.1808 5.83587 10.8709 6.31589 10.4019 7.04247C10.3338 7.14806 10.2639 7.2563 10.1914 7.3704C10.0605 7.33666 9.93555 7.30538 9.81362 7.27487C8.97471 7.06493 8.42047 6.92625 8.26982 6.54488C8.14309 6.22406 8.30711 5.87957 8.65134 5.7436C9.10173 5.56568 9.43053 5.94733 9.4439 5.96316C9.49093 6.01996 9.57627 6.03814 9.65316 6.00777C9.73005 5.9774 9.77992 5.90578 9.77545 5.8322C9.77514 5.82699 9.74909 5.30997 10.204 5.13027C10.5482 4.99429 10.9034 5.13369 11.0301 5.45452Z" fill="#343131" fill-opacity="0.69"/>
<path d="M10.8209 8.96394C10.6078 8.83687 10.2862 8.73468 9.89403 8.88959C9.34119 9.10797 9.10046 9.65752 9.28774 10.1316C9.49567 10.658 10.115 10.813 11.0526 11.0476C11.2168 11.0887 11.3867 11.1312 11.5682 11.1791C11.6095 11.1899 11.6533 11.1862 11.6926 11.1707C11.7318 11.1552 11.7664 11.128 11.7891 11.0918C11.8889 10.9328 11.9838 10.7857 12.0757 10.6434C12.5998 9.83146 12.946 9.29503 12.7381 8.76866C12.5507 8.29418 11.9991 8.05804 11.4467 8.27626C11.0545 8.43117 10.8896 8.72554 10.8209 8.96394ZM12.3931 8.90496C12.5437 9.28631 12.2339 9.76633 11.7649 10.4929C11.6967 10.5985 11.6269 10.7067 11.5544 10.8208C11.4235 10.7871 11.2985 10.7558 11.1766 10.7253C10.3377 10.5154 9.78342 10.3767 9.63278 9.99532C9.50605 9.6745 9.67006 9.33001 10.0143 9.19404C10.4647 9.01612 10.7935 9.39777 10.8069 9.4136C10.8539 9.4704 10.9392 9.48858 11.0161 9.45821C11.093 9.42784 11.1429 9.35622 11.1384 9.28264C11.1381 9.27743 11.112 8.76041 11.567 8.58071C11.9112 8.44473 12.2663 8.58413 12.3931 8.90496Z" fill="#343131" fill-opacity="0.69"/>
<path d="M14.6335 3.46931C14.4204 3.34225 14.0988 3.24005 13.7066 3.39496C13.1538 3.61334 12.9131 4.16289 13.1004 4.63699C13.3083 5.16336 13.9276 5.31837 14.8652 5.55296C15.0294 5.59406 15.1993 5.63657 15.3808 5.68443C15.4221 5.69531 15.466 5.69157 15.5052 5.67608C15.5444 5.66058 15.579 5.63334 15.6017 5.59718C15.7015 5.4382 15.7965 5.29107 15.8883 5.1488C16.4124 4.33683 16.7587 3.80041 16.5507 3.27403C16.3633 2.79955 15.8117 2.56341 15.2593 2.78163C14.8672 2.93654 14.7022 3.23091 14.6335 3.46931ZM16.2057 3.41033C16.3563 3.79168 16.0465 4.2717 15.5775 4.99828C15.5094 5.10387 15.4395 5.21211 15.367 5.32621C15.2361 5.29248 15.1111 5.26119 14.9892 5.23068C14.1503 5.02075 13.596 4.88206 13.4454 4.5007C13.3187 4.17987 13.4827 3.83538 13.8269 3.69941C14.2773 3.52149 14.6061 3.90314 14.6195 3.91898C14.6665 3.97577 14.7518 3.99395 14.8287 3.96358C14.9056 3.93321 14.9555 3.86159 14.951 3.78801C14.9507 3.7828 14.9247 3.26578 15.3796 3.08608C15.7238 2.9501 16.079 3.0895 16.2057 3.41033Z" fill="#343131" fill-opacity="0.69"/>
<path d="M15.9964 6.91951C15.7833 6.79244 15.4617 6.69025 15.0696 6.84516C14.5168 7.06354 14.276 7.61309 14.4633 8.08719C14.6712 8.61356 15.2906 8.76856 16.2281 9.00316C16.3924 9.04425 16.5623 9.08677 16.7438 9.13462C16.7851 9.14551 16.8289 9.14177 16.8681 9.12627C16.9074 9.11077 16.942 9.08353 16.9646 9.04738C17.0645 8.88839 17.1594 8.74127 17.2513 8.599C17.7754 7.78703 18.1216 7.2506 17.9137 6.72423C17.7263 6.24975 17.1747 6.01361 16.6223 6.23183C16.2301 6.38673 16.0652 6.68111 15.9964 6.91951ZM17.5686 6.86052C17.7193 7.24187 17.4095 7.72189 16.9405 8.44848C16.8723 8.55406 16.8024 8.66231 16.7299 8.7764C16.599 8.74267 16.4741 8.71139 16.3521 8.68087C15.5132 8.47094 14.959 8.33226 14.8083 7.95089C14.6816 7.63007 14.8456 7.28558 15.1899 7.1496C15.6403 6.97169 15.969 7.35334 15.9824 7.36917C16.0294 7.42597 16.1148 7.44415 16.1917 7.41378C16.2686 7.3834 16.3184 7.31179 16.314 7.2382C16.3137 7.23299 16.2876 6.71597 16.7425 6.53627C17.0868 6.4003 17.4419 6.5397 17.5686 6.86052Z" fill="#343131" fill-opacity="0.69"/>
<rect x="0.389238" y="6.9835" width="17.9491" height="9.60199" rx="1.7" transform="rotate(-21.5549 0.389238 6.9835)" stroke="#343131" stroke-opacity="0.69" stroke-width="0.6" stroke-linejoin="round"/>
</svg>
