<svg width="320" height="915" viewBox="0 0 320 915" fill="none" xmlns="http://www.w3.org/2000/svg">
<path fill-rule="evenodd" clip-rule="evenodd" d="M483.697 279.028C484.404 278.963 485.218 278.679 485.811 278.289C487.324 277.396 488.667 276.015 489.563 273.877C490.402 271.576 490.038 268.966 488.429 266.973C485.502 263.184 484.692 258.482 483.827 253.455L483.764 253.09C482.922 247.545 481.804 241.73 478.083 236.825C472.031 228.901 462.187 226.317 453.285 224.863C429.635 220.992 405.173 222.287 381.658 223.532C381.117 223.56 380.575 223.589 380.035 223.618L375.408 223.956C374.933 223.983 374.453 224.011 373.969 224.039C362.964 224.676 349.636 225.448 336.794 225.214C324.094 224.904 312.044 224.367 302.422 218.238C282.957 205.874 282.301 178.912 283.893 156.821C283.911 154.26 284.149 151.805 284.386 149.349C284.428 148.78 284.47 148.211 284.513 147.641C285.208 138.259 285.917 128.692 285.318 119.095L285.367 118.713C284.933 111.2 284.241 100.857 275.251 97.0617C267.74 93.8448 258.851 97.1317 251.645 100.013L245.627 102.115L242.48 103.031L241.775 103.245C230.234 106.737 217.339 110.639 205.65 110.966C200.096 111.263 196.259 109.683 193.489 106.453C185.007 96.2755 190.31 70.6996 193.581 55.5054C193.874 53.9246 194.176 52.4491 194.457 51.0793C194.904 48.8987 195.296 46.986 195.507 45.3432C195.703 43.8147 195.899 42.2862 196.258 40.701C198.218 29.0671 200.823 13.0105 193.242 4.8907C189.7 1.01797 184.229 -0.538806 176.992 0.163562C129.22 4.98457 80.1394 32.7092 45.538 74.7216C43.9837 76.5419 43.6326 78.6719 44.3711 80.7864C45.2231 83.2263 47.4822 84.9922 50.157 85.3356C52.6692 85.7357 55.2717 84.8269 56.9318 82.7872C86.447 47.1133 127.459 22.9362 172.68 14.9912C173.034 14.9589 173.374 14.886 173.713 14.8131C174.053 14.7401 174.392 14.6672 174.746 14.6349C175.219 14.5689 175.725 14.4782 176.237 14.3862C177.608 14.1402 179.029 13.8852 180.023 14.0694C184.609 14.658 184.738 16.0728 184.539 21.252L184.441 22.0163C184.298 25.2214 183.791 28.554 183.302 31.762C183.226 32.2648 183.149 32.7645 183.075 33.2603C182.977 34.0245 182.865 34.7481 182.753 35.4716C182.64 36.1952 182.528 36.9188 182.43 37.683C181.449 45.3253 180.143 53.0812 178.779 60.6744C178.424 62.94 178.02 65.2541 177.614 67.588C177.05 70.8236 176.48 74.0973 176.02 77.3326C172.981 97.373 176.958 120.256 198.054 124.751C206.525 126.537 215.649 124.446 223.578 122.589C224.589 122.236 225.516 122.056 226.547 121.856C226.678 121.831 226.81 121.805 226.945 121.778C234.711 119.979 242.307 117.691 249.52 115.355C249.817 115.263 250.115 115.17 250.414 115.078C254.766 113.729 259.379 112.3 263.899 111.063C266.233 110.431 267.867 110.407 268.859 111.156C271.061 112.759 271.301 118.15 271.412 122.126C271.522 126.714 271.338 131.16 271.182 134.954C271.147 135.799 271.113 136.613 271.084 137.388C270.958 139.807 270.754 142.189 270.553 144.544C270.414 146.171 270.276 147.784 270.165 149.388C269.412 157.681 268.715 166.137 268.945 174.634C269.268 189.668 272.782 210.705 287.253 224.448C303.209 239.743 326.144 239.479 344.902 239.263L345.712 239.254C356.607 239.099 367.552 238.561 378.277 237.918C394.01 236.986 410.289 236.046 426.371 236.635C426.53 236.646 426.695 236.657 426.864 236.669C428.09 236.756 429.57 236.861 431.006 236.841C431.358 236.852 431.717 236.862 432.08 236.873C443.114 237.197 458.811 237.659 465.662 244.63C468.721 247.709 469.405 252.153 470.116 256.769L470.142 256.935C470.316 257.695 470.436 258.429 470.555 259.163C470.674 259.897 470.794 260.631 470.968 261.391C472.257 267.694 474.229 272.297 477.723 276.552C479.331 278.545 481.469 279.441 483.697 279.028Z" fill="#F6B78F"/>
<path d="M110.524 732.327C112.367 742.526 107.144 752.89 103.067 761.823C97.807 773.427 92.2344 784.757 86.3682 796.106C74.475 819.051 61.6629 841.465 47.6855 863.189C53.8045 864.796 59.9235 866.403 66.2225 868.057C67.012 837.58 67.8678 807.216 68.6573 776.738C68.8336 769.474 69.3034 762.19 69.2997 754.879C69.1732 748.401 67.3798 741.677 61.099 738.489C48.4901 732.292 36.9713 746.485 28.6027 753.81C17.1766 763.988 5.68408 774.052 -5.74208 784.229C-8.08985 786.21 -13.8161 793.363 -17.491 793.072C-15.3504 793.345 -17.3119 791.291 -17.7864 789.435C-18.6972 786.31 -19.2008 783.1 -19.5244 779.937C-20.7143 767.985 -19.3756 755.928 -19.2113 743.947C-19.0469 731.966 -19.2725 716.709 -26.4187 706.56C-35.0529 694.385 -55.6985 696.081 -68.9673 696.059C-84.5374 696.01 -99.993 697.723 -115.306 700.724C-127.768 703.126 -122.692 722.255 -110.229 719.852C-98.174 717.535 -85.8815 716.146 -73.6263 715.998C-67.4418 715.89 -61.2383 716.077 -55.082 716.443C-51.5872 716.687 -44.6738 716.002 -42.1532 718.492C-39.2537 721.369 -39.2209 730.035 -39.0863 733.918C-38.7899 739.383 -38.9007 744.933 -39.0779 750.369C-39.4704 760.655 -40.1566 770.959 -39.1948 781.216C-38.2048 790.999 -36.5504 803.746 -27.55 809.765C-17.5643 816.427 -6.80794 811.364 1.41878 804.579C10.9235 796.59 20.0964 788.033 29.4684 779.817C34.5993 775.297 39.6166 770.843 44.7475 766.323C47.2562 764.096 49.8784 761.802 52.3871 759.575C53.0497 758.884 53.8922 758.239 54.6212 757.661C57.2535 756.429 56.2873 756.079 51.789 756.725C50.9264 755.248 49.9974 753.657 49.1348 752.18C50.5764 756.214 49.4994 761.414 49.3595 765.61C49.1914 770.279 49.0896 775.062 48.9215 779.731C48.7371 789.591 48.3728 799.403 48.1884 809.262C47.6396 828.933 47.1572 848.718 46.6084 868.389C46.3959 878.722 59.9973 881.14 65.1455 873.257C80.3435 849.449 94.4237 824.771 107.178 799.647C113.186 787.758 119.174 775.576 124.33 763.27C129.116 751.638 132.027 740.186 129.738 727.657C127.364 714.721 108.302 719.911 110.524 732.327Z" fill="#6FC5DD"/>
</svg>
