<svg width="1379" height="622" viewBox="0 0 1379 622" fill="none" xmlns="http://www.w3.org/2000/svg">
<path fill-rule="evenodd" clip-rule="evenodd" d="M1370.15 391.64C1371.15 391.549 1372.29 391.151 1373.12 390.603C1375.24 389.349 1377.13 387.411 1378.39 384.41C1379.56 381.181 1379.05 377.518 1376.8 374.72C1372.69 369.402 1371.55 362.801 1370.34 355.746L1370.25 355.235C1369.07 347.451 1367.5 339.29 1362.27 332.404C1353.78 321.283 1339.96 317.656 1327.47 315.616C1294.27 310.182 1259.94 311.999 1226.93 313.746C1226.17 313.786 1225.41 313.827 1224.65 313.867L1218.16 314.342C1217.49 314.38 1216.82 314.419 1216.14 314.458C1200.69 315.353 1181.99 316.437 1163.96 316.107C1146.14 315.673 1129.22 314.919 1115.72 306.316C1088.4 288.962 1087.48 251.118 1089.71 220.112C1089.74 216.517 1090.07 213.071 1090.4 209.625C1090.46 208.826 1090.52 208.027 1090.58 207.226C1091.56 194.058 1092.55 180.63 1091.71 167.16L1091.78 166.624C1091.17 156.079 1090.2 141.561 1077.58 136.235C1067.04 131.719 1054.56 136.333 1044.45 140.377L1036 143.327L1031.58 144.614L1030.59 144.913C1014.4 149.815 996.297 155.292 979.889 155.75C972.094 156.167 966.709 153.95 962.821 149.416C950.916 135.131 958.359 99.2331 962.95 77.9066C963.361 75.6879 963.786 73.6169 964.18 71.6944C964.807 68.6336 965.357 65.949 965.653 63.6431C965.929 61.4978 966.204 59.3524 966.708 57.1274C969.458 40.7982 973.114 18.2614 962.475 6.86452C957.503 1.42881 949.824 -0.756262 939.666 0.229574C872.614 6.99628 803.725 45.9103 755.159 104.878C752.977 107.433 752.484 110.423 753.521 113.391C754.717 116.815 757.888 119.294 761.642 119.776C765.168 120.338 768.821 119.062 771.151 116.199C812.578 66.1276 870.143 32.193 933.614 21.0415C934.111 20.9962 934.587 20.8938 935.064 20.7914C935.54 20.689 936.017 20.5866 936.513 20.5413C937.178 20.4487 937.887 20.3214 938.606 20.1924C940.53 19.847 942.525 19.4891 943.921 19.7476C950.357 20.5737 950.538 22.5596 950.259 29.8291L950.121 30.9017C949.921 35.4004 949.208 40.0778 948.523 44.5804C948.415 45.2863 948.308 45.9878 948.204 46.6837C948.067 47.7563 947.909 48.7718 947.751 49.7873C947.594 50.803 947.436 51.8186 947.298 52.8914C945.922 63.618 944.088 74.5041 942.175 85.1619C941.675 88.3419 941.109 91.5899 940.539 94.8658C939.748 99.4072 938.947 104.002 938.301 108.543C934.036 136.672 939.618 168.79 969.228 175.098C981.118 177.606 993.925 174.67 1005.05 172.065C1006.47 171.569 1007.77 171.317 1009.22 171.036C1009.4 171 1009.59 170.964 1009.78 170.927C1020.68 168.401 1031.34 165.19 1041.47 161.91C1041.88 161.781 1042.3 161.652 1042.72 161.522C1048.83 159.629 1055.3 157.623 1061.65 155.887C1064.92 154.999 1067.22 154.966 1068.61 156.017C1071.7 158.268 1072.04 165.834 1072.19 171.415C1072.35 177.854 1072.09 184.095 1071.87 189.419C1071.82 190.606 1071.77 191.748 1071.73 192.836C1071.56 196.231 1071.27 199.574 1070.99 202.88C1070.79 205.163 1070.6 207.428 1070.44 209.679C1069.39 221.319 1068.41 233.187 1068.73 245.113C1069.18 266.215 1074.12 295.742 1094.43 315.032C1116.82 336.501 1149.01 336.13 1175.34 335.827C1175.72 335.822 1176.1 335.818 1176.48 335.813C1191.77 335.596 1207.13 334.842 1222.19 333.939C1244.27 332.631 1267.12 331.311 1289.69 332.137C1289.91 332.153 1290.15 332.169 1290.38 332.186C1292.1 332.308 1294.18 332.456 1296.2 332.427C1296.69 332.442 1297.19 332.457 1297.7 332.472C1313.19 332.927 1335.22 333.575 1344.84 343.36C1349.13 347.682 1350.09 353.918 1351.09 360.398L1351.13 360.631C1351.37 361.698 1351.54 362.728 1351.71 363.758C1351.87 364.788 1352.04 365.818 1352.29 366.886C1354.1 375.731 1356.86 382.193 1361.77 388.165C1364.03 390.962 1367.03 392.22 1370.15 391.64Z" fill="#F6B78F"/>
<path d="M324.449 370.517C326.976 384.508 319.812 398.724 314.219 410.978C307.004 426.896 299.36 442.438 291.313 458.006C274.999 489.48 257.424 520.227 238.25 550.026C246.644 552.23 255.038 554.435 263.678 556.704C264.761 514.897 265.935 473.245 267.018 431.438C267.26 421.473 267.905 411.482 267.899 401.453C267.726 392.567 265.266 383.344 256.65 378.97C239.354 370.469 223.553 389.939 212.074 399.987C196.4 413.948 180.636 427.753 164.962 441.714C161.741 444.431 153.886 454.244 148.846 453.843C151.782 454.219 149.091 451.401 148.44 448.855C147.191 444.568 146.5 440.165 146.056 435.826C144.424 419.431 146.26 402.892 146.486 386.457C146.711 370.023 146.402 349.094 136.599 335.172C124.755 318.471 96.4348 320.798 78.2336 320.768C56.8755 320.701 35.6744 323.05 14.6692 327.166C-2.42602 330.462 4.53785 356.701 21.633 353.406C38.1697 350.227 55.0317 348.322 71.8427 348.118C80.3261 347.971 88.8357 348.227 97.2805 348.729C102.075 349.064 111.558 348.124 115.015 351.539C118.993 355.487 119.038 367.374 119.222 372.7C119.629 380.196 119.477 387.809 119.234 395.267C118.696 409.376 117.754 423.511 119.074 437.58C120.432 451 122.701 468.485 135.047 476.742C148.745 485.881 163.5 478.936 174.785 469.628C187.823 458.669 200.405 446.932 213.261 435.661C220.3 429.461 227.182 423.351 234.22 417.151C237.662 414.096 241.259 410.95 244.7 407.895C245.609 406.947 246.764 406.063 247.764 405.27C251.375 403.579 250.05 403.099 243.879 403.985C242.696 401.959 241.422 399.777 240.239 397.751C242.216 403.285 240.739 410.418 240.547 416.173C240.316 422.578 240.177 429.139 239.946 435.544C239.693 449.068 239.193 462.528 238.94 476.052C238.188 503.036 237.526 530.175 236.773 557.159C236.481 571.333 255.139 574.65 262.201 563.837C283.049 531.179 302.363 497.326 319.858 462.863C328.099 446.555 336.314 429.843 343.386 412.964C349.952 397.007 353.945 381.298 350.805 364.112C347.548 346.367 321.4 353.487 324.449 370.517Z" fill="#6FC5DD"/>
</svg>
