<svg width="264" height="253" viewBox="0 0 264 253" fill="none" xmlns="http://www.w3.org/2000/svg">
<g opacity="0.4">
<path d="M160.813 44.2188C169.804 49.4249 174.596 60.1612 178.845 69.3882C184.285 81.0456 189.529 92.6688 194.312 104.616C204.237 128.774 213.274 153.383 221.033 178.376C226.33 174.653 231.626 170.931 236.923 167.209C213.85 146.615 190.743 126.216 167.866 105.656C162.439 100.87 157.08 95.6913 151.26 90.8367C146.122 86.7072 139.764 83.7789 133.232 86.4772C120.134 92.0697 123.626 110.256 123.866 121.612C124.206 137.026 124.511 152.635 125.047 168.083C125.121 171.127 126.752 180.301 124.082 182.865C125.567 181.306 122.881 181.645 121.023 180.715C118.023 179.383 115.288 177.693 112.586 175.807C102.625 169.22 94.0883 160.254 84.9886 152.2C75.6929 144.113 63.8577 134.369 51.3008 133.389C36.1609 132.16 24.0868 149.245 15.4357 159.453C5.26593 171.416 -3.70254 184.598 -11.3328 198.217C-17.5379 209.457 0.589654 217.875 6.76049 206.83C12.8971 195.982 19.7495 185.662 27.7098 175.94C31.5747 171.16 35.8318 166.448 40.2508 161.967C42.6905 159.564 46.7609 153.608 50.2307 153.406C54.323 153.11 61.0202 158.724 64.2411 161.104C68.6976 164.509 72.9238 168.075 76.9196 171.803C84.5878 178.799 92.1874 186.186 100.683 191.912C108.983 197.604 119.891 204.559 130.319 201.531C141.992 198.316 145.06 186.528 145.11 175.829C145.306 163.135 144.487 150.466 144.256 137.9C144.048 130.994 143.839 124.089 143.826 117.217C143.82 113.782 143.618 110.312 143.611 106.876C143.586 105.862 143.562 104.847 143.537 103.833C144.212 101.122 143.325 101.573 140.842 105.382C139.077 105.074 137.313 104.766 135.548 104.458C139.528 105.961 142.833 110.175 146.182 112.982C149.658 116.215 153.365 119.286 156.841 122.52C164.381 129.089 171.692 135.82 179.232 142.389C194.083 155.69 209.13 169.024 223.98 182.325C231.845 189.354 242.711 180.342 239.87 171.158C231.311 143.804 221.474 116.833 210.289 90.6362C204.985 78.1945 199.486 65.7187 193.296 53.7283C187.396 42.3945 180.599 32.7226 169.392 26.3215C158.22 19.7243 149.803 37.8519 160.813 44.2188Z" fill="#6FC5DD"/>
</g>
</svg>
