<svg width="18" height="19" viewBox="0 0 18 19" fill="none" xmlns="http://www.w3.org/2000/svg">
<path d="M17.1575 16.9465L13.2545 13.0435C14.357 11.7071 14.9561 10.0445 14.9561 8.29329C14.9561 6.29395 14.1797 4.41868 12.7653 3.00425C11.3544 1.58982 9.47561 0.813477 7.47982 0.813477C5.48402 0.813477 3.6052 1.58982 2.19077 3.00425C0.776341 4.41513 0 6.29395 0 8.29329C0 10.2891 0.776341 12.1679 2.19077 13.5823C3.60166 14.9932 5.48047 15.7731 7.47982 15.7731C9.23456 15.7731 10.8971 15.174 12.23 14.0715L16.133 17.971C16.4166 18.2546 16.8739 18.2546 17.1575 17.971C17.4411 17.6874 17.4411 17.2301 17.1575 16.9465ZM3.21526 12.5543C2.07379 11.4164 1.44633 9.90269 1.44633 8.29329C1.44633 6.68389 2.07379 5.16666 3.21171 4.02873C4.34964 2.89081 5.86332 2.26336 7.47627 2.26336C9.08567 2.26336 10.6029 2.89081 11.7408 4.02873C12.8788 5.16666 13.5062 6.68035 13.5062 8.29329C13.5062 9.90269 12.8788 11.4199 11.7408 12.5578C10.6029 13.6958 9.08567 14.3232 7.47627 14.3232C5.86687 14.3232 4.35318 13.6958 3.21526 12.5543Z" fill="#343131"/>
</svg>
