<svg width="18" height="18" viewBox="0 0 18 18" fill="none" xmlns="http://www.w3.org/2000/svg">
<path d="M17.1575 16.133L13.2545 12.23C14.357 10.8936 14.9561 9.23101 14.9561 7.47982C14.9561 5.48047 14.1797 3.6052 12.7653 2.19077C11.3544 0.776341 9.47561 0 7.47982 0C5.48402 0 3.6052 0.776341 2.19077 2.19077C0.776341 3.60166 0 5.48047 0 7.47982C0 9.47561 0.776341 11.3544 2.19077 12.7689C3.60166 14.1797 5.48047 14.9596 7.47982 14.9596C9.23456 14.9596 10.8971 14.3605 12.23 13.2581L16.133 17.1575C16.4166 17.4411 16.8739 17.4411 17.1575 17.1575C17.4411 16.8739 17.4411 16.4166 17.1575 16.133ZM3.21526 11.7408C2.07379 10.6029 1.44633 9.08922 1.44633 7.47982C1.44633 5.87041 2.07379 4.35318 3.21171 3.21526C4.34964 2.07733 5.86332 1.44988 7.47627 1.44988C9.08567 1.44988 10.6029 2.07733 11.7408 3.21526C12.8788 4.35318 13.5062 5.86687 13.5062 7.47982C13.5062 9.08922 12.8788 10.6064 11.7408 11.7444C10.6029 12.8823 9.08567 13.5098 7.47627 13.5098C5.86687 13.5098 4.35318 12.8823 3.21526 11.7408Z" fill="#E653C5"/>
</svg>
