<svg width="18" height="20" viewBox="0 0 18 20" fill="none" xmlns="http://www.w3.org/2000/svg">
<path d="M14.7573 9.30591C15.693 10.3791 15.5566 11.3268 15.4462 11.7101L15.946 12.5918C15.9628 12.6216 15.9778 12.6589 15.9825 12.689C16.4701 13.7674 14.7106 15.4714 12.6759 16.6246C10.5992 17.8016 8.17711 18.4347 7.56414 17.375C7.55853 17.3651 7.55291 17.3552 7.55011 17.3502L7.0616 16.4883C6.68923 16.3983 5.77045 16.042 5.31834 14.6554C5.13394 14.0793 5.11328 13.6394 5.09357 13.2448C5.0579 12.5385 5.02693 11.9278 4.05933 10.5913C3.22743 9.43962 2.85596 9.16583 2.60614 8.98672C2.34041 8.79045 2.16637 8.64692 1.90432 8.10823C1.86408 8.02632 1.83132 7.94671 1.79575 7.86215C1.79014 7.85225 1.78639 7.83473 1.78078 7.82483C1.26694 6.55837 1.20676 4.74029 4.78027 2.71499C8.35845 0.687046 9.88732 1.67274 10.708 2.77184C10.7136 2.78175 10.7211 2.78405 10.7267 2.79396C10.7838 2.87287 10.8381 2.94683 10.8877 3.02344C11.2199 3.52237 11.2564 3.75037 11.2808 4.07688C11.3108 4.38059 11.3501 4.84259 11.9108 6.14798C12.5603 7.66477 13.0684 8.00513 13.656 8.39858C13.9909 8.60798 14.3605 8.85665 14.7573 9.30591ZM14.812 11.8994C14.52 11.5478 13.6705 11.5646 12.4759 11.9537C11.4908 12.2764 10.5871 12.7427 10.4954 12.7881C10.4094 12.8434 9.54219 13.3742 8.76204 14.0585C7.87433 14.8365 7.41789 15.5141 7.49468 15.9549L7.63224 16.1976C8.12699 15.2169 9.49553 14.1206 10.8286 13.3651C12.2599 12.5539 13.8614 11.9996 14.913 12.0777L14.812 11.8994ZM6.83693 15.6993C6.89951 15.0683 7.39617 14.3417 8.32786 13.5323C9.18845 12.7827 10.1071 12.2228 10.1492 12.199C10.1538 12.1963 10.1585 12.1937 10.1632 12.191C10.2006 12.1698 11.1576 11.6667 12.2428 11.3135C13.4206 10.9274 14.2991 10.8745 14.868 11.1477C14.8726 10.9487 14.8389 10.693 14.7051 10.4023C14.2129 10.3409 12.3278 10.2312 10.0171 11.5408C7.70653 12.8503 6.57106 14.685 6.28954 15.1915C6.4767 15.4454 6.67132 15.6034 6.83693 15.6993ZM5.88148 14.2643C5.89834 14.3267 5.91799 14.3941 5.94046 14.4665C6.44833 13.6616 7.61566 12.123 9.68773 10.9486C11.6569 9.83262 13.3418 9.67615 14.2381 9.69832C14.2035 9.65904 14.1688 9.61976 14.1295 9.58313C13.934 9.54342 11.9552 9.22502 9.49027 10.6221C7.09546 11.9793 6.03206 13.963 5.88148 14.2643ZM9.44552 17.1726C10.2941 17.0124 11.324 16.6054 12.339 16.0301C13.354 15.4549 14.2324 14.7804 14.8058 14.1347C15.3343 13.5406 15.4745 13.1012 15.3819 12.9377C15.3117 12.8139 14.9505 12.6455 14.059 12.817C13.2105 12.9772 12.1805 13.3842 11.1655 13.9595C10.2394 14.4844 9.41524 15.102 8.84558 15.6997C8.25535 16.3157 8.07205 16.7664 8.10016 16.9796C8.10484 17.0096 8.11139 17.0321 8.12543 17.0569C8.21527 17.2154 8.65968 17.3235 9.44552 17.1726ZM8.89011 2.25755C7.96107 2.05761 6.69531 2.40847 5.11904 3.30183C3.54277 4.19519 2.59145 5.10086 2.28568 6.00064C2.18375 6.30056 2.15854 6.58319 2.18571 6.84922C2.70014 6.03408 3.75242 4.68504 5.53917 3.67239C7.21366 2.72336 8.68247 2.5454 9.58529 2.55731C9.39254 2.42439 9.16518 2.31764 8.89011 2.25755ZM10.3507 3.37357C10.3311 3.3389 10.3095 3.31182 10.2852 3.2798C10.0906 3.25265 9.66772 3.20435 9.08113 3.24882C8.33456 3.30543 7.17638 3.52988 5.87607 4.26683C3.71981 5.4889 2.6966 7.25997 2.44501 7.74289C2.45718 7.77526 2.47122 7.80003 2.48806 7.82975C2.68179 8.237 2.76694 8.3 2.9653 8.44283C3.24881 8.64866 3.67454 8.96369 4.57663 10.2064C5.63406 11.6688 5.70155 12.4421 5.7391 13.1735C6.29842 12.3394 7.37597 11.035 9.14869 10.0303C10.7998 9.09449 12.2461 8.8769 13.178 8.85274C12.595 8.45664 11.9953 7.96537 11.3167 6.38648C10.7121 4.98167 10.6652 4.45192 10.6315 4.09799C10.6109 3.85443 10.6006 3.74901 10.3507 3.37357Z" fill="#343131" fill-opacity="0.69"/>
</svg>
