<svg width="18" height="19" viewBox="0 0 18 19" fill="none" xmlns="http://www.w3.org/2000/svg">
<path d="M9.255 9.1533C11.5415 9.1533 13.4026 7.29221 13.4026 5.00573C13.4026 2.71925 11.5415 0.858154 9.255 0.858154C6.96851 0.858154 5.10742 2.71925 5.10742 5.00573C5.10742 7.29221 6.96497 9.1533 9.255 9.1533ZM9.255 2.30094C10.7439 2.30094 11.9562 3.51331 11.9562 5.00218C11.9562 6.49106 10.7439 7.70343 9.255 7.70343C7.76612 7.70343 6.55376 6.49106 6.55376 5.00218C6.55376 3.51331 7.76612 2.30094 9.255 2.30094Z" fill="#343131"/>
<path d="M13.2146 9.35178C12.9275 9.1958 12.5765 9.25252 12.3497 9.48649L9.24076 12.7053L6.13185 9.48649C5.90498 9.25252 5.55048 9.19935 5.26689 9.35533C2.40258 10.9151 0.552124 14.1126 0.555669 17.5016C0.555669 17.9022 0.878258 18.2248 1.27884 18.2248H17.2027C17.8195 18.1893 17.9259 17.693 17.9259 17.5016C17.9259 14.102 16.0754 10.9045 13.2146 9.35178ZM2.03391 16.7784C2.25015 14.375 3.54405 12.17 5.48668 10.9045L8.71611 14.2473C8.98907 14.5309 9.48536 14.5309 9.75832 14.2473L12.9913 10.9045C14.9304 12.1629 16.2243 14.3714 16.4441 16.7784H2.03391Z" fill="#343131"/>
</svg>
